<svg xmlns="http://www.w3.org/2000/svg" width="998" height="550" fill="none" opt="1"><g filter="url(#a)"><g clip-path="url(#b)" filter="url(#c)"><path fill="url(#d)" fill-opacity=".8" d="m923.217 377.164-.069 12.1c.344 3.798-1.342 7.739-5.058 9.938l-116.641 69.169c-15.612 9.245-35.053 9.108-50.502-.369l-115.649-70.836c-2.979-1.831-4.621-4.798-4.921-7.877h-.05v-34.925c.044 3.404 1.711 6.809 5.034 8.826l116.154 70.025a48.83 48.83 0 0 0 50.502 0l116.154-70.025c3.329-2.017 5.009-5.422 5.034-8.826v22.825-.025z" opacity=".9"/><path fill="url(#e)" fill-rule="evenodd" d="m802.029 275.393 116.155 70.025h-.007c6.72 4.054 6.72 13.836 0 17.89l-116.154 70.025a48.91 48.91 0 0 1-50.502 0v-.025l-116.154-70c-6.72-4.054-6.72-13.836 0-17.89l116.16-70.025a48.91 48.91 0 0 1 50.502 0m-22.693 36.018 3.834 4.566.743.669c-4.758.387-13.626 2.18-20.876 4.816-7.226 2.63-13.995 6.559-17.261 12.212-4.103 7.109-1.643 13.156 4.559 17.759 6.226 4.623 16.23 7.796 27.102 9.052 11.385 1.318 21.095.424 27.671-.825 4.584-4.566 11.753-5.21 15.2-4.86 1.143-.356 2.96-1.043 5.046-2.08 2.829-1.405 6.039-3.398 8.605-5.972 2.548-2.555 3.916-5.372 4.447-7.895.443-2.087.306-3.923-.144-5.191l-.031-.019-.019.012v-.012l-1.605-.868s.924-1.462 1.424-2.974c-20.652-13.749-47.736-17.99-58.695-18.39m-69.655 34.282c-12.596 21.832 7.687 43.42 45.562 47.793h-.006c28.276 3.267 57.821-4.404 78.154-16.891-17.717.443-34.865-5.966-29.757-15.048-6.944 1.136-16.361 1.774-27.121.531-11.341-1.306-21.87-4.623-28.489-9.539-6.638-4.935-9.336-11.488-4.902-19.171 3.566-6.178 10.966-10.444 18.678-13.249 4.446-1.605 10.067-2.961 14.513-3.792-28.258.144-56.666 12.094-66.632 29.366m113.693 16.172c5.952.075 16.712-2.349 22.419-11.006v.006c3.966-6.016.943-11.007-4.315-15.017.025.924-.069 1.924-.287 2.967-.575 2.699-2.036 5.766-4.852 8.583-2.798 2.798-6.283 4.96-9.343 6.484a47 47 0 0 1-3.472 1.543c1.38.468 2.017 1.043 2.292 1.374.568.681 1.83 2.655-2.442 5.066m1.468-31.182c-2.904 1.137-5.258 1.574-5.927 1.686l-.006-.006c-11.365-3.067-13.495-7.583-13.495-7.583 11.653 1.299 21.139 4.248 27.115 8.07 0 0-3.666-1.324-7.687-2.167" clip-rule="evenodd"/></g><g clip-path="url(#f)" filter="url(#g)"><path fill="url(#h)" d="m757.043 206.767-.084 14.673c.417 4.605-1.63 9.385-6.141 12.052L609.209 317.37c-18.954 11.211-42.556 11.044-61.313-.447l-140.404-85.901c-3.616-2.219-5.61-5.817-5.974-9.552h-.06v-42.352c.053 4.129 2.077 8.257 6.11 10.704l141.018 84.916a59.33 59.33 0 0 0 61.313 0l141.018-84.916c4.041-2.447 6.08-6.575 6.111-10.704v27.679-.03z" opacity=".9"/><path fill="url(#i)" d="M750.932 168.271 609.914 83.355a59.44 59.44 0 0 0-61.313 0L407.576 168.27c-8.158 4.916-8.158 16.779 0 21.695l141.018 84.886v.03a59.43 59.43 0 0 0 61.312 0l141.018-84.916c8.158-4.916 8.158-16.779 0-21.695zm-97.052 15.188-141.632 44.435c-5.209 1.636-9.493-1.788-5.474-4.378l56.733-36.466-58.348-6.712c-4.405-.508-4.549-4.045-.212-5.401l142.185-44.564c4.951-1.553 9.007 1.72 5.148 4.159l-58.598 37.102 60.008 6.962c3.958.462 4.072 3.628.182 4.848z"/></g><g clip-path="url(#j)"><path fill="url(#k)" d="m537.973 290.432-.109 19.107c.543 5.998-2.123 12.223-7.999 15.695L345.4 434.465c-24.69 14.599-55.434 14.382-79.868-.583L82.638 322.018c-4.711-2.89-7.309-7.576-7.783-12.439h-.079v-55.153c.07 5.376 2.706 10.752 7.96 13.939l183.695 110.582a77.31 77.31 0 0 0 79.868 0l183.694-110.582c5.264-3.187 7.921-8.563 7.96-13.939v36.045-.039z" opacity=".9"/><path fill="url(#l)" fill-rule="evenodd" d="M346.318 129.718 530.013 240.3h-.01c10.627 6.402 10.627 21.85 0 28.252L346.308 379.134a77.44 77.44 0 0 1-79.867 0v-.039L82.746 268.552c-10.626-6.402-10.626-21.85 0-28.252l183.705-110.582a77.44 77.44 0 0 1 79.867 0m-61.952 175.481c36.383.395 67.325-13.909 74.376-34.378l-.019.01.632-1.815-71.592-11.621-20.315-41.382-3.131.365c-35.356 4.143-59.967 22.087-59.167 43.138.464 12.39 9.56 23.695 23.9 31.961 14.34 8.267 33.905 13.495 55.316 13.722m78.209-45.339-61.696-10.011-17.501-35.671 98.948-11.61zm-9.304-8.63-42.832-6.945-12.138-24.75 68.668-8.059z" clip-rule="evenodd"/></g></g><g clip-path="url(#m)" filter="url(#n)"><path fill="url(#o)" fill-opacity=".8" d="m923.217 406.027-.069 12.099c.344 3.798-1.342 7.74-5.058 9.939l-116.641 69.168c-15.612 9.246-35.053 9.108-50.502-.368l-115.649-70.837c-2.979-1.83-4.621-4.797-4.921-7.877h-.05v-34.925c.044 3.405 1.711 6.809 5.034 8.827l116.154 70.024a48.82 48.82 0 0 0 50.502 0l116.154-70.024c3.329-2.018 5.009-5.422 5.034-8.827v22.825-.024z" opacity=".9"/><path fill="url(#p)" fill-rule="evenodd" d="m802.029 304.256 116.155 70.024h-.007c6.72 4.054 6.72 13.837 0 17.891l-116.154 70.024a48.91 48.91 0 0 1-50.502 0v-.025l-116.154-69.999c-6.72-4.054-6.72-13.837 0-17.891l116.16-70.024a48.91 48.91 0 0 1 50.502 0m-22.693 36.018 3.834 4.566.743.668c-4.758.388-13.626 2.18-20.876 4.817-7.226 2.629-13.995 6.559-17.261 12.212-4.103 7.108-1.643 13.155 4.559 17.759 6.226 4.622 16.23 7.796 27.102 9.051 11.385 1.318 21.095.425 27.671-.824 4.584-4.567 11.753-5.21 15.2-4.86 1.143-.356 2.96-1.043 5.046-2.08 2.829-1.406 6.039-3.398 8.605-5.972 2.548-2.555 3.916-5.372 4.447-7.896.443-2.086.306-3.923-.144-5.191l-.031-.019-.019.013v-.013l-1.605-.868s.924-1.462 1.424-2.973c-20.652-13.749-47.736-17.99-58.695-18.39m-69.655 34.281c-12.596 21.832 7.687 43.421 45.562 47.793h-.006c28.276 3.267 57.821-4.404 78.154-16.891-17.717.444-34.865-5.965-29.757-15.048-6.944 1.137-16.361 1.774-27.121.531-11.341-1.305-21.87-4.622-28.489-9.538-6.638-4.935-9.336-11.488-4.902-19.171 3.566-6.178 10.966-10.445 18.678-13.249 4.446-1.606 10.067-2.961 14.513-3.792-28.258.143-56.666 12.093-66.632 29.365m113.693 16.173c5.952.075 16.712-2.349 22.419-11.007v.006c3.966-6.015.943-11.006-4.315-15.016.025.924-.069 1.923-.287 2.967-.575 2.698-2.036 5.765-4.852 8.583-2.798 2.798-6.283 4.959-9.343 6.484a47 47 0 0 1-3.472 1.542c1.38.469 2.017 1.044 2.292 1.375.568.681 1.83 2.655-2.442 5.066m1.468-31.183c-2.904 1.137-5.258 1.575-5.927 1.687l-.006-.006c-11.365-3.067-13.495-7.584-13.495-7.584 11.653 1.3 21.139 4.248 27.115 8.071 0 0-3.666-1.324-7.687-2.168" clip-rule="evenodd"/></g><g clip-path="url(#q)" filter="url(#r)"><path fill="url(#s)" d="m757.043 235.63-.084 14.672c.417 4.606-1.63 9.386-6.141 12.052l-141.609 83.879c-18.954 11.211-42.556 11.044-61.313-.447l-140.404-85.901c-3.616-2.22-5.61-5.818-5.974-9.552h-.06v-42.352c.053 4.128 2.077 8.256 6.11 10.703L548.586 303.6a59.33 59.33 0 0 0 61.313 0l141.018-84.916c4.041-2.447 6.08-6.575 6.111-10.703v27.679-.03z" opacity=".9"/><path fill="url(#t)" d="m750.932 197.134-141.018-84.917a59.44 59.44 0 0 0-61.313 0l-141.025 84.917c-8.158 4.916-8.158 16.778 0 21.694l141.018 84.886v.031a59.43 59.43 0 0 0 61.312 0l141.018-84.917c8.158-4.916 8.158-16.778 0-21.694zm-97.052 15.187-141.632 44.436c-5.209 1.636-9.493-1.788-5.474-4.379l56.733-36.466-58.348-6.711c-4.405-.508-4.549-4.045-.212-5.401l142.185-44.564c4.951-1.553 9.007 1.719 5.148 4.158l-58.598 37.103 60.008 6.961c3.958.462 4.072 3.629.182 4.848z"/></g><g clip-path="url(#u)"><path fill="url(#v)" d="m537.973 319.294-.109 19.108c.543 5.998-2.123 12.222-7.999 15.695L345.4 463.327c-24.69 14.6-55.434 14.383-79.868-.582L82.638 350.881c-4.711-2.891-7.309-7.576-7.783-12.44h-.079v-55.152c.07 5.376 2.706 10.752 7.96 13.938l183.695 110.582a77.31 77.31 0 0 0 79.868 0l183.694-110.582c5.264-3.186 7.921-8.562 7.96-13.938v36.045-.04z" opacity=".9"/><path fill="url(#w)" fill-rule="evenodd" d="m346.318 158.58 183.695 110.582h-.01c10.627 6.403 10.627 21.85 0 28.253L346.308 407.997a77.44 77.44 0 0 1-79.867 0v-.04L82.746 297.415c-10.626-6.403-10.626-21.85 0-28.253L266.451 158.58a77.44 77.44 0 0 1 79.867 0m-61.952 175.482c36.383.394 67.325-13.91 74.376-34.379l-.019.01.632-1.815-71.592-11.62-20.315-41.382-3.131.365c-35.356 4.143-59.967 22.087-59.167 43.138.464 12.39 9.56 23.694 23.9 31.961s33.905 13.495 55.316 13.722m78.209-45.34-61.696-10.011-17.501-35.67 98.948-11.611zm-9.304-8.629-42.832-6.945-12.138-24.75 68.668-8.06z" clip-rule="evenodd"/></g><defs><linearGradient id="d" x1="767.296" x2="886.467" y1="366.345" y2="460.598" gradientUnits="userSpaceOnUse"><stop stop-color="#38DBEB"/><stop offset="1" stop-color="#38DBEB" stop-opacity="0"/></linearGradient><linearGradient id="e" x1="694.211" x2="913.253" y1="306.827" y2="401.603" gradientUnits="userSpaceOnUse"><stop stop-color="#38DBEB" stop-opacity=".6"/><stop offset="1" stop-color="#38DBEB" stop-opacity="0"/></linearGradient><linearGradient id="h" x1="833.622" x2="502.972" y1="185.545" y2="252.296" gradientUnits="userSpaceOnUse"><stop stop-color="#FFCF73" stop-opacity=".6"/><stop offset="1" stop-color="#FF9D73" stop-opacity="0"/></linearGradient><linearGradient id="i" x1="711.4" x2="483.676" y1="129.679" y2="225.45" gradientUnits="userSpaceOnUse"><stop stop-color="#FFC773" stop-opacity=".9"/><stop offset="1" stop-color="#FFB673" stop-opacity="0"/></linearGradient><linearGradient id="k" x1="291.388" x2="479.644" y1="273.346" y2="422.455" gradientUnits="userSpaceOnUse"><stop stop-color="#00A3FF" stop-opacity=".6"/><stop offset="1" stop-color="#00A3FF" stop-opacity="0"/></linearGradient><linearGradient id="l" x1="23.095" x2="563.486" y1="331.054" y2="184.534" gradientUnits="userSpaceOnUse"><stop stop-color="#00A3FF" stop-opacity=".4"/><stop offset="1" stop-color="#00A3FF" stop-opacity="0"/></linearGradient><linearGradient id="o" x1="767.296" x2="886.467" y1="395.207" y2="489.461" gradientUnits="userSpaceOnUse"><stop stop-color="#38DBEB"/><stop offset="1" stop-color="#38DBEB" stop-opacity="0"/></linearGradient><linearGradient id="p" x1="694.211" x2="913.253" y1="335.689" y2="430.466" gradientUnits="userSpaceOnUse"><stop stop-color="#38DBEB" stop-opacity=".6"/><stop offset="1" stop-color="#38DBEB" stop-opacity="0"/></linearGradient><linearGradient id="s" x1="833.622" x2="502.972" y1="214.408" y2="281.158" gradientUnits="userSpaceOnUse"><stop stop-color="#FFCF73" stop-opacity=".6"/><stop offset="1" stop-color="#FF9D73" stop-opacity="0"/></linearGradient><linearGradient id="t" x1="711.4" x2="483.676" y1="158.542" y2="254.312" gradientUnits="userSpaceOnUse"><stop stop-color="#FFC773" stop-opacity=".9"/><stop offset="1" stop-color="#FFB673" stop-opacity="0"/></linearGradient><linearGradient id="v" x1="291.388" x2="479.644" y1="302.209" y2="451.318" gradientUnits="userSpaceOnUse"><stop stop-color="#00A3FF" stop-opacity=".6"/><stop offset="1" stop-color="#00A3FF" stop-opacity="0"/></linearGradient><linearGradient id="w" x1="23.095" x2="563.486" y1="359.917" y2="213.397" gradientUnits="userSpaceOnUse"><stop stop-color="#00A3FF" stop-opacity=".4"/><stop offset="1" stop-color="#00A3FF" stop-opacity="0"/></linearGradient><clipPath id="b"><path fill="#fff" d="M630.327 268.373h292.896v206.832H630.327z"/></clipPath><clipPath id="f"><path fill="#fff" d="M401.458 74.84h355.593v274.216H401.458z"/></clipPath><clipPath id="j"><path fill="#fff" d="M74.776 118.63h463.206v326.626H74.776z"/></clipPath><clipPath id="m"><path fill="#fff" d="M630.327 297.235h292.896v206.832H630.327z"/></clipPath><clipPath id="q"><path fill="#fff" d="M401.458 103.703h355.593v274.216H401.458z"/></clipPath><clipPath id="u"><path fill="#fff" d="M74.776 147.493h463.206v326.626H74.776z"/></clipPath><filter id="a" width="996.447" height="548.365" x=".776" y=".84" color-interpolation-filters="sRGB" filterUnits="userSpaceOnUse"><feFlood flood-opacity="0" result="BackgroundImageFix"/><feBlend in="SourceGraphic" in2="BackgroundImageFix" result="shape"/><feGaussianBlur result="effect1_foregroundBlur_11562_343021" stdDeviation="37"/></filter><filter id="c" width="346.896" height="260.832" x="603.327" y="241.373" color-interpolation-filters="sRGB" filterUnits="userSpaceOnUse"><feFlood flood-opacity="0" result="BackgroundImageFix"/><feGaussianBlur in="BackgroundImageFix" stdDeviation="13.5"/><feComposite in2="SourceAlpha" operator="in" result="effect1_backgroundBlur_11562_343021"/><feBlend in="SourceGraphic" in2="effect1_backgroundBlur_11562_343021" result="shape"/></filter><filter id="g" width="403.593" height="322.216" x="377.458" y="50.84" color-interpolation-filters="sRGB" filterUnits="userSpaceOnUse"><feFlood flood-opacity="0" result="BackgroundImageFix"/><feGaussianBlur in="BackgroundImageFix" stdDeviation="12"/><feComposite in2="SourceAlpha" operator="in" result="effect1_backgroundBlur_11562_343021"/><feBlend in="SourceGraphic" in2="effect1_backgroundBlur_11562_343021" result="shape"/></filter><filter id="n" width="346.896" height="260.832" x="603.327" y="270.235" color-interpolation-filters="sRGB" filterUnits="userSpaceOnUse"><feFlood flood-opacity="0" result="BackgroundImageFix"/><feGaussianBlur in="BackgroundImageFix" stdDeviation="13.5"/><feComposite in2="SourceAlpha" operator="in" result="effect1_backgroundBlur_11562_343021"/><feBlend in="SourceGraphic" in2="effect1_backgroundBlur_11562_343021" result="shape"/></filter><filter id="r" width="403.593" height="322.216" x="377.458" y="79.703" color-interpolation-filters="sRGB" filterUnits="userSpaceOnUse"><feFlood flood-opacity="0" result="BackgroundImageFix"/><feGaussianBlur in="BackgroundImageFix" stdDeviation="12"/><feComposite in2="SourceAlpha" operator="in" result="effect1_backgroundBlur_11562_343021"/><feBlend in="SourceGraphic" in2="effect1_backgroundBlur_11562_343021" result="shape"/></filter></defs></svg>