<svg xmlns="http://www.w3.org/2000/svg" width="1080" height="1068" fill="none" opt="1"><g filter="url(#a)"><ellipse cx="539.771" cy="534.146" fill="url(#b)" fill-opacity=".3" rx="265.658" ry="258.832" transform="rotate(-13.509 539.771 534.146)"/></g><g filter="url(#c)"><path fill="url(#d)" fill-opacity=".94" fill-rule="evenodd" d="m940.886 328.802-.011-.116-.012-.115-3.592-36.734-.005-.057-.006-.058-.082-.835-.007.001c-5.676-49.646-78.315-83.089-162.958-74.812-84.643 8.276-149.428 55.157-145.379 104.961l-.007.001 4.016 41.074.098-.01c7.682 48.333 79.347 80.583 162.634 72.439 83.288-8.144 147.348-53.665 145.521-102.571l.099-.009z" clip-rule="evenodd" opacity=".5"/><ellipse cx="783.09" cy="306.855" fill="url(#e)" rx="154.911" ry="91.212" transform="rotate(-5.585 783.09 306.855)"/><ellipse cx="783.09" cy="306.855" fill="url(#f)" fill-opacity=".7" rx="154.911" ry="91.212" transform="rotate(-5.585 783.09 306.855)"/><path fill="#fff" d="m842.686 313.199-.451 1.755c-5.041 19.743-33.157 35.588-67.779 38.079-20.416 1.456-39.543-1.914-53.936-8.549z" opacity=".6"/><path fill="#fff" d="m773.884 307.952 68.801 5.238-122.166 31.284a122911 122911 0 0 0 53.364-36.532z" opacity=".2"/><path fill="#fff" d="m751.641 270.792-2.969.585c-33.504 6.648-55.871 25.352-53.594 44.999 1.387 11.564 10.996 21.449 25.39 28.084z"/><path fill="#fff" d="m773.823 307.929-22.202-37.136-31.164 73.658c16.702-11.426 35.83-24.524 53.365-36.532z" opacity=".6"/><path fill="#fff" d="m825.954 272.334-40.186 27.505 59.206 4.505z" opacity=".2"/><path fill="#fff" d="m825.933 272.326-59.265-4.499 19.079 32.004z" opacity=".6"/><path fill="#fff" d="m859.734 249.19-93.075 18.648 59.321 4.454z"/><path fill="#fff" d="m826 272.3 18.996 32.061 14.786-55.185z" opacity=".6"/></g><g filter="url(#g)" opacity=".8"><path fill="url(#h)" fill-opacity=".94" fill-rule="evenodd" d="m751.414 538.871.139-.04-1.335-4.61-15.042-51.967-.364-1.257-.01.003c-21.412-69.684-134.531-98.229-253.713-63.731S281.525 536.321 300.645 606.668l-.01.003.364 1.257 15.042 51.967 1.334 4.61.139-.04c23.937 67.266 135.34 94.361 252.614 60.416s196.98-116.357 181.286-186.01" clip-rule="evenodd" opacity=".5"/><ellipse cx="518.087" cy="545.091" fill="url(#i)" rx="226" ry="133.07" transform="rotate(-16.143 518.087 545.091)"/><ellipse cx="518.087" cy="545.091" fill="url(#j)" fill-opacity=".7" rx="226" ry="133.07" transform="rotate(-16.143 518.087 545.091)"/><g fill="#fff" filter="url(#k)"><path d="m594.065 533.83-.156 2.371c-1.71 26.665-33.975 53.807-77.809 65.279-25.851 6.747-51.211 6.964-71.284 1.841z" opacity=".6"/><path d="m504.499 543.475 89.562-9.657-149.248 69.49c18.681-18.719 40.073-40.175 59.682-59.845z" opacity=".2"/><path d="m466.993 500.855-3.668 1.463c-41.397 16.567-65.596 46.025-57.937 70.821 4.569 14.583 19.284 25.039 39.356 30.162z"/><path d="m504.414 543.46-37.445-42.598-22.241 102.431c18.681-18.72 40.073-40.175 59.683-59.845z" opacity=".6"/><path d="m562.74 485.116-44.945 45.061 77.072-8.315z" opacity=".2"/><path d="m562.711 485.112-77.146 8.336 32.202 36.725z" opacity=".6"/><path d="m600.514 447.211-114.958 46.253 77.206-8.407z"/><path d="m562.791 485.062 32.108 36.818 5.673-74.7z" opacity=".6"/></g><path fill="#fff" d="m605.256 538.258-.178 2.638c-1.951 29.663-38.039 59.904-87.029 72.732-28.89 7.545-57.223 7.825-79.64 2.157z" opacity=".6"/><path fill="#fff" d="m505.178 549.125 100.074-10.881-166.847 77.527c20.899-20.851 44.832-44.75 66.769-66.66z" opacity=".2"/><path fill="#fff" d="m463.343 501.774-4.101 1.633c-46.275 18.492-73.354 51.297-64.836 78.866 5.082 16.214 21.505 27.822 43.922 33.49z"/><path fill="#fff" d="m505.084 549.108-41.769-47.325-25.005 113.971c20.899-20.851 44.832-44.75 66.77-66.66z" opacity=".6"/><path fill="#fff" d="m570.335 484.121-50.282 50.191 86.118-9.367z" opacity=".2"/><path fill="#fff" d="m570.303 484.115-86.201 9.392 35.919 40.8z" opacity=".6"/><path fill="#fff" d="m612.595 441.899-128.503 51.626 86.268-9.47z"/><path fill="#fff" d="m570.392 484.06 35.815 40.905 6.453-83.1z" opacity=".6"/></g><g filter="url(#l)"><path fill="url(#m)" fill-opacity=".94" fill-rule="evenodd" d="m979.636 493.767-.025-.088-.026-.089-6.512-22.497-.009-.031-.009-.031-.149-.516-.005.001c-9.319-30.327-58.55-42.751-110.42-27.737s-86.854 51.814-78.532 82.43l-.005.001 7.286 25.171.06-.018c10.419 29.275 58.903 41.067 109.942 26.294 51.04-14.774 85.729-50.64 78.899-80.954l.06-.018z" clip-rule="evenodd" opacity=".5"/><ellipse cx="878.583" cy="498.41" fill="url(#n)" rx="98.359" ry="57.914" transform="rotate(-16.143 878.583 498.41)"/><ellipse cx="878.583" cy="498.41" fill="url(#o)" fill-opacity=".7" rx="98.359" ry="57.914" transform="rotate(-16.143 878.583 498.41)"/><path fill="#fff" d="m916.521 495.435-.078 1.148c-.849 12.91-16.555 26.072-37.876 31.654-12.574 3.284-24.905 3.406-34.661.939z" opacity=".6"/><path fill="#fff" d="m872.965 500.165 43.554-4.735-72.615 33.741c9.096-9.075 19.512-19.476 29.059-29.012z" opacity=".2"/><path fill="#fff" d="m854.757 479.558-1.784.711c-20.14 8.048-31.925 22.325-28.218 34.324 2.212 7.056 9.359 12.108 19.116 14.575z"/><path fill="#fff" d="m872.924 500.158-18.179-20.596-10.882 49.602c9.096-9.075 19.512-19.476 29.059-29.011z" opacity=".6"/><path fill="#fff" d="m901.322 471.875-21.883 21.844 37.48-4.077z" opacity=".2"/><path fill="#fff" d="m901.308 471.873-37.516 4.087 15.633 17.757z" opacity=".6"/><path fill="#fff" d="m919.715 453.498-55.927 22.469 37.545-4.122z"/><path fill="#fff" d="m901.347 471.849 15.587 17.802 2.809-36.166z" opacity=".6"/></g><g filter="url(#p)"><path fill="url(#q)" fill-opacity=".94" fill-rule="evenodd" d="m751.414 463.871.139-.04-1.335-4.61-15.042-51.967-.364-1.257-.01.003c-21.412-69.684-134.531-98.229-253.713-63.731S281.525 461.321 300.645 531.668l-.01.003.364 1.257 15.042 51.967 1.334 4.61.139-.04c23.937 67.266 135.34 94.361 252.614 60.416s196.98-116.357 181.286-186.01" clip-rule="evenodd" opacity=".5"/><ellipse cx="518.087" cy="470.091" fill="url(#r)" rx="226" ry="133.07" transform="rotate(-16.143 518.087 470.091)"/><ellipse cx="518.087" cy="470.091" fill="url(#s)" fill-opacity=".7" rx="226" ry="133.07" transform="rotate(-16.143 518.087 470.091)"/><g fill="#fff" filter="url(#t)"><path d="m594.065 458.83-.156 2.371c-1.71 26.665-33.975 53.807-77.809 65.279-25.851 6.747-51.211 6.964-71.284 1.841z" opacity=".6"/><path d="m504.499 468.475 89.562-9.657-149.248 69.49c18.681-18.719 40.073-40.175 59.682-59.845z" opacity=".2"/><path d="m466.993 425.855-3.668 1.463c-41.397 16.567-65.596 46.025-57.937 70.821 4.569 14.583 19.284 25.039 39.356 30.162z"/><path d="m504.414 468.46-37.445-42.598-22.241 102.431c18.681-18.72 40.073-40.175 59.683-59.845z" opacity=".6"/><path d="m562.74 410.116-44.945 45.061 77.072-8.315z" opacity=".2"/><path d="m562.711 410.112-77.146 8.336 32.202 36.725z" opacity=".6"/><path d="m600.514 372.211-114.958 46.253 77.206-8.407z"/><path d="m562.791 410.062 32.108 36.818 5.673-74.7z" opacity=".6"/></g><path fill="#fff" d="m605.256 463.258-.178 2.638c-1.951 29.663-38.039 59.904-87.029 72.732-28.89 7.545-57.223 7.825-79.64 2.157z" opacity=".6"/><path fill="#fff" d="m505.178 474.125 100.074-10.881-166.847 77.527c20.899-20.851 44.832-44.75 66.769-66.66z" opacity=".2"/><path fill="#fff" d="m463.343 426.774-4.101 1.633c-46.275 18.492-73.354 51.297-64.836 78.866 5.082 16.214 21.505 27.822 43.922 33.49z"/><path fill="#fff" d="m505.084 474.108-41.769-47.325-25.005 113.971c20.899-20.851 44.832-44.75 66.77-66.66z" opacity=".6"/><path fill="#fff" d="m570.335 409.121-50.282 50.191 86.118-9.367z" opacity=".2"/><path fill="#fff" d="m570.303 409.115-86.201 9.392 35.919 40.8z" opacity=".6"/><path fill="#fff" d="m612.595 366.899-128.503 51.626 86.268-9.47z"/><path fill="#fff" d="m570.392 409.06 35.815 40.905 6.453-83.1z" opacity=".6"/></g><defs><radialGradient id="d" cx="0" cy="0" r="1" gradientTransform="matrix(196.14638 -237.32955 334.97726 276.84954 635.2 386.22)" gradientUnits="userSpaceOnUse"><stop stop-color="#0047FF"/><stop offset="1" stop-color="#00F0FF" stop-opacity="0"/></radialGradient><radialGradient id="e" cx="0" cy="0" r="1" gradientTransform="matrix(-5.08395 96.89422 -164.56164 -8.63439 788.174 301.173)" gradientUnits="userSpaceOnUse"><stop stop-color="#00A3FF"/><stop offset="1" stop-color="#00A3FF" stop-opacity="0"/></radialGradient><radialGradient id="f" cx="0" cy="0" r="1" gradientTransform="matrix(172.55559 131.28563 -222.97019 293.06141 628.179 259.305)" gradientUnits="userSpaceOnUse"><stop stop-color="#0075FF"/><stop offset="1" stop-color="#4200FF" stop-opacity="0"/></radialGradient><radialGradient id="h" cx="0" cy="0" r="1" gradientTransform="rotate(-60.986 756.636 71.408)scale(449.187 634.002)" gradientUnits="userSpaceOnUse"><stop stop-color="#0047FF"/><stop offset="1" stop-color="#00F0FF" stop-opacity="0"/></radialGradient><radialGradient id="i" cx="0" cy="0" r="1" gradientTransform="rotate(93.004 8.065 517.728)scale(141.554 240.409)" gradientUnits="userSpaceOnUse"><stop stop-color="#00A3FF"/><stop offset="1" stop-color="#00A3FF" stop-opacity="0"/></radialGradient><radialGradient id="j" cx="0" cy="0" r="1" gradientTransform="matrix(251.74122 191.5325 -325.29161 427.54783 292.087 475.72)" gradientUnits="userSpaceOnUse"><stop stop-color="#0075FF"/><stop offset="1" stop-color="#4200FF" stop-opacity="0"/></radialGradient><radialGradient id="m" cx="0" cy="0" r="1" gradientTransform="matrix(94.81974 -170.95941 241.2989 133.83236 795.506 565.155)" gradientUnits="userSpaceOnUse"><stop stop-color="#0047FF"/><stop offset="1" stop-color="#00F0FF" stop-opacity="0"/></radialGradient><radialGradient id="n" cx="0" cy="0" r="1" gradientTransform="matrix(-3.228 61.52187 -104.48627 -5.4823 881.811 494.802)" gradientUnits="userSpaceOnUse"><stop stop-color="#00A3FF"/><stop offset="1" stop-color="#00A3FF" stop-opacity="0"/></radialGradient><radialGradient id="o" cx="0" cy="0" r="1" gradientTransform="rotate(37.265 -304.227 1391.132)scale(137.668 233.81)" gradientUnits="userSpaceOnUse"><stop stop-color="#0075FF"/><stop offset="1" stop-color="#4200FF" stop-opacity="0"/></radialGradient><radialGradient id="q" cx="0" cy="0" r="1" gradientTransform="rotate(-60.986 692.955 33.908)scale(449.187 634.002)" gradientUnits="userSpaceOnUse"><stop stop-color="#0047FF"/><stop offset="1" stop-color="#00F0FF" stop-opacity="0"/></radialGradient><radialGradient id="r" cx="0" cy="0" r="1" gradientTransform="rotate(93.004 43.649 480.228)scale(141.554 240.409)" gradientUnits="userSpaceOnUse"><stop stop-color="#00A3FF"/><stop offset="1" stop-color="#00A3FF" stop-opacity="0"/></radialGradient><radialGradient id="s" cx="0" cy="0" r="1" gradientTransform="matrix(251.74122 191.5325 -325.29161 427.54783 292.087 400.72)" gradientUnits="userSpaceOnUse"><stop stop-color="#0075FF"/><stop offset="1" stop-color="#4200FF" stop-opacity="0"/></radialGradient><filter id="a" width="1078.7" height="1066.54" x=".421" y=".876" color-interpolation-filters="sRGB" filterUnits="userSpaceOnUse"><feFlood flood-opacity="0" result="BackgroundImageFix"/><feBlend in="SourceGraphic" in2="BackgroundImageFix" result="shape"/><feGaussianBlur result="effect1_foregroundBlur_10008_120452" stdDeviation="137"/></filter><filter id="c" width="380.541" height="288.98" x="594.654" y="180.818" color-interpolation-filters="sRGB" filterUnits="userSpaceOnUse"><feFlood flood-opacity="0" result="BackgroundImageFix"/><feBlend in="SourceGraphic" in2="BackgroundImageFix" result="shape"/><feGaussianBlur result="effect1_foregroundBlur_10008_120452" stdDeviation="17"/></filter><filter id="g" width="603.551" height="484.896" x="223.833" y="328.626" color-interpolation-filters="sRGB" filterUnits="userSpaceOnUse"><feFlood flood-opacity="0" result="BackgroundImageFix"/><feBlend in="SourceGraphic" in2="BackgroundImageFix" result="shape"/><feGaussianBlur result="effect1_foregroundBlur_10008_120452" stdDeviation="37"/></filter><filter id="k" width="344.592" height="307.705" x="329.98" y="373.18" color-interpolation-filters="sRGB" filterUnits="userSpaceOnUse"><feFlood flood-opacity="0" result="BackgroundImageFix"/><feBlend in="SourceGraphic" in2="BackgroundImageFix" result="shape"/><feGaussianBlur result="effect1_foregroundBlur_10008_120452" stdDeviation="37"/></filter><filter id="l" width="386.264" height="334.623" x="688.725" y="342.406" color-interpolation-filters="sRGB" filterUnits="userSpaceOnUse"><feFlood flood-opacity="0" result="BackgroundImageFix"/><feBlend in="SourceGraphic" in2="BackgroundImageFix" result="shape"/><feGaussianBlur result="effect1_foregroundBlur_10008_120452" stdDeviation="47"/></filter><filter id="p" width="603.551" height="484.896" x="223.833" y="253.626" color-interpolation-filters="sRGB" filterUnits="userSpaceOnUse"><feFlood flood-opacity="0" result="BackgroundImageFix"/><feGaussianBlur in="BackgroundImageFix" stdDeviation="37"/><feComposite in2="SourceAlpha" operator="in" result="effect1_backgroundBlur_10008_120452"/><feBlend in="SourceGraphic" in2="effect1_backgroundBlur_10008_120452" result="shape"/></filter><filter id="t" width="344.592" height="307.705" x="329.98" y="298.18" color-interpolation-filters="sRGB" filterUnits="userSpaceOnUse"><feFlood flood-opacity="0" result="BackgroundImageFix"/><feBlend in="SourceGraphic" in2="BackgroundImageFix" result="shape"/><feGaussianBlur result="effect1_foregroundBlur_10008_120452" stdDeviation="37"/></filter><linearGradient id="b" x1="539.771" x2="539.771" y1="275.314" y2="792.977" gradientUnits="userSpaceOnUse"><stop stop-color="#0085FF"/><stop offset="1" stop-color="#777DFF"/></linearGradient></defs></svg>