<svg xmlns="http://www.w3.org/2000/svg" width="923" height="914" fill="none" opt="1"><g filter="url(#a)"><ellipse cx="461.093" cy="457.041" fill="url(#b)" fill-opacity=".3" rx="187.172" ry="182.363" transform="rotate(-13.509 461.093 457.041)"/></g><g filter="url(#c)"><path fill="url(#d)" fill-opacity=".94" fill-rule="evenodd" d="m694.398 480.84-.007-.077-.008-.076-2.596-26.556-.006.001c-3.998-34.978-55.177-58.541-114.813-52.71-59.637 5.832-105.282 38.862-102.429 73.952l-.005.001.047.476.014.152.016.153 2.753 28.158.069-.007c5.413 34.053 55.905 56.775 114.586 51.037s103.815-37.81 102.528-72.267l.069-.007z" clip-rule="evenodd" opacity=".5"/><ellipse cx="583.222" cy="465.383" fill="url(#e)" rx="109.144" ry="64.264" transform="rotate(-5.585 583.222 465.383)"/><ellipse cx="583.222" cy="465.383" fill="url(#f)" fill-opacity=".7" rx="109.144" ry="64.264" transform="rotate(-5.585 583.222 465.383)"/><path fill="#fff" d="m625.211 469.853-.318 1.236c-3.551 13.911-23.361 25.074-47.754 26.829-14.384 1.026-27.86-1.349-38.001-6.023z" opacity=".6"/><path fill="#fff" d="m576.736 466.155 48.474 3.69-86.073 22.042c11.767-8.05 25.244-17.279 37.598-25.739z" opacity=".2"/><path fill="#fff" d="m561.064 439.973-2.092.413c-23.605 4.684-39.365 17.862-37.76 31.705.977 8.147 7.747 15.112 17.889 19.786z"/><path fill="#fff" d="m576.692 466.14-15.642-26.164-21.957 51.896c11.767-8.05 25.245-17.278 37.599-25.739z" opacity=".6"/><path fill="#fff" d="m613.422 441.06-28.313 19.38 41.714 3.174z" opacity=".2"/><path fill="#fff" d="m613.408 441.055-41.756-3.169 13.442 22.549z" opacity=".6"/><path fill="#fff" d="m637.222 424.755-65.577 13.138 41.795 3.138z"/><path fill="#fff" d="m613.455 441.036 13.384 22.589 10.417-38.881z" opacity=".6"/></g><g filter="url(#g)" opacity=".8"><path fill="url(#h)" fill-opacity=".94" fill-rule="evenodd" d="m609.427 457.303-.06-.211-.062-.211-10.467-36.163-.069-.239-.07-.239-.187-.646-.007.001c-15.085-49.096-94.785-69.209-178.756-44.903s-140.606 83.88-127.134 133.444l-.007.002 11.794 40.748.098-.028c16.867 47.392 95.356 66.481 177.982 42.565s138.783-81.98 127.727-131.053l.098-.029z" clip-rule="evenodd" opacity=".5"/><ellipse cx="445.816" cy="464.751" fill="url(#i)" rx="159.231" ry="93.756" transform="rotate(-16.143 445.816 464.751)"/><ellipse cx="445.816" cy="464.751" fill="url(#j)" fill-opacity=".7" rx="159.231" ry="93.756" transform="rotate(-16.143 445.816 464.751)"/><g fill="#fff" filter="url(#k)"><path d="m499.347 456.818-.11 1.671c-1.205 18.787-23.937 37.91-54.822 45.993-18.213 4.754-36.081 4.906-50.223 1.297z" opacity=".6"/><path d="m436.242 463.613 63.102-6.804-105.154 48.96c13.161-13.189 28.234-28.306 42.05-42.164z" opacity=".2"/><path d="m409.817 433.585-2.585 1.031c-29.166 11.672-46.216 32.427-40.82 49.897 3.219 10.275 13.587 17.642 27.729 21.252z"/><path d="M436.183 463.603 409.8 433.59l-15.67 72.169c13.162-13.189 28.234-28.306 42.05-42.165z" opacity=".6"/><path d="m477.276 422.498-31.666 31.747 54.302-5.858z" opacity=".2"/><path d="m477.256 422.492-54.354 5.873 22.688 25.875z" opacity=".6"/><path d="m503.891 395.789-80.995 32.588 54.396-5.923z"/><path d="m477.312 422.457 22.623 25.941 3.997-52.63z" opacity=".6"/></g><path fill="#fff" d="m507.232 459.938-.125 1.858c-1.375 20.9-26.801 42.206-61.317 51.244-20.356 5.316-40.318 5.514-56.112 1.52z" opacity=".6"/><path fill="#fff" d="m436.721 467.594 70.509-7.666-117.555 54.622c14.725-14.691 31.587-31.529 47.043-46.966z" opacity=".2"/><path fill="#fff" d="m407.245 434.233-2.889 1.151c-32.603 13.028-51.683 36.141-45.681 55.565 3.58 11.424 15.152 19.603 30.946 23.596z"/><path fill="#fff" d="m436.654 467.582-29.428-33.343-17.618 80.299a136791 136791 0 0 0 47.044-46.966z" opacity=".6"/><path fill="#fff" d="m482.628 421.795-35.427 35.363 60.676-6.6z" opacity=".2"/><path fill="#fff" d="m482.605 421.791-60.733 6.617 25.307 28.746z" opacity=".6"/><path fill="#fff" d="m512.403 392.047-90.538 36.373 60.781-6.672z"/><path fill="#fff" d="m482.668 421.752 25.233 28.82 4.547-58.548z" opacity=".6"/></g><g filter="url(#l)"><path fill="url(#m)" fill-opacity=".94" fill-rule="evenodd" d="m764.176 320.084-.021-.074-.022-.075-4.702-16.246-.004.001c-6.565-21.367-41.252-30.12-77.798-19.542s-61.193 36.506-55.33 58.077l-.003.001.085.295.026.09.027.091 4.995 17.258.043-.013c7.34 20.627 41.5 28.935 77.46 18.526 35.961-10.409 60.402-35.679 55.589-57.037l.043-.013z" clip-rule="evenodd" opacity=".5"/><ellipse cx="692.975" cy="323.343" fill="url(#n)" rx="69.3" ry="40.804" transform="rotate(-16.143 692.975 323.343)"/><ellipse cx="692.975" cy="323.343" fill="url(#o)" fill-opacity=".7" rx="69.3" ry="40.804" transform="rotate(-16.143 692.975 323.343)"/><path fill="#fff" d="m719.704 321.245-.055.809c-.598 9.096-11.664 18.369-26.686 22.302-8.859 2.314-17.547 2.4-24.421.662z" opacity=".6"/><path fill="#fff" d="m689.017 324.578 30.686-3.336-51.162 23.772c6.409-6.394 13.747-13.722 20.474-20.44z" opacity=".2"/><path fill="#fff" d="m676.188 310.059-1.258.501c-14.189 5.67-22.493 15.729-19.881 24.183 1.559 4.972 6.595 8.531 13.469 10.269z"/><path fill="#fff" d="m688.987 324.574-12.807-14.512-7.668 34.948c6.409-6.394 13.747-13.722 20.474-20.44z" opacity=".6"/><path fill="#fff" d="m708.996 304.646-15.419 15.391 26.407-2.872z" opacity=".2"/><path fill="#fff" d="m708.986 304.644-26.432 2.879 11.014 12.511z" opacity=".6"/><path fill="#fff" d="m721.954 291.699-39.403 15.83 26.453-2.904z"/><path fill="#fff" d="m709.013 304.627 10.983 12.543 1.978-25.481z" opacity=".6"/></g><g filter="url(#p)"><path fill="url(#q)" fill-opacity=".94" fill-rule="evenodd" d="m636.251 364.883-.06-.211-.062-.211-10.508-36.305-.029-.097-.028-.098-.228-.787-.007.002c-15.085-49.097-94.785-69.209-178.757-44.904-83.971 24.306-140.605 83.881-127.133 133.445l-.007.002 11.794 40.748.098-.029c16.867 47.392 95.356 66.482 177.982 42.565 82.626-23.916 138.783-81.979 127.728-131.053l.097-.028z" clip-rule="evenodd" opacity=".5"/><ellipse cx="472.64" cy="372.331" fill="url(#r)" rx="159.231" ry="93.756" transform="rotate(-16.143 472.64 372.331)"/><ellipse cx="472.64" cy="372.331" fill="url(#s)" fill-opacity=".7" rx="159.231" ry="93.756" transform="rotate(-16.143 472.64 372.331)"/><g fill="#fff" filter="url(#t)"><path d="m526.171 364.397-.11 1.671c-1.205 18.787-23.937 37.91-54.821 45.993-18.213 4.754-36.081 4.907-50.223 1.297z" opacity=".6"/><path d="m463.067 371.193 63.102-6.804-105.155 48.96c13.162-13.189 28.234-28.306 42.05-42.164z" opacity=".2"/><path d="m436.642 341.165-2.585 1.031c-29.167 11.672-46.216 32.427-40.82 49.897 3.219 10.275 13.587 17.642 27.729 21.252z"/><path d="m463.007 371.182-26.383-30.013-15.67 72.169c13.162-13.189 28.234-28.306 42.05-42.165z" opacity=".6"/><path d="m504.101 330.076-31.667 31.748 54.303-5.859z" opacity=".2"/><path d="m504.081 330.072-54.354 5.873 22.687 25.875z" opacity=".6"/><path d="m530.715 303.369-80.995 32.589 54.397-5.924z"/><path d="m504.137 330.038 22.622 25.94 3.997-52.63z" opacity=".6"/></g><path fill="#fff" d="m534.057 367.517-.126 1.858c-1.375 20.9-26.801 42.206-61.317 51.244-20.355 5.316-40.318 5.514-56.112 1.52z" opacity=".6"/><path fill="#fff" d="m463.546 375.173 70.508-7.666L416.5 422.129c14.724-14.69 31.586-31.529 47.043-46.965z" opacity=".2"/><path fill="#fff" d="m434.07 341.812-2.89 1.151c-32.603 13.028-51.682 36.142-45.681 55.566 3.581 11.423 15.152 19.602 30.946 23.595z"/><path fill="#fff" d="m463.479 375.161-29.429-33.343-17.617 80.299c14.724-14.691 31.587-31.529 47.043-46.966z" opacity=".6"/><path fill="#fff" d="m509.452 329.374-35.426 35.363 60.675-6.6z" opacity=".2"/><path fill="#fff" d="m509.43 329.371-60.734 6.616 25.307 28.746z" opacity=".6"/><path fill="#fff" d="m539.227 299.626-90.538 36.373 60.781-6.672z"/><path fill="#fff" d="m509.492 329.331 25.234 28.82 4.547-58.548z" opacity=".6"/></g><defs><radialGradient id="d" cx="0" cy="0" r="1" gradientTransform="matrix(138.19702 -167.21306 236.01222 195.05764 479.024 521.299)" gradientUnits="userSpaceOnUse"><stop stop-color="#0047FF"/><stop offset="1" stop-color="#00F0FF" stop-opacity="0"/></radialGradient><radialGradient id="e" cx="0" cy="0" r="1" gradientTransform="rotate(93.004 74.5 509.1)scale(68.3618 116.103)" gradientUnits="userSpaceOnUse"><stop stop-color="#00A3FF"/><stop offset="1" stop-color="#00A3FF" stop-opacity="0"/></radialGradient><radialGradient id="f" cx="0" cy="0" r="1" gradientTransform="rotate(37.265 -403.414 918.967)scale(152.764 259.448)" gradientUnits="userSpaceOnUse"><stop stop-color="#0075FF"/><stop offset="1" stop-color="#4200FF" stop-opacity="0"/></radialGradient><radialGradient id="h" cx="0" cy="0" r="1" gradientTransform="matrix(153.50114 -276.76047 390.63156 216.65808 311.325 572.802)" gradientUnits="userSpaceOnUse"><stop stop-color="#0047FF"/><stop offset="1" stop-color="#00F0FF" stop-opacity="0"/></radialGradient><radialGradient id="i" cx="0" cy="0" r="1" gradientTransform="rotate(93.004 7.79 443.454)scale(99.7331 169.383)" gradientUnits="userSpaceOnUse"><stop stop-color="#00A3FF"/><stop offset="1" stop-color="#00A3FF" stop-opacity="0"/></radialGradient><radialGradient id="j" cx="0" cy="0" r="1" gradientTransform="matrix(177.36726 134.9465 -229.18749 301.23314 286.585 415.875)" gradientUnits="userSpaceOnUse"><stop stop-color="#0075FF"/><stop offset="1" stop-color="#4200FF" stop-opacity="0"/></radialGradient><radialGradient id="m" cx="0" cy="0" r="1" gradientTransform="matrix(66.80629 -120.45082 170.00954 94.2933 634.442 370.369)" gradientUnits="userSpaceOnUse"><stop stop-color="#0047FF"/><stop offset="1" stop-color="#00F0FF" stop-opacity="0"/></radialGradient><radialGradient id="n" cx="0" cy="0" r="1" gradientTransform="rotate(93.004 195.42 490.264)scale(43.4056 73.7183)" gradientUnits="userSpaceOnUse"><stop stop-color="#00A3FF"/><stop offset="1" stop-color="#00A3FF" stop-opacity="0"/></radialGradient><radialGradient id="o" cx="0" cy="0" r="1" gradientTransform="rotate(37.265 -136.115 1075.906)scale(96.9955 164.733)" gradientUnits="userSpaceOnUse"><stop stop-color="#0075FF"/><stop offset="1" stop-color="#4200FF" stop-opacity="0"/></radialGradient><radialGradient id="q" cx="0" cy="0" r="1" gradientTransform="rotate(-60.986 576.955 -46.922)scale(316.479 446.693)" gradientUnits="userSpaceOnUse"><stop stop-color="#0047FF"/><stop offset="1" stop-color="#00F0FF" stop-opacity="0"/></radialGradient><radialGradient id="r" cx="0" cy="0" r="1" gradientTransform="rotate(93.004 65.05 409.97)scale(99.7331 169.383)" gradientUnits="userSpaceOnUse"><stop stop-color="#00A3FF"/><stop offset="1" stop-color="#00A3FF" stop-opacity="0"/></radialGradient><radialGradient id="s" cx="0" cy="0" r="1" gradientTransform="matrix(177.36726 134.9465 -229.18749 301.23314 313.409 323.455)" gradientUnits="userSpaceOnUse"><stop stop-color="#0075FF"/><stop offset="1" stop-color="#4200FF" stop-opacity="0"/></radialGradient><filter id="a" width="921.91" height="913.343" x=".138" y=".369" color-interpolation-filters="sRGB" filterUnits="userSpaceOnUse"><feFlood flood-opacity="0" result="BackgroundImageFix"/><feBlend in="SourceGraphic" in2="BackgroundImageFix" result="shape"/><feGaussianBlur result="effect1_foregroundBlur_10008_121106" stdDeviation="137"/></filter><filter id="c" width="288.204" height="223.694" x="440.412" y="366.536" color-interpolation-filters="sRGB" filterUnits="userSpaceOnUse"><feFlood flood-opacity="0" result="BackgroundImageFix"/><feBlend in="SourceGraphic" in2="BackgroundImageFix" result="shape"/><feGaussianBlur result="effect1_foregroundBlur_10008_121106" stdDeviation="17"/></filter><filter id="g" width="468.963" height="385.363" x="216.634" y="290.376" color-interpolation-filters="sRGB" filterUnits="userSpaceOnUse"><feFlood flood-opacity="0" result="BackgroundImageFix"/><feBlend in="SourceGraphic" in2="BackgroundImageFix" result="shape"/><feGaussianBlur result="effect1_foregroundBlur_10008_121106" stdDeviation="37"/></filter><filter id="k" width="286.511" height="260.522" x="291.421" y="321.768" color-interpolation-filters="sRGB" filterUnits="userSpaceOnUse"><feFlood flood-opacity="0" result="BackgroundImageFix"/><feBlend in="SourceGraphic" in2="BackgroundImageFix" result="shape"/><feGaussianBlur result="effect1_foregroundBlur_10008_121106" stdDeviation="37"/></filter><filter id="l" width="327.689" height="291.305" x="531.437" y="185.658" color-interpolation-filters="sRGB" filterUnits="userSpaceOnUse"><feFlood flood-opacity="0" result="BackgroundImageFix"/><feBlend in="SourceGraphic" in2="BackgroundImageFix" result="shape"/><feGaussianBlur result="effect1_foregroundBlur_10008_121106" stdDeviation="47"/></filter><filter id="p" width="468.964" height="385.363" x="243.458" y="197.956" color-interpolation-filters="sRGB" filterUnits="userSpaceOnUse"><feFlood flood-opacity="0" result="BackgroundImageFix"/><feGaussianBlur in="BackgroundImageFix" stdDeviation="37"/><feComposite in2="SourceAlpha" operator="in" result="effect1_backgroundBlur_10008_121106"/><feBlend in="SourceGraphic" in2="effect1_backgroundBlur_10008_121106" result="shape"/></filter><filter id="t" width="286.511" height="260.521" x="318.245" y="229.348" color-interpolation-filters="sRGB" filterUnits="userSpaceOnUse"><feFlood flood-opacity="0" result="BackgroundImageFix"/><feBlend in="SourceGraphic" in2="BackgroundImageFix" result="shape"/><feGaussianBlur result="effect1_foregroundBlur_10008_121106" stdDeviation="37"/></filter><linearGradient id="b" x1="461.093" x2="461.093" y1="274.678" y2="639.403" gradientUnits="userSpaceOnUse"><stop stop-color="#0085FF"/><stop offset="1" stop-color="#777DFF"/></linearGradient></defs></svg>