<svg xmlns="http://www.w3.org/2000/svg" width="849" height="534" fill="none" opt="1"><g filter="url(#a)"><path fill="url(#b)" d="M378.114 111.64c.286-.01.571-.032.857-.032a43 43 0 0 1 1.628-.031h.794c.676 0 1.343.021 2.009.053.116 0 .233 0 .349.01.782.042 1.554.106 2.326.18.223.021.445.053.656.074a41 41 0 0 1 2.443.338c.508.085 1.015.17 1.523.275.254.053.508.096.761.148a50 50 0 0 1 1.714.392c.169.042.338.074.497.116.74.19 1.47.402 2.189.624.19.053.37.127.56.18.54.18 1.079.359 1.608.55.243.084.486.179.719.264.487.19.984.381 1.46.582.222.095.444.18.666.285a36 36 0 0 1 1.808.836c.074.042.159.074.233.106.571.285 1.142.571 1.703.877l.063.032-32.298-17.566a35 35 0 0 0-1.766-.91c-.011 0-.021-.01-.032-.02-.063-.032-.137-.064-.201-.096-.603-.285-1.205-.571-1.808-.835l-.666-.286c-.487-.2-.973-.402-1.46-.582-.243-.095-.476-.18-.719-.264-.529-.19-1.068-.37-1.607-.55-.191-.063-.371-.127-.561-.18a48 48 0 0 0-2.189-.624c-.032 0-.064-.02-.095-.02l-.413-.096a44 44 0 0 0-1.702-.391c-.254-.053-.508-.106-.762-.148-.508-.096-1.005-.19-1.512-.275-.265-.043-.529-.085-.804-.127a76 76 0 0 0-1.639-.212c-.222-.02-.444-.053-.666-.074a57 57 0 0 0-2.316-.18c-.117 0-.244 0-.36-.01a42 42 0 0 0-1.999-.053h-.793c-.539 0-1.089.01-1.629.032-.285 0-.571.02-.856.032-.561.031-1.121.063-1.682.116q-.38.03-.761.063a50 50 0 0 0-2.454.286l-187.453 26.344c-.909.127-1.819.285-2.718.454l-.782.159c-.688.138-1.364.286-2.041.455-.244.063-.487.116-.73.18q-1.332.333-2.633.729a4 4 0 0 0-.349.117c-.762.232-1.513.486-2.264.75-.253.096-.518.191-.772.286-.666.243-1.322.508-1.977.772-.212.085-.423.169-.624.254-.783.328-1.555.666-2.316 1.026-.053.021-.106.053-.159.074-.296.137-.582.296-.878.433-.581.286-1.163.571-1.734.878-.338.18-.677.37-1.015.55-.519.286-1.037.571-1.555.878-.349.201-.698.423-1.047.634a58 58 0 0 0-2.506 1.608c-.233.159-.466.296-.688.455-.306.211-.603.433-.899.645-.201.148-.412.296-.613.444-.74.539-1.481 1.1-2.2 1.671-.095.074-.19.158-.285.232a65 65 0 0 0-1.872 1.555c-.212.18-.413.36-.624.539s-.423.36-.624.54c-.159.137-.307.296-.465.444a64 64 0 0 0-2.137 2.041c-.222.222-.455.444-.677.666a83 83 0 0 0-2.612 2.792l-.127.127c-.127.148-.253.307-.38.455a73 73 0 0 0-1.989 2.39c-.243.307-.486.603-.719.91a60 60 0 0 0-1.84 2.485c-.116.169-.254.328-.37.497-.032.053-.064.106-.106.159a70 70 0 0 0-2.21 3.363c-.18.285-.339.56-.508.846a77 77 0 0 0-1.65 2.855c-.105.19-.222.37-.317.561-.074.148-.148.285-.222.433l-.508.984c-.285.56-.571 1.131-.846 1.692-.169.349-.327.698-.497 1.047-.264.571-.518 1.153-.772 1.734-.148.339-.296.677-.433 1.026-.265.645-.519 1.301-.772 1.946-.106.285-.222.56-.328.846-.021.063-.053.137-.074.201-.17.465-.328.941-.487 1.417-.158.465-.328.941-.486 1.407-.18.539-.328 1.099-.497 1.639-.138.476-.286.941-.423 1.417-.159.56-.286 1.121-.434 1.692-.116.476-.243.941-.36 1.417-.137.582-.243 1.164-.37 1.745-.095.466-.2.931-.285 1.396-.116.603-.201 1.206-.296 1.809-.074.454-.159.909-.222 1.364-.085.634-.148 1.269-.222 1.903a50 50 0 0 0-.148 1.312c-.064.719-.106 1.438-.159 2.157-.021.36-.063.719-.074 1.079a67 67 0 0 0-.085 3.257l-.042 24.842-.212 114.323L94 415.034c0 1.628.75 2.781 1.808 3.352l32.298 17.577c-1.057-.571-1.819-1.724-1.808-3.353l.159-83.124.211-114.323.042-24.842c0-1.089.032-2.178.085-3.257.021-.36.053-.719.074-1.079.042-.719.085-1.438.159-2.157.042-.434.105-.867.148-1.312.074-.634.137-1.269.222-1.903.063-.455.148-.91.222-1.364.095-.603.19-1.217.296-1.819.085-.466.19-.931.286-1.396.116-.582.232-1.174.37-1.756.105-.476.232-.941.359-1.417.138-.561.275-1.132.434-1.692.127-.476.285-.941.423-1.417.169-.55.317-1.1.497-1.65.148-.476.317-.941.486-1.407.191-.539.371-1.089.572-1.628.105-.286.222-.561.327-.836.254-.655.508-1.301.772-1.956.138-.339.296-.677.434-1.026.254-.582.508-1.163.772-1.735.159-.349.328-.698.497-1.047.275-.571.561-1.131.846-1.702l.508-.984c.18-.338.359-.655.55-.994a76 76 0 0 1 1.649-2.855c.17-.286.339-.571.519-.846a80 80 0 0 1 2.21-3.363c.159-.222.317-.434.476-.656a90 90 0 0 1 1.84-2.475c.243-.306.476-.613.719-.909a72 72 0 0 1 1.988-2.39c.17-.191.328-.392.497-.582a72 72 0 0 1 2.613-2.792c.222-.233.454-.444.676-.666a77 77 0 0 1 2.137-2.041c.359-.328.719-.667 1.089-.984.212-.18.412-.359.624-.539a65 65 0 0 1 1.872-1.555c.095-.074.19-.158.285-.232a66 66 0 0 1 2.2-1.671c.201-.148.413-.297.614-.445.528-.37 1.057-.74 1.586-1.099.349-.233.687-.466 1.036-.688.487-.317.973-.613 1.46-.92l1.047-.634a55 55 0 0 1 1.554-.878c.339-.191.667-.37 1.005-.55.571-.307 1.153-.592 1.734-.878.297-.148.582-.296.878-.434.815-.391 1.65-.75 2.475-1.11.211-.085.423-.169.624-.254.656-.264 1.311-.529 1.977-.772.254-.095.519-.19.773-.285.75-.265 1.501-.519 2.263-.751.116-.032.232-.074.349-.117a57 57 0 0 1 2.633-.729c.243-.064.486-.117.73-.18a64 64 0 0 1 2.041-.455c.264-.053.518-.106.782-.158.899-.17 1.809-.328 2.718-.455l187.453-26.344a50 50 0 0 1 2.454-.286l.761-.063c.561-.042 1.132-.085 1.692-.116z"/><path fill="url(#c)" d="m373.201 112.102-187.452 26.344c-32.552 4.579-58.981 36.75-59.044 71.872l-.042 24.842-.212 114.323-.159 83.124c0 2.633 1.978 4.019 4.009 3.733 1.142-.159 2.295-.846 3.119-2.147 10.481-16.508 34.815-42.281 87.292-51.672l152.035-21.363c32.541-4.569 58.969-36.75 59.033-71.872l.222-121.863c.063-35.121-26.259-59.89-58.801-55.31zM296.126 288.8l-76.641 10.776c-6.43.899-11.633-3.987-11.623-10.935.011-6.938 5.246-13.304 11.676-14.214l76.641-10.776c6.441-.91 11.644 3.997 11.633 10.935-.01 6.948-5.245 13.304-11.675 14.214zm65.707-61.339L219.58 247.449c-6.43.899-11.633-3.987-11.623-10.935.011-6.938 5.246-13.304 11.676-14.214l142.253-19.988c6.44-.909 11.643 3.998 11.633 10.935-.011 6.949-5.246 13.304-11.676 14.214z"/><path fill="url(#d)" d="m748.405 439.281-32.298-17.576a3 3 0 0 1-.56-.381 4 4 0 0 1-.508-.539 59 59 0 0 0-5.997-6.674c6.653 1.809 12.374 4.146 17.292 6.769l.55.296a70 70 0 0 1 6.779 4.198c.412.286.814.582 1.216.878a65 65 0 0 1 4.293 3.437l1.164 1.037a59 59 0 0 1 7.001 7.635c.19.243.402.455.634.624.085.074.17.138.254.18.053.042.117.085.18.116"/><path fill="url(#e)" d="M449.679 252.106c.021-.349.053-.708.074-1.057.042-.73.084-1.46.158-2.179.043-.423.096-.846.148-1.269.075-.645.138-1.301.233-1.946.064-.455.148-.909.222-1.364.095-.603.191-1.216.296-1.819.085-.465.191-.931.286-1.407a52 52 0 0 1 .37-1.745c.106-.465.233-.93.349-1.396.148-.571.275-1.142.434-1.702.127-.476.275-.942.423-1.407.169-.55.317-1.1.497-1.65.148-.476.317-.941.486-1.406.191-.54.37-1.09.571-1.629.106-.285.222-.56.328-.835.254-.656.508-1.312.772-1.957.138-.338.296-.677.434-1.026.254-.581.507-1.163.772-1.734.158-.349.328-.698.497-1.047.275-.571.56-1.132.846-1.703l.508-.983c.179-.328.359-.656.539-.994a77 77 0 0 1 1.65-2.856c.169-.285.338-.571.518-.856a79 79 0 0 1 2.21-3.363c.159-.223.317-.434.476-.656.603-.836 1.216-1.671 1.84-2.485.243-.307.476-.614.719-.91a74 74 0 0 1 1.989-2.39c.169-.19.327-.391.497-.582a73 73 0 0 1 2.612-2.792c.222-.232.455-.444.677-.676a79 79 0 0 1 2.136-2.042c.36-.327.719-.666 1.089-.983.212-.18.413-.37.624-.55.614-.529 1.248-1.047 1.872-1.565.095-.074.19-.159.275-.233a67 67 0 0 1 2.2-1.671c.201-.148.412-.296.613-.444.529-.381 1.058-.74 1.587-1.1.349-.233.687-.465 1.036-.687.486-.318.973-.614 1.459-.92l1.047-.635a77 77 0 0 1 1.544-.878c.339-.19.667-.38 1.016-.56.571-.307 1.152-.592 1.734-.878.296-.148.582-.296.888-.434.815-.391 1.64-.75 2.475-1.11.212-.085.423-.169.624-.254.656-.264 1.311-.529 1.978-.772.254-.095.518-.19.772-.285a55 55 0 0 1 2.263-.751c.116-.032.233-.074.349-.117a57 57 0 0 1 2.633-.729c.243-.064.487-.117.73-.18a64 64 0 0 1 2.041-.455c.264-.053.518-.106.783-.158.899-.17 1.808-.328 2.718-.455l187.452-26.344a50 50 0 0 1 3.215-.349c.561-.042 1.121-.085 1.682-.116.285-.011.571-.032.857-.032.55-.021 1.089-.032 1.628-.032h.783c.666 0 1.343.021 1.999.053.116 0 .243 0 .359.011.783.042 1.555.105 2.316.179.222.021.444.053.666.074.55.064 1.1.127 1.64.212l.793.127c.508.084 1.015.169 1.523.275.254.053.507.095.761.148.571.116 1.142.254 1.713.391.17.042.328.074.498.116.74.191 1.47.402 2.189.624.19.053.37.127.55.18.539.18 1.078.36 1.607.55.243.085.476.18.719.265.497.19.984.38 1.47.581.222.095.444.18.667.275.613.265 1.216.55 1.818.836.075.031.149.074.233.105.571.286 1.142.571 1.703.878l.063.032-32.298-17.566a35 35 0 0 0-1.766-.91c-.01 0-.021-.01-.031-.021a1.4 1.4 0 0 0-.191-.084 39 39 0 0 0-1.819-.836c-.222-.095-.444-.19-.666-.275-.487-.201-.973-.402-1.47-.582a21 21 0 0 0-.719-.264c-.529-.19-1.068-.37-1.608-.55-.19-.063-.37-.127-.56-.18a49 49 0 0 0-2.189-.624c-.032 0-.064-.021-.085-.021l-.412-.095a45 45 0 0 0-1.703-.391 16 16 0 0 0-.772-.148c-.508-.096-1.005-.191-1.513-.275a81 81 0 0 0-.803-.127c-.54-.085-1.09-.148-1.639-.212-.223-.021-.445-.053-.667-.074a58 58 0 0 0-2.316-.18c-.116 0-.243 0-.359-.01a42 42 0 0 0-1.999-.053h-.793c-.54 0-1.09.011-1.629.032-.285 0-.571.021-.857.042-.56.032-1.121.063-1.681.116l-.772.064c-.814.074-1.629.169-2.454.285l-187.453 26.344c-.909.127-1.819.286-2.717.455l-.783.159c-.687.137-1.364.285-2.041.454-.243.064-.487.117-.73.18q-1.332.333-2.633.73a5 5 0 0 0-.349.116 58 58 0 0 0-2.263.751c-.254.095-.519.19-.772.286a61 61 0 0 0-1.978.772c-.212.084-.423.169-.624.253-.783.328-1.555.667-2.316 1.026-.053.021-.106.053-.159.074-.296.138-.581.296-.877.434-.582.285-1.164.571-1.735.878-.338.179-.677.37-1.005.55-.518.285-1.036.581-1.554.877-.349.201-.698.423-1.047.635a55 55 0 0 0-2.507 1.607c-.232.159-.465.297-.687.455-.307.212-.592.423-.899.645-.211.148-.412.296-.624.444-.74.54-1.48 1.1-2.2 1.671-.095.074-.19.148-.275.233a66 66 0 0 0-1.882 1.565c-.212.18-.412.36-.624.54-.212.179-.423.359-.624.55-.159.148-.307.296-.465.444a64 64 0 0 0-2.137 2.041c-.222.222-.454.444-.687.677a81 81 0 0 0-2.612 2.792c-.042.042-.085.084-.116.127-.127.148-.254.306-.381.454a90 90 0 0 0-1.999 2.39c-.243.307-.486.603-.719.91a72 72 0 0 0-1.851 2.485c-.116.169-.243.328-.37.497-.032.053-.063.106-.106.159a71 71 0 0 0-2.21 3.363c-.18.285-.339.571-.518.857a77 77 0 0 0-1.65 2.855c-.106.19-.222.37-.317.56-.074.138-.148.286-.222.434l-.508.984c-.286.56-.571 1.131-.846 1.692-.169.349-.328.698-.497 1.047-.265.571-.518 1.152-.772 1.734-.148.338-.296.677-.444 1.026a72 72 0 0 0-.772 1.946c-.106.285-.222.56-.328.835-.021.064-.053.138-.074.201-.169.466-.328.952-.487 1.417s-.328.931-.486 1.407c-.18.55-.339 1.1-.497 1.65-.138.465-.286.941-.423 1.406-.159.561-.296 1.132-.434 1.703-.116.465-.243.931-.349 1.396-.137.582-.243 1.163-.37 1.745-.095.465-.201.931-.286 1.406-.116.603-.201 1.206-.296 1.809-.074.455-.158.909-.222 1.364-.084.645-.158 1.29-.232 1.935-.053.424-.106.847-.149 1.27-.063.719-.105 1.448-.158 2.178-.021.349-.053.709-.074 1.058a66 66 0 0 0-.085 3.257L417 359.597c-.032 16.255 5.595 30.299 14.88 40.23a49 49 0 0 0 12.458 9.666l32.298 17.576c-16.466-8.957-27.37-27.285-27.327-49.906l.222-121.863c0-1.089.031-2.178.084-3.257z"/><path fill="url(#f)" fill-opacity=".7" d="m727.554 162.551-.275-.148a1 1 0 0 0-.148-.074l-.106-.064s-.031-.021-.053-.031a65 65 0 0 0-1.173-.593 4 4 0 0 0-.233-.105 58 58 0 0 0-1.819-.846c-.222-.096-.444-.18-.666-.275-.487-.201-.973-.402-1.47-.582-.233-.095-.476-.18-.72-.275-.528-.19-1.068-.37-1.607-.55-.19-.053-.37-.116-.561-.18-.243-.074-.497-.148-.75-.222-.297-.084-.582-.18-.889-.254-.18-.052-.359-.105-.55-.148-.169-.042-.327-.074-.497-.116a45 45 0 0 0-1.713-.402c-.254-.053-.508-.095-.761-.148-.508-.095-1.016-.19-1.523-.275-.265-.042-.529-.084-.794-.116a44 44 0 0 0-1.639-.212c-.169-.021-.349-.053-.518-.063l-.656-.064a35 35 0 0 0-1.819-.137h-.031c-.254-.011-.519-.032-.772-.032h-.096a34 34 0 0 0-1.459-.032h-.793c-.539 0-1.079.011-1.629.032l-.856.032c-.117.01-.233.01-.349.021l-1.333.095-.772.064c-.814.084-1.629.169-2.443.285L508.628 183.48c-.92.127-1.819.286-2.728.465-.254.043-.519.096-.783.148l-1.015.223c-.349.074-.688.158-1.015.232-.244.064-.497.117-.741.18q-1.316.333-2.633.73c-.116.042-.233.074-.349.116a58 58 0 0 0-2.263.751c-.265.095-.518.19-.783.285-.656.244-1.322.498-1.977.772-.212.085-.413.17-.624.254q-1.254.523-2.475 1.111c-.296.137-.592.285-.888.433-.582.286-1.164.571-1.735.878-.338.18-.666.37-1.005.55-.518.286-1.036.582-1.554.878l-1.047.634q-.73.444-1.46.92c-.349.223-.698.455-1.036.688-.539.359-1.068.719-1.597 1.1-.201.148-.402.296-.613.444-.741.539-1.481 1.1-2.2 1.671-.095.074-.19.158-.286.233a44 44 0 0 0-1.533 1.269c-.116.095-.233.19-.338.285-.212.18-.424.37-.624.55-.371.328-.73.656-1.09.984a65 65 0 0 0-2.136 2.041c-.233.222-.465.444-.687.677-.445.444-.889.909-1.312 1.374-.381.402-.761.815-1.121 1.227-.232.254-.455.508-.677.772a71 71 0 0 0-1.988 2.38c-.243.306-.486.613-.719.92a83 83 0 0 0-1.851 2.474c-.148.223-.317.434-.465.656q-.492.698-.952 1.396a63 63 0 0 0-1.258 1.967c-.18.286-.349.571-.519.857-.285.465-.56.93-.835 1.406s-.55.963-.814 1.439c-.18.338-.371.655-.54.994-.18.328-.338.655-.507.983a61 61 0 0 0-.846 1.703c-.17.349-.328.698-.497 1.047-.265.571-.519 1.153-.773 1.734l-.444 1.016c-.264.655-.518 1.3-.772 1.956-.105.286-.222.561-.328.836-.105.275-.19.539-.285.814-.169.465-.339.931-.487 1.396-.095.275-.19.55-.275.825-.179.55-.338 1.1-.497 1.65-.148.475-.296.941-.423 1.417a45 45 0 0 0-.433 1.702c-.117.466-.243.931-.36 1.396-.127.582-.243 1.164-.359 1.745-.096.476-.201.942-.286 1.407-.063.296-.106.603-.159.909a42 42 0 0 0-.253 1.587c-.032.232-.074.465-.106.687-.053.349-.095.709-.138 1.058a37 37 0 0 0-.169 1.512c-.021.201-.053.391-.063.592l-.064.73a69 69 0 0 0-.105 1.502c-.011.116-.011.232-.022.349-.031.37-.052.729-.063 1.1a65 65 0 0 0-.064 2.866l-.232 121.862c0 1.555.042 3.089.148 4.601.032.592.084 1.174.137 1.755.053.603.117 1.206.191 1.798a61 61 0 0 0 1.364 7.509c.095.402.201.804.307 1.195a53 53 0 0 0 1.861 5.753q.19.54.412 1.079c.17.412.339.825.519 1.237q.174.428.38.857c.371.835.762 1.66 1.174 2.464l.444.825a51.6 51.6 0 0 0 4.368 6.874c.212.286.434.582.666.867 0 .021.022.043.043.064.222.285.454.571.687.856a50 50 0 0 0 4.981 5.267c.275.264.561.508.846.751.127.127.265.243.402.349.254.232.529.455.793.666a47 47 0 0 0 1.957 1.534c.275.2.56.412.846.602a.25.25 0 0 0 .095.064c.264.19.539.37.804.55.486.338.973.655 1.47.952.613.38 1.227.75 1.861 1.099 9.222 5.193 20.221 7.403 32.055 5.743l152.035-21.363c20.178-2.062 36.19-.529 48.838 2.919 6.652 1.809 12.374 4.146 17.291 6.768l.55.297a70 70 0 0 1 6.779 4.198c.413.286.815.582 1.216.878a65 65 0 0 1 4.294 3.437l1.163 1.036a59.3 59.3 0 0 1 7.002 7.636c.19.243.401.455.634.624.085.074.169.127.254.18.677.433 1.459.571 2.231.465 2.031-.285 4.019-2.242 4.019-4.875l.159-83.125.211-114.322.043-24.842c.052-22.622-10.862-40.949-27.328-49.896M538.303 327.044c-11.347 1.597-20.527-7.033-20.506-19.279.021-12.247 9.243-23.468 20.58-25.064 11.348-1.597 20.517 7.043 20.496 19.289s-9.233 23.457-20.58 25.054zm67.145-9.433c-11.348 1.597-20.527-7.033-20.506-19.28s9.243-23.467 20.58-25.064c11.348-1.597 20.517 7.043 20.496 19.29s-9.233 23.457-20.581 25.054zm67.145-9.434c-11.348 1.597-20.517-7.033-20.496-19.279.021-12.247 9.233-23.467 20.58-25.064 11.348-1.597 20.527 7.043 20.506 19.29s-9.243 23.456-20.58 25.053z"/></g><path fill="url(#g)" d="M422.114 74.64c.286-.01.571-.032.857-.032.55-.02 1.089-.031 1.628-.031h.794q1.012.002 2.009.053c.116 0 .233 0 .349.01a56 56 0 0 1 2.326.18c.223.021.445.053.656.074.55.063 1.1.127 1.639.212.265.042.529.084.804.126.508.085 1.015.17 1.523.275.254.053.508.096.761.148.572.117 1.143.254 1.714.392.169.042.338.074.497.116.74.19 1.47.402 2.189.624.19.053.37.127.56.18.54.18 1.079.36 1.608.55.243.084.486.18.719.264.487.19.984.38 1.46.582.222.095.444.18.666.285.613.265 1.216.54 1.808.836.074.042.159.074.233.106.571.285 1.142.57 1.703.877l.063.032-32.298-17.566a35 35 0 0 0-1.766-.91c-.011 0-.021-.01-.032-.02-.063-.032-.137-.064-.201-.096-.603-.285-1.205-.571-1.808-.835l-.666-.286c-.487-.2-.973-.402-1.46-.582-.243-.095-.476-.18-.719-.264-.529-.19-1.068-.37-1.607-.55-.191-.063-.371-.127-.561-.18a48 48 0 0 0-2.189-.624c-.032 0-.064-.02-.095-.02l-.413-.096a44 44 0 0 0-1.702-.391 19 19 0 0 0-.762-.148c-.508-.095-1.005-.19-1.512-.275-.265-.043-.529-.085-.804-.127a76 76 0 0 0-1.639-.212c-.222-.02-.444-.053-.666-.074a57 57 0 0 0-2.316-.18c-.117 0-.244 0-.36-.01a42 42 0 0 0-1.999-.053h-.793c-.539 0-1.089.01-1.629.032-.285 0-.571.02-.856.032-.561.031-1.121.063-1.682.116q-.38.03-.761.063a50 50 0 0 0-2.454.286L197.477 83.873c-.909.126-1.819.285-2.718.454l-.782.159c-.688.138-1.364.286-2.041.455-.244.063-.487.116-.73.18a54 54 0 0 0-2.633.73c-.117.031-.233.073-.349.116-.762.232-1.513.486-2.264.75-.253.096-.518.19-.772.286-.666.243-1.322.508-1.977.772a56.31 56.31 0 0 0-2.94 1.28c-.053.02-.106.053-.159.074-.296.137-.582.296-.878.433-.581.286-1.163.571-1.734.878-.338.18-.677.37-1.015.55a56 56 0 0 0-1.555.878c-.349.2-.698.423-1.047.634a58 58 0 0 0-2.506 1.608c-.233.159-.466.296-.688.455-.306.211-.603.433-.899.645-.201.148-.412.296-.613.444-.74.54-1.481 1.1-2.2 1.67-.095.075-.19.16-.285.234a65 65 0 0 0-1.872 1.554c-.212.18-.413.36-.624.54s-.423.359-.624.539c-.159.137-.307.296-.465.444a64 64 0 0 0-2.137 2.041c-.222.222-.455.444-.677.666a83 83 0 0 0-2.612 2.792l-.127.127c-.127.148-.253.307-.38.455a73 73 0 0 0-1.989 2.39c-.243.307-.486.603-.719.91a60 60 0 0 0-1.84 2.485c-.116.169-.254.328-.37.497-.032.053-.064.106-.106.159a70 70 0 0 0-2.21 3.363c-.18.285-.339.56-.508.846a77 77 0 0 0-1.65 2.855c-.105.19-.222.37-.317.561-.074.148-.148.285-.222.433l-.508.984c-.285.56-.571 1.131-.846 1.692-.169.349-.327.698-.497 1.047-.264.571-.518 1.153-.772 1.734-.148.339-.296.677-.433 1.026-.265.645-.518 1.301-.772 1.946-.106.285-.222.56-.328.846-.021.063-.053.137-.074.201-.169.465-.328.941-.487 1.417-.158.465-.327.941-.486 1.407-.18.539-.328 1.099-.497 1.639-.138.476-.286.941-.423 1.417-.159.56-.286 1.121-.434 1.692-.116.476-.243.941-.359 1.417-.138.582-.244 1.164-.371 1.745-.095.466-.2.931-.285 1.396-.116.603-.201 1.206-.296 1.809-.074.454-.159.909-.222 1.364-.085.634-.148 1.269-.222 1.903-.053.434-.106.868-.148 1.312-.064.719-.106 1.438-.159 2.157-.021.36-.063.719-.074 1.079a67 67 0 0 0-.085 3.257l-.042 24.842-.211 114.323-.212 83.167c0 1.628.751 2.781 1.808 3.352l32.298 17.577c-1.057-.571-1.819-1.724-1.808-3.353l.159-83.124.211-114.323.042-24.842c0-1.089.032-2.178.085-3.257.021-.36.053-.719.074-1.079.042-.719.085-1.438.159-2.157.042-.434.105-.867.148-1.312.074-.634.137-1.269.222-1.903.063-.455.148-.91.222-1.364.095-.603.19-1.217.296-1.819.085-.466.19-.931.286-1.396.116-.582.232-1.174.37-1.756.105-.476.232-.941.359-1.417.138-.561.275-1.132.434-1.692.127-.476.285-.941.423-1.417.169-.55.317-1.1.497-1.65.148-.476.317-.941.486-1.407.191-.539.371-1.089.572-1.628.105-.286.222-.561.327-.836.254-.655.508-1.301.772-1.956.138-.339.296-.677.434-1.026.254-.582.508-1.163.772-1.735.159-.349.328-.698.497-1.047.275-.571.561-1.131.846-1.702l.508-.984c.18-.338.359-.655.55-.994a76 76 0 0 1 1.649-2.855c.17-.286.339-.571.519-.846a80 80 0 0 1 2.21-3.363c.159-.222.317-.434.476-.656a90 90 0 0 1 1.84-2.475c.243-.306.476-.613.719-.909a72 72 0 0 1 1.988-2.39c.17-.191.328-.392.497-.582a72 72 0 0 1 2.613-2.792c.222-.233.454-.444.676-.666a77 77 0 0 1 2.137-2.041c.359-.328.719-.667 1.089-.984.212-.18.412-.359.624-.539a65 65 0 0 1 1.872-1.555c.095-.074.19-.158.285-.232a66 66 0 0 1 2.2-1.671c.201-.148.413-.297.614-.445.528-.37 1.057-.74 1.586-1.099.349-.233.687-.466 1.036-.688.487-.317.973-.613 1.46-.92l1.047-.634a55 55 0 0 1 1.554-.878c.339-.191.667-.37 1.005-.55.571-.307 1.153-.592 1.734-.878.297-.148.582-.296.878-.434.815-.391 1.65-.75 2.475-1.11.211-.085.423-.169.624-.254.656-.264 1.311-.529 1.977-.772.254-.095.519-.19.773-.285.75-.265 1.501-.519 2.263-.751.116-.032.232-.074.349-.117a57 57 0 0 1 2.633-.729c.243-.064.486-.117.73-.18a64 64 0 0 1 2.041-.455c.264-.053.518-.106.782-.158.899-.17 1.809-.328 2.718-.455l187.453-26.344a50 50 0 0 1 2.454-.286q.38-.03.761-.063a91 91 0 0 1 1.692-.116z"/><path fill="url(#h)" d="m417.201 75.102-187.452 26.344c-32.552 4.579-58.981 36.75-59.044 71.872l-.042 24.842-.212 114.323-.159 83.124c0 2.633 1.978 4.019 4.009 3.733 1.142-.159 2.295-.846 3.119-2.147 10.481-16.508 34.815-42.281 87.292-51.672l152.035-21.363c32.541-4.569 58.969-36.75 59.033-71.872l.222-121.863c.063-35.121-26.259-59.89-58.801-55.31zM340.126 251.8l-76.641 10.776c-6.43.899-11.633-3.987-11.623-10.935.011-6.938 5.246-13.304 11.676-14.214l76.641-10.776c6.441-.91 11.644 3.997 11.633 10.935-.01 6.948-5.245 13.304-11.675 14.214zm65.707-61.339L263.58 210.449c-6.43.899-11.633-3.987-11.623-10.935.011-6.938 5.246-13.304 11.676-14.214l142.253-19.988c6.44-.909 11.643 3.998 11.633 10.935-.011 6.949-5.246 13.304-11.676 14.214z"/><path fill="url(#i)" d="m741.405 424.281-32.298-17.576a3 3 0 0 1-.56-.381 4 4 0 0 1-.508-.539 59 59 0 0 0-5.997-6.674c6.653 1.809 12.374 4.146 17.292 6.769l.55.296a70 70 0 0 1 6.779 4.198c.412.286.814.582 1.216.878a65 65 0 0 1 4.293 3.437l1.164 1.037a59 59 0 0 1 7.001 7.635c.19.243.402.455.634.624.085.074.17.138.254.18.053.042.117.085.18.116"/><path fill="url(#j)" d="M442.679 237.106c.021-.349.053-.708.074-1.057.042-.73.084-1.46.158-2.179.043-.423.096-.846.148-1.269.075-.645.138-1.301.233-1.946.064-.455.148-.909.222-1.364.095-.603.191-1.216.296-1.819.085-.465.191-.931.286-1.407a52 52 0 0 1 .37-1.745c.106-.465.233-.93.349-1.396.148-.571.275-1.142.434-1.702.127-.476.275-.942.423-1.407.169-.55.317-1.1.497-1.65.148-.476.317-.941.486-1.406.191-.54.37-1.09.571-1.629.106-.285.222-.56.328-.835.254-.656.508-1.312.772-1.957.138-.338.296-.677.434-1.026.254-.581.507-1.163.772-1.734.158-.349.328-.698.497-1.047.275-.571.56-1.132.846-1.703l.508-.983c.179-.328.359-.656.539-.994a77 77 0 0 1 1.65-2.856c.169-.285.338-.571.518-.856a79 79 0 0 1 2.21-3.363c.159-.223.317-.434.476-.656.603-.836 1.216-1.671 1.84-2.485.243-.307.476-.614.719-.91a74 74 0 0 1 1.989-2.39c.169-.19.327-.391.497-.582a73 73 0 0 1 2.612-2.792c.222-.232.455-.444.677-.676a79 79 0 0 1 2.136-2.042c.36-.327.719-.666 1.089-.983.212-.18.413-.37.624-.55.614-.529 1.248-1.047 1.872-1.565.095-.074.19-.159.275-.233a67 67 0 0 1 2.2-1.671c.201-.148.412-.296.613-.444.529-.381 1.058-.74 1.587-1.1.349-.233.687-.465 1.036-.687.486-.318.973-.614 1.459-.92l1.047-.635a77 77 0 0 1 1.544-.878c.339-.19.667-.38 1.016-.56.571-.307 1.152-.592 1.734-.878.296-.148.582-.296.888-.434.815-.391 1.64-.75 2.475-1.11.212-.085.423-.169.624-.254.656-.264 1.311-.529 1.978-.772.254-.095.518-.19.772-.285a55 55 0 0 1 2.263-.751c.116-.032.233-.074.349-.117a57 57 0 0 1 2.633-.729c.243-.064.487-.117.73-.18a64 64 0 0 1 2.041-.455c.264-.053.518-.106.783-.158.899-.17 1.808-.328 2.718-.455l187.452-26.344a50 50 0 0 1 3.215-.349c.561-.042 1.121-.085 1.682-.116.285-.011.571-.032.857-.032.55-.021 1.089-.032 1.628-.032h.783c.666 0 1.343.021 1.999.053.116 0 .243 0 .359.011.783.042 1.555.105 2.316.179.222.021.444.053.666.074.55.064 1.1.127 1.64.212l.793.127c.508.084 1.015.169 1.523.275.254.053.507.095.761.148.571.116 1.142.254 1.713.391.17.042.328.074.498.116.74.191 1.47.402 2.189.624.19.053.37.127.55.18.539.18 1.078.36 1.607.55.243.085.476.18.719.265.497.19.984.38 1.47.581.222.095.444.18.667.275.613.265 1.216.55 1.818.836.075.031.149.074.233.105.571.286 1.142.571 1.703.878l.063.032-32.298-17.566a35 35 0 0 0-1.766-.91c-.01 0-.021-.01-.031-.021a1.4 1.4 0 0 0-.191-.084 39 39 0 0 0-1.819-.836c-.222-.095-.444-.19-.666-.275-.487-.201-.973-.402-1.47-.582a21 21 0 0 0-.719-.264c-.529-.19-1.068-.37-1.608-.55-.19-.063-.37-.127-.56-.18a49 49 0 0 0-2.189-.624c-.032 0-.064-.021-.085-.021l-.412-.095a45 45 0 0 0-1.703-.391 16 16 0 0 0-.772-.148c-.508-.096-1.005-.191-1.513-.275a81 81 0 0 0-.803-.127c-.54-.085-1.09-.148-1.639-.212-.223-.021-.445-.053-.667-.074a58 58 0 0 0-2.316-.18c-.116 0-.243 0-.359-.01a42 42 0 0 0-1.999-.053h-.793c-.54 0-1.09.011-1.629.032-.285 0-.571.021-.857.042-.56.032-1.121.063-1.681.116l-.772.064c-.814.074-1.629.169-2.454.285l-187.453 26.344c-.909.127-1.819.286-2.717.455l-.783.159c-.687.137-1.364.285-2.041.454-.243.064-.487.117-.73.18q-1.332.333-2.633.73a5 5 0 0 0-.349.116 58 58 0 0 0-2.263.751c-.254.095-.519.19-.772.286a61 61 0 0 0-1.978.772c-.212.084-.423.169-.624.253-.783.328-1.555.667-2.316 1.026-.053.021-.106.053-.159.074-.296.138-.581.296-.877.434-.582.285-1.164.571-1.735.878-.338.179-.677.37-1.005.55-.518.285-1.036.581-1.554.877-.349.201-.698.423-1.047.635a55 55 0 0 0-2.507 1.607c-.232.159-.465.297-.687.455-.307.212-.592.423-.899.645-.211.148-.412.296-.624.444-.74.54-1.48 1.1-2.2 1.671-.095.074-.19.148-.275.233a66 66 0 0 0-1.882 1.565c-.212.18-.412.36-.624.54-.212.179-.423.359-.624.55-.159.148-.307.296-.465.444a64 64 0 0 0-2.137 2.041c-.222.222-.454.444-.687.677a81 81 0 0 0-2.612 2.792c-.042.042-.085.084-.116.127-.127.148-.254.306-.381.454a90 90 0 0 0-1.999 2.39c-.243.307-.486.603-.719.91a72 72 0 0 0-1.851 2.485c-.116.169-.243.328-.37.497-.032.053-.063.106-.106.159a71 71 0 0 0-2.21 3.363c-.18.285-.339.571-.518.857a77 77 0 0 0-1.65 2.855c-.106.19-.222.37-.317.56-.074.138-.148.286-.222.434l-.508.984c-.286.56-.571 1.131-.846 1.692-.169.349-.328.698-.497 1.047-.265.571-.518 1.152-.772 1.734-.148.338-.296.677-.444 1.026a72 72 0 0 0-.772 1.946c-.106.285-.222.56-.328.835-.021.064-.053.138-.074.201-.169.466-.328.952-.487 1.417s-.328.931-.486 1.407c-.18.55-.339 1.1-.497 1.65-.138.465-.286.941-.423 1.406-.159.561-.296 1.132-.434 1.703-.116.465-.243.931-.349 1.396-.137.582-.243 1.163-.37 1.745-.095.465-.201.931-.286 1.406-.116.603-.201 1.206-.296 1.809-.074.455-.158.909-.222 1.364-.084.645-.158 1.29-.232 1.935-.053.424-.106.847-.149 1.27-.063.719-.105 1.448-.158 2.178-.021.349-.053.709-.074 1.058a66 66 0 0 0-.085 3.257L410 344.597c-.032 16.255 5.595 30.299 14.88 40.23a49 49 0 0 0 12.458 9.666l32.298 17.576c-16.466-8.957-27.37-27.285-27.327-49.906l.222-121.863c0-1.089.031-2.178.084-3.257z"/><path fill="url(#k)" fill-opacity=".7" d="m720.554 147.551-.275-.148a1 1 0 0 0-.148-.074l-.106-.064s-.031-.021-.053-.031a65 65 0 0 0-1.173-.593 4 4 0 0 0-.233-.105 58 58 0 0 0-1.819-.846c-.222-.096-.444-.18-.666-.275-.487-.201-.973-.402-1.47-.582-.233-.095-.476-.18-.72-.275-.528-.19-1.068-.37-1.607-.55-.19-.053-.37-.116-.561-.18-.243-.074-.497-.148-.75-.222-.297-.084-.582-.18-.889-.254-.18-.052-.359-.105-.55-.148-.169-.042-.327-.074-.497-.116a45 45 0 0 0-1.713-.402c-.254-.053-.508-.095-.761-.148-.508-.095-1.016-.19-1.523-.275-.265-.042-.529-.084-.794-.116a44 44 0 0 0-1.639-.212c-.169-.021-.349-.053-.518-.063l-.656-.064a35 35 0 0 0-1.819-.137h-.031c-.254-.011-.519-.032-.772-.032h-.096a34 34 0 0 0-1.459-.032h-.793c-.539 0-1.079.011-1.629.032l-.856.032c-.117.01-.233.01-.349.021l-1.333.095-.772.064c-.814.084-1.629.169-2.443.285L501.628 168.48c-.92.127-1.819.286-2.728.465-.254.043-.519.096-.783.148l-1.015.223c-.349.074-.688.158-1.015.232-.244.064-.497.117-.741.18q-1.316.333-2.633.73c-.116.042-.233.074-.349.116a58 58 0 0 0-2.263.751c-.265.095-.518.19-.783.285-.656.244-1.322.498-1.977.772-.212.085-.413.17-.624.254q-1.254.523-2.475 1.111c-.296.137-.592.285-.888.433-.582.286-1.164.571-1.735.878-.338.18-.666.37-1.005.55-.518.286-1.036.582-1.554.878l-1.047.634q-.73.444-1.46.92c-.349.223-.698.455-1.036.688-.539.359-1.068.719-1.597 1.1-.201.148-.402.296-.613.444-.741.539-1.481 1.1-2.2 1.671-.095.074-.19.158-.286.233a44 44 0 0 0-1.533 1.269c-.116.095-.233.19-.338.285-.212.18-.424.37-.624.55-.371.328-.73.656-1.09.984a65 65 0 0 0-2.136 2.041c-.233.222-.465.444-.687.677-.445.444-.889.909-1.312 1.374-.381.402-.761.815-1.121 1.227-.232.254-.455.508-.677.772a71 71 0 0 0-1.988 2.38c-.243.306-.486.613-.719.92a83 83 0 0 0-1.851 2.474c-.148.223-.317.434-.465.656q-.492.698-.952 1.396a63 63 0 0 0-1.258 1.967c-.18.286-.349.571-.519.857-.285.465-.56.93-.835 1.406s-.55.963-.814 1.439c-.18.338-.371.655-.54.994-.18.328-.338.655-.507.983a61 61 0 0 0-.846 1.703c-.17.349-.328.698-.497 1.047-.265.571-.519 1.153-.773 1.734l-.444 1.016c-.264.655-.518 1.3-.772 1.956-.105.286-.222.561-.328.836-.105.275-.19.539-.285.814-.169.465-.339.931-.487 1.396-.095.275-.19.55-.275.825-.179.55-.338 1.1-.497 1.65-.148.475-.296.941-.423 1.417a45 45 0 0 0-.433 1.702c-.117.466-.243.931-.36 1.396-.127.582-.243 1.164-.359 1.745-.096.476-.201.942-.286 1.407-.063.296-.106.603-.159.909a42 42 0 0 0-.253 1.587c-.032.232-.074.465-.106.687-.053.349-.095.709-.138 1.058a37 37 0 0 0-.169 1.512c-.021.201-.053.391-.063.592l-.064.73a69 69 0 0 0-.105 1.502c-.011.116-.011.232-.022.349-.031.37-.052.729-.063 1.1a65 65 0 0 0-.064 2.866l-.232 121.862c0 1.555.042 3.089.148 4.601.032.592.084 1.174.137 1.755.053.603.117 1.206.191 1.798a61 61 0 0 0 1.364 7.509c.095.402.201.804.307 1.195a53 53 0 0 0 1.861 5.753q.19.54.412 1.079c.17.412.339.825.519 1.237q.174.428.38.857c.371.835.762 1.66 1.174 2.464l.444.825a51.6 51.6 0 0 0 4.368 6.874c.212.286.434.582.666.867 0 .021.022.043.043.064.222.285.454.571.687.856a50 50 0 0 0 4.981 5.267c.275.264.561.508.846.751.127.127.265.243.402.349.254.232.529.455.793.666a47 47 0 0 0 1.957 1.534c.275.2.56.412.846.602a.25.25 0 0 0 .095.064c.264.19.539.37.804.55.486.338.973.655 1.47.952.613.38 1.227.75 1.861 1.099 9.222 5.193 20.221 7.403 32.055 5.743l152.035-21.363c20.178-2.062 36.19-.529 48.838 2.919 6.652 1.809 12.374 4.146 17.291 6.768l.55.297a70 70 0 0 1 6.779 4.198c.413.286.815.582 1.216.878a65 65 0 0 1 4.294 3.437l1.163 1.036a59.3 59.3 0 0 1 7.002 7.636c.19.243.401.455.634.624.085.074.169.127.254.18.677.433 1.459.571 2.231.465 2.031-.285 4.019-2.242 4.019-4.875l.159-83.125.211-114.322.043-24.842c.052-22.622-10.862-40.949-27.328-49.896M531.303 312.044c-11.347 1.597-20.527-7.033-20.506-19.279.021-12.247 9.243-23.468 20.58-25.064 11.348-1.597 20.517 7.043 20.496 19.289s-9.233 23.457-20.58 25.054zm67.145-9.433c-11.348 1.597-20.527-7.033-20.506-19.28s9.243-23.467 20.58-25.064c11.348-1.597 20.517 7.043 20.496 19.29s-9.233 23.457-20.581 25.054zm67.145-9.434c-11.348 1.597-20.517-7.033-20.496-19.279.021-12.247 9.233-23.467 20.58-25.064 11.348-1.597 20.527 7.043 20.506 19.29s-9.243 23.456-20.58 25.053z"/><defs><linearGradient id="b" x1="363.5" x2="-48.642" y1="88" y2="268.053" gradientUnits="userSpaceOnUse"><stop stop-color="#7F88DA" stop-opacity="0"/><stop offset=".413" stop-color="#343CFF" stop-opacity=".482"/><stop offset="1" stop-color="#758AF7" stop-opacity=".78"/></linearGradient><linearGradient id="c" x1="376.5" x2="109.703" y1="290" y2="303.959" gradientUnits="userSpaceOnUse"><stop stop-color="#5C76FF" stop-opacity="0"/><stop offset="1" stop-color="#6371ED" stop-opacity=".64"/></linearGradient><linearGradient id="d" x1="771.122" x2="723.921" y1="439.051" y2="343.176" gradientUnits="userSpaceOnUse"><stop stop-color="#FD9A9A" stop-opacity=".3"/><stop offset=".792" stop-color="#FF9898"/></linearGradient><linearGradient id="e" x1="360.491" x2="823.23" y1="249.94" y2="373.469" gradientUnits="userSpaceOnUse"><stop stop-color="#FFB5B5" stop-opacity=".3"/><stop offset="1" stop-color="#FF6069"/></linearGradient><linearGradient id="f" x1="458.441" x2="802.635" y1="387.379" y2="248.706" gradientUnits="userSpaceOnUse"><stop stop-color="#FF8989" stop-opacity=".3"/><stop offset=".886" stop-color="#FD5A5A"/></linearGradient><linearGradient id="g" x1="521.5" x2="3.738" y1="40" y2="195.298" gradientUnits="userSpaceOnUse"><stop stop-color="#7F88DA" stop-opacity="0"/><stop offset=".38" stop-color="#343CFF" stop-opacity=".482"/><stop offset="1" stop-color="#758AF7" stop-opacity=".68"/></linearGradient><linearGradient id="h" x1="430" x2="180.332" y1="270.5" y2="89.79" gradientUnits="userSpaceOnUse"><stop stop-color="#5C76FF" stop-opacity="0"/><stop offset="1" stop-color="#6371ED" stop-opacity=".64"/></linearGradient><linearGradient id="i" x1="764.122" x2="716.921" y1="424.051" y2="328.176" gradientUnits="userSpaceOnUse"><stop stop-color="#FD9A9A" stop-opacity=".3"/><stop offset=".792" stop-color="#FF9898"/></linearGradient><linearGradient id="j" x1="353.491" x2="816.23" y1="234.94" y2="358.469" gradientUnits="userSpaceOnUse"><stop stop-color="#FFB5B5" stop-opacity=".3"/><stop offset="1" stop-color="#FF6069"/></linearGradient><linearGradient id="k" x1="451.441" x2="795.635" y1="372.379" y2="233.706" gradientUnits="userSpaceOnUse"><stop stop-color="#FF8989" stop-opacity=".3"/><stop offset=".886" stop-color="#FD5A5A"/></linearGradient><filter id="a" width="848.882" height="533.645" x="0" y="0" color-interpolation-filters="sRGB" filterUnits="userSpaceOnUse"><feFlood flood-opacity="0" result="BackgroundImageFix"/><feBlend in="SourceGraphic" in2="BackgroundImageFix" result="shape"/><feGaussianBlur result="effect1_foregroundBlur_11562_343469" stdDeviation="47"/></filter></defs></svg>