<svg xmlns="http://www.w3.org/2000/svg" width="80" height="80" fill="none" opt="1"><g fill="#000" clip-path="url(#a)"><path d="m39.706 33.053-16.373 7.446 16.373 9.673 16.366-9.673z" opacity=".6"/><path d="m23.333 40.499 16.373 9.673V13.333z" opacity=".45"/><path d="M39.7 13.333v36.839l16.366-9.673z" opacity=".8"/><path d="m23.333 43.601 16.373 23.066V53.274z" opacity=".45"/><path d="M39.7 53.273v13.393L56.08 43.6z" opacity=".8"/><g filter="url(#b)" opacity=".3"><path d="M48.373 32.72 32 40.164l16.373 9.673 16.366-9.673z" opacity=".6"/><path d="m32 40.166 16.373 9.673V13z" opacity=".45"/><path d="M48.367 13v36.839l16.366-9.673z" opacity=".8"/><path d="m32 43.268 16.373 23.066V52.94z" opacity=".45"/><path d="M48.367 52.94v13.393l16.38-23.066z" opacity=".8"/></g></g><defs><clipPath id="a"><path fill="#fff" d="M0 0h80v80H0z"/></clipPath><filter id="b" width="60.746" height="81.334" x="18" y="-1" color-interpolation-filters="sRGB" filterUnits="userSpaceOnUse"><feFlood flood-opacity="0" result="BackgroundImageFix"/><feBlend in="SourceGraphic" in2="BackgroundImageFix" result="shape"/><feGaussianBlur result="effect1_foregroundBlur_2595_24822" stdDeviation="7"/></filter></defs></svg>