<svg xmlns="http://www.w3.org/2000/svg" width="80" height="80" fill="none" opt="1"><path fill="#7B3FE4" d="M50.694 33.303a2.64 2.64 0 0 0-2.635 0l-6.044 3.599-4.107 2.346-6.045 3.599a2.64 2.64 0 0 1-2.634 0l-4.804-2.816a2.7 2.7 0 0 1-1.318-2.269v-5.554a2.54 2.54 0 0 1 1.318-2.268l4.726-2.738a2.64 2.64 0 0 1 2.635 0l4.727 2.738a2.7 2.7 0 0 1 1.317 2.268v3.599l4.107-2.425v-3.599a2.54 2.54 0 0 0-1.317-2.268l-8.756-5.163a2.64 2.64 0 0 0-2.635 0l-8.911 5.163A2.54 2.54 0 0 0 19 29.783v10.404a2.54 2.54 0 0 0 1.318 2.269l8.911 5.162a2.64 2.64 0 0 0 2.635 0l6.044-3.52 4.107-2.425 6.044-3.52a2.64 2.64 0 0 1 2.635 0l4.726 2.738a2.7 2.7 0 0 1 1.318 2.269v5.553a2.54 2.54 0 0 1-1.318 2.269l-4.726 2.816a2.64 2.64 0 0 1-2.635 0l-4.727-2.738a2.7 2.7 0 0 1-1.317-2.268v-3.599l-4.107 2.425v3.599a2.54 2.54 0 0 0 1.317 2.268l8.911 5.163a2.64 2.64 0 0 0 2.635 0l8.911-5.163A2.7 2.7 0 0 0 61 51.217V40.813a2.54 2.54 0 0 0-1.318-2.269z"/><g filter="url(#a)"><path fill="#7B3FE4" fill-opacity=".51" d="M46.694 33.303a2.64 2.64 0 0 0-2.635 0l-6.044 3.599-4.107 2.346-6.045 3.599a2.64 2.64 0 0 1-2.634 0l-4.804-2.816a2.7 2.7 0 0 1-1.318-2.269v-5.554a2.54 2.54 0 0 1 1.318-2.268l4.726-2.738a2.64 2.64 0 0 1 2.635 0l4.727 2.738a2.7 2.7 0 0 1 1.317 2.268v3.599l4.107-2.425v-3.599a2.54 2.54 0 0 0-1.317-2.268l-8.756-5.163a2.64 2.64 0 0 0-2.635 0l-8.911 5.163A2.54 2.54 0 0 0 15 29.783v10.404a2.54 2.54 0 0 0 1.318 2.269l8.911 5.162a2.64 2.64 0 0 0 2.635 0l6.044-3.52 4.107-2.425 6.044-3.52a2.64 2.64 0 0 1 2.635 0l4.726 2.738a2.7 2.7 0 0 1 1.318 2.269v5.553a2.54 2.54 0 0 1-1.318 2.269l-4.726 2.816a2.64 2.64 0 0 1-2.635 0l-4.727-2.738a2.7 2.7 0 0 1-1.317-2.268v-3.599l-4.107 2.425v3.599a2.54 2.54 0 0 0 1.317 2.268l8.911 5.163a2.64 2.64 0 0 0 2.635 0l8.911-5.163A2.7 2.7 0 0 0 57 51.217V40.813a2.54 2.54 0 0 0-1.318-2.269z"/></g><defs><filter id="a" width="70" height="65" x="1" y="8" color-interpolation-filters="sRGB" filterUnits="userSpaceOnUse"><feFlood flood-opacity="0" result="BackgroundImageFix"/><feBlend in="SourceGraphic" in2="BackgroundImageFix" result="shape"/><feGaussianBlur result="effect1_foregroundBlur_2595_22715" stdDeviation="7"/></filter></defs></svg>