<svg xmlns="http://www.w3.org/2000/svg" width="112" height="76" fill="none" opt="1"><path stroke="#fff" stroke-opacity=".28" d="M105.557 33.048c1.518 4.935-1.166 10.8-7.061 16.332-5.868 5.507-14.798 10.56-25.403 13.822-10.605 3.263-20.83 4.105-28.78 2.848-7.985-1.262-13.502-4.603-15.02-9.538s1.166-10.8 7.06-16.332c5.869-5.508 14.799-10.56 25.404-13.823s20.83-4.104 28.78-2.848c7.984 1.262 13.501 4.603 15.02 9.539Z"/><path fill="#fff" fill-rule="evenodd" d="m81.596 36.321 3.45 3.433 2.548-2.6-3.46-3.461a16.8 16.8 0 0 0 1.927-3.273q2.001-4.395 2.001-10.14t-2.001-10.14q-1.978-4.395-5.824-6.864Q76.415.78 70.799.78q-5.59 0-9.439 2.496-3.847 2.469-5.824 6.864T53.56 20.28t1.976 10.14q1.977 4.395 5.825 6.89 3.847 2.47 9.438 2.47 5.615 0 9.438-2.47.71-.462 1.36-.989m-2.751-2.736q-.345.275-.715.527-2.937 2.002-7.331 2.002-4.395-.026-7.333-2.028-2.937-2.028-4.42-5.564-1.455-3.562-1.43-8.242.027-4.68 1.483-8.242 1.481-3.588 4.394-5.59 2.91-2.002 7.306-2.002 4.394.026 7.331 2.028 2.94 2.002 4.395 5.564 1.48 3.561 1.481 8.242 0 4.68-1.481 8.268a13.5 13.5 0 0 1-1.214 2.322l-3.649-3.648-2.6 2.6zM.64 39V1.56h21.502v3.822H4.463v13h14.56v3.796H4.463V39zm21.535 0L35.072 1.56h5.07l9.938 28.853a70 70 0 0 0-3.386 1.766l-.781-2.253H29.28L26.154 39zM37.57 5.873l7.098 20.465h-14.15z" clip-rule="evenodd"/></svg>