<svg xmlns="http://www.w3.org/2000/svg" width="157" height="109" fill="none" opt="1"><path stroke="#fff" stroke-opacity=".28" d="M148.259 48.348c2.122 6.899-1.872 15.125-10.407 22.89-8.502 7.737-21.376 14.879-36.61 19.566s-29.895 6.016-41.276 4.398c-11.423-1.625-19.351-6.183-21.474-13.081-2.123-6.9 1.872-15.125 10.407-22.89 8.502-7.737 21.376-14.88 36.61-19.566 15.233-4.687 29.895-6.017 41.275-4.398 11.424 1.624 19.352 6.182 21.475 13.08Z"/><path fill="#fff" fill-rule="evenodd" d="m119.254 52.086 5.043 5.016 3.724-3.8-5.058-5.058a24.6 24.6 0 0 0 2.816-4.784q2.926-6.422 2.926-14.82t-2.926-14.82q-2.887-6.421-8.512-10.032Q111.681.14 103.473.14q-8.169 0-13.794 3.648-5.623 3.61-8.512 10.032-2.888 6.422-2.888 14.82t2.888 14.82q2.889 6.422 8.512 10.07 5.625 3.61 13.794 3.61 8.208 0 13.794-3.61 1.04-.675 1.987-1.444m-4.021-4q-.504.402-1.044.77-4.293 2.925-10.716 2.926-6.422-.038-10.716-2.964-4.294-2.964-6.46-8.132-2.127-5.206-2.09-12.046.039-6.84 2.166-12.046 2.166-5.244 6.422-8.17 4.257-2.925 10.678-2.926 6.423.037 10.716 2.964 4.295 2.926 6.422 8.132 2.166 5.206 2.166 12.046t-2.166 12.084a19.7 19.7 0 0 1-1.774 3.394l-5.332-5.332-3.8 3.8zM.32 56V1.28h31.426v5.586H5.906v19h21.28v5.548H5.906V56zm31.475 0L50.643 1.28h7.41L72.67 43.717a111 111 0 0 0-5.032 2.34l-1.15-3.32H42.178L37.61 56zm22.5-48.417 10.373 29.91H43.986z" clip-rule="evenodd"/></svg>