<svg xmlns="http://www.w3.org/2000/svg" width="334" height="179" fill="none" opt="1"><path stroke="#fff" stroke-opacity=".28" d="M316.802 53.803c2.146 6.973.956 14.653-3.108 22.601-4.066 7.952-10.995 16.143-20.266 24.094-18.54 15.902-46.369 30.785-79.095 40.854s-64.109 13.404-88.381 10.675c-12.137-1.365-22.472-4.244-30.305-8.535-7.83-4.289-13.13-9.972-15.276-16.945s-.956-14.653 3.109-22.602c4.065-7.952 10.995-16.142 20.265-24.094 18.54-15.902 46.369-30.785 79.095-40.854 32.727-10.07 64.109-13.404 88.382-10.674 12.137 1.364 22.471 4.243 30.304 8.534 7.83 4.29 13.131 9.972 15.276 16.946Z"/><path fill="#fff" fill-rule="evenodd" d="m220.819 97.686 9.422 9.373 6.958-7.1-9.451-9.45q3.057-4.037 5.262-8.94 5.467-11.998 5.467-27.69 0-15.69-5.467-27.69-5.397-11.997-15.904-18.743Q206.669.63 191.333.63q-15.266 0-25.773 6.816-10.509 6.745-15.904 18.744-5.397 12-5.396 27.69 0 15.69 5.396 27.69 5.395 11.999 15.904 18.815 10.507 6.745 25.773 6.745 15.336 0 25.773-6.745a43 43 0 0 0 3.713-2.7m-7.513-7.474a32 32 0 0 1-1.951 1.44q-8.023 5.466-20.022 5.467-12-.071-20.022-5.538-8.023-5.538-12.07-15.194-3.977-9.727-3.905-22.507.07-12.78 4.047-22.507 4.047-9.798 11.999-15.265 7.951-5.467 19.951-5.467 11.999.07 20.022 5.538t11.999 15.194q4.047 9.727 4.047 22.507t-4.047 22.578a37 37 0 0 1-3.315 6.341l-9.962-9.962-7.1 7.1zM.939 105V2.76h58.717v10.437h-48.28v35.5h39.76v10.366h-39.76V105zm58.808 0L94.963 2.76h13.845l20.254 58.801a200 200 0 0 0-9.04 5.556l-18.236-52.58-19.26 55.886h32.605c-4.57 3.2-8.776 6.478-12.578 9.798H79.15L70.61 105z" clip-rule="evenodd"/></svg>