<svg xmlns="http://www.w3.org/2000/svg" width="241" height="146" fill="none" opt="1"><path stroke="#fff" stroke-opacity=".28" d="M228.355 52.603c3.268 10.62-3.145 23.285-16.538 35.222-13.356 11.905-33.51 22.941-57.297 30.26-23.788 7.319-46.66 9.52-64.399 7.183-17.786-2.344-30.21-9.214-33.476-19.833-3.268-10.62 3.145-23.285 16.538-35.222 13.356-11.905 33.51-22.94 57.297-30.26 23.788-7.319 46.66-9.52 64.398-7.183 17.787 2.344 30.21 9.214 33.477 19.833Z"/><path fill="#fff" fill-rule="evenodd" d="m170.607 75.334 7.299 7.26 5.39-5.5-7.321-7.32q2.368-3.127 4.076-6.924 4.235-9.296 4.235-21.45t-4.235-21.45q-4.18-9.295-12.32-14.52Q159.646.15 147.766.15q-11.826 0-19.965 5.28-8.14 5.225-12.32 14.52t-4.18 21.45q0 12.154 4.18 21.45t12.32 14.575q8.139 5.225 19.965 5.225 11.88 0 19.965-5.225a33 33 0 0 0 2.876-2.091m-5.82-5.79q-.73.584-1.511 1.116-6.216 4.235-15.51 4.235-9.295-.055-15.51-4.29-6.215-4.29-9.35-11.77-3.08-7.535-3.025-17.435.054-9.9 3.135-17.435 3.135-7.59 9.295-11.825t15.455-4.235q9.294.056 15.51 4.29 6.214 4.235 9.295 11.77 3.135 7.535 3.135 17.435t-3.135 17.49a28.7 28.7 0 0 1-2.568 4.912l-7.717-7.717-5.5 5.5zM.699 81V1.8h45.485v8.085h-37.4v27.5h30.8v8.03h-30.8V81zm45.556 0 27.28-79.2H84.26l17.001 49.358a163 163 0 0 0-7.16 3.822 141 141 0 0 0-10.886 6.825h-21.93L54.67 81zM78.82 10.923l15.015 43.292H63.9z" clip-rule="evenodd"/></svg>