<svg xmlns="http://www.w3.org/2000/svg" width="1248" height="432" fill="none" opt="1"><path fill="#fff" d="M907.108 203a17 17 0 0 1-4.23.353q-2.068-.094-3.713-.894-1.621-.798-2.467-2.491-.682-1.41-.752-2.843-.047-1.457-.047-3.314V170.57h3.431v23.1q0 1.599.023 2.679.047 1.058.494 1.88.846 1.575 2.679 1.88 1.856.306 4.582-.141zm-16.638-22.419v-2.961h16.638v2.961zm26.9 23.124q-2.866 0-4.818-1.034-1.927-1.034-2.89-2.75a7.5 7.5 0 0 1-.964-3.736q0-2.068.823-3.525a7 7 0 0 1 2.279-2.421q1.458-.94 3.361-1.433a49 49 0 0 1 4.253-.823q2.35-.375 4.583-.634 2.256-.282 3.948-.541l-1.222.752q.07-3.76-1.457-5.569t-5.311-1.81q-2.609 0-4.418 1.175-1.786 1.175-2.515 3.713l-3.36-.987q.87-3.407 3.501-5.287 2.633-1.88 6.839-1.88 3.478 0 5.898 1.316 2.444 1.293 3.455 3.76.47 1.105.611 2.467t.141 2.773V203h-3.079v-6.369l.893.376q-1.292 3.267-4.018 4.982t-6.533 1.716m.399-2.985q2.421 0 4.23-.869 1.81-.87 2.914-2.374a8.1 8.1 0 0 0 1.434-3.431q.282-1.221.305-2.679.024-1.48.024-2.209l1.316.682q-1.763.235-3.831.47-2.044.236-4.042.54a35 35 0 0 0-3.572.729 9.7 9.7 0 0 0-2.091.869 4.8 4.8 0 0 0-1.669 1.457q-.634.917-.634 2.28 0 1.104.54 2.138.564 1.035 1.786 1.716 1.246.681 3.29.681m16.926-27.918v-3.877h3.454v3.877zm0 30.198v-25.38h3.454V203zm8.969 0v-34.545h3.455V203zm19.099.705q-3.784 0-6.463-1.716t-4.112-4.747q-1.434-3.031-1.434-6.956 0-3.994 1.457-7.003t4.136-4.676q2.703-1.692 6.416-1.692 3.807 0 6.486 1.715 2.702 1.692 4.112 4.724 1.434 3.008 1.434 6.932 0 3.996-1.434 7.027-1.433 3.008-4.136 4.7t-6.462 1.692m0-3.314q4.23 0 6.298-2.796 2.067-2.82 2.068-7.309 0-4.605-2.092-7.332-2.068-2.726-6.274-2.726-2.844 0-4.7 1.293-1.833 1.27-2.75 3.548-.893 2.256-.893 5.217 0 4.583 2.115 7.356 2.115 2.75 6.228 2.749M977.978 203v-25.38h3.102v6.11l-.611-.799a8.7 8.7 0 0 1 1.105-2.068q.681-.963 1.48-1.575a6.7 6.7 0 0 1 2.303-1.316 9.3 9.3 0 0 1 2.656-.54q1.34-.094 2.444.188v3.243q-1.386-.352-3.032-.165-1.644.189-3.031 1.316a6.3 6.3 0 0 0-1.904 2.374q-.635 1.363-.846 2.914a22 22 0 0 0-.211 3.031V203zm25.222.705q-3.719 0-6.443-1.645-2.703-1.645-4.207-4.63t-1.504-7.003q0-4.16 1.481-7.191 1.48-3.031 4.159-4.676 2.703-1.645 6.364-1.645 3.765 0 6.42 1.739 2.655 1.716 4.02 4.935c.91 2.146 1.32 4.708 1.24 7.684h-3.52v-1.221c-.06-3.291-.78-5.774-2.14-7.45-1.35-1.676-3.32-2.515-5.92-2.515-2.73 0-4.819.886-6.276 2.656q-2.162 2.655-2.162 7.567 0 4.794 2.162 7.449 2.186 2.632 6.176 2.632c1.82 0 3.4-.415 4.75-1.245 1.36-.846 2.44-2.06 3.22-3.643l3.22 1.246q-1.5 3.313-4.44 5.146-2.91 1.81-6.6 1.81m-9.71-12.432v-2.89h19.39v2.89zm34.31 12.432c-2.37 0-4.39-.587-6.07-1.763-1.67-1.19-2.96-2.796-3.85-4.817s-1.34-4.301-1.34-6.839q0-3.783 1.32-6.815c.89-2.021 2.17-3.619 3.83-4.794s3.65-1.762 5.96-1.762c2.39 0 4.39.58 6.02 1.739q2.445 1.738 3.69 4.77c.85 2.006 1.27 4.293 1.27 6.862 0 2.523-.42 4.802-1.25 6.839q-1.245 3.032-3.66 4.817c-1.62 1.176-3.59 1.763-5.92 1.763m.35-3.22c1.8 0 3.29-.438 4.46-1.316q1.77-1.315 2.64-3.619c.57-1.551.86-3.305.86-5.264 0-1.989-.29-3.744-.86-5.264q-.87-2.302-2.64-3.595c-1.16-.862-2.62-1.293-4.39-1.293-1.82 0-3.32.447-4.51 1.34s-2.08 2.107-2.66 3.642q-.84 2.304-.84 5.17c0 1.927.29 3.666.86 5.217.6 1.536 1.49 2.75 2.66 3.643 1.18.893 2.65 1.339 4.42 1.339m7.96 2.515v-19.106h-.37V169.16h3.48V203zm-140.305 55v-27.26q0-.987.094-1.951a7.9 7.9 0 0 1 .446-1.833 4.85 4.85 0 0 1 1.034-1.645q.776-.846 1.692-1.222a6.8 6.8 0 0 1 1.904-.517 17 17 0 0 1 1.973-.117h3.244v2.914h-3.008q-1.974 0-2.961.963-.964.964-.964 3.032V258zm-4.395-22.419v-2.961h14.782v2.961zm26.222 23.124q-3.784 0-6.463-1.716t-4.112-4.747-1.434-6.956q0-3.994 1.457-7.003t4.136-4.676q2.703-1.692 6.416-1.692 3.807 0 6.486 1.715 2.702 1.692 4.112 4.724 1.434 3.008 1.434 6.932 0 3.996-1.434 7.027-1.433 3.008-4.136 4.7t-6.462 1.692m0-3.314q4.23 0 6.298-2.796 2.067-2.82 2.068-7.309 0-4.605-2.092-7.332-2.068-2.726-6.274-2.726-2.844 0-4.7 1.293-1.833 1.27-2.75 3.548-.893 2.256-.893 5.217 0 4.583 2.115 7.356 2.115 2.75 6.228 2.749M932.848 258v-25.38h3.102v6.11l-.611-.799a8.7 8.7 0 0 1 1.104-2.068q.681-.963 1.481-1.575a6.7 6.7 0 0 1 2.303-1.316 9.3 9.3 0 0 1 2.655-.54q1.34-.094 2.444.188v3.243q-1.386-.352-3.031-.165-1.646.189-3.032 1.316a6.3 6.3 0 0 0-1.903 2.374q-.635 1.363-.846 2.914a22 22 0 0 0-.212 3.031V258zm22.815 0v-33.84h3.455V258zm26.83 0v-12.948q0-2.116-.399-3.878-.4-1.786-1.293-3.102a5.9 5.9 0 0 0-2.279-2.068q-1.387-.729-3.384-.729-1.833 0-3.243.635a6.4 6.4 0 0 0-2.35 1.833q-.94 1.175-1.434 2.867-.493 1.692-.493 3.854l-2.444-.541q0-3.9 1.363-6.556 1.362-2.655 3.76-4.019 2.397-1.362 5.499-1.362 2.279 0 3.971.704 1.716.705 2.891 1.904a9.7 9.7 0 0 1 1.927 2.749 13.3 13.3 0 0 1 1.057 3.267q.329 1.715.329 3.431V258zm-18.353 0v-25.38h3.125v6.251h.353V258zm35.4.682q-4.466 0-7.356-1.928-2.867-1.926-3.525-5.358l3.525-.587q.564 2.162 2.562 3.454 2.02 1.269 4.982 1.269 2.882 0 4.562-1.198c1.11-.815 1.67-1.919 1.67-3.314 0-.783-.18-1.417-.55-1.903q-.51-.752-2.13-1.387c-1.08-.423-2.7-.924-4.845-1.504q-3.454-.94-5.405-1.88-1.95-.94-2.773-2.162-.822-1.245-.822-3.031 0-2.162 1.222-3.784 1.221-1.644 3.384-2.538 2.161-.916 5.029-.916c1.91 0 3.62.313 5.12.94 1.52.611 2.74 1.473 3.67 2.585a7.26 7.26 0 0 1 1.64 3.877l-3.52.635c-.24-1.488-.98-2.663-2.23-3.525-1.24-.877-2.82-1.332-4.727-1.363q-2.703-.07-4.395 1.034-1.692 1.081-1.692 2.89 0 1.011.611 1.739.612.705 2.209 1.34 1.622.635 4.604 1.386c2.34.596 4.17 1.222 5.5 1.88s2.28 1.434 2.84 2.327c.57.893.85 1.997.85 3.313 0 2.397-.89 4.285-2.68 5.664-1.77 1.363-4.21 2.045-7.33 2.045m27.04-.682q-2.145.447-4.23.353c-1.38-.063-2.62-.361-3.71-.894-1.08-.532-1.91-1.363-2.47-2.491q-.675-1.41-.75-2.843c-.03-.971-.05-2.076-.05-3.314V225.57h3.43v23.1q0 1.599.03 2.679c.03.705.19 1.332.49 1.88.56 1.05 1.46 1.677 2.68 1.88 1.24.204 2.76.157 4.58-.141zm-16.64-22.419v-2.961h16.64v2.961zm20.11-7.779v-3.877h3.46v3.877zm0 30.198v-25.38h3.46V258zm22.32 0q-2.145.447-4.23.353c-1.38-.063-2.62-.361-3.71-.894-1.09-.532-1.91-1.363-2.47-2.491q-.69-1.41-.75-2.843c-.04-.971-.05-2.076-.05-3.314V225.57h3.43v23.1c0 1.066.01 1.959.02 2.679.04.705.2 1.332.5 1.88.56 1.05 1.45 1.677 2.68 1.88 1.23.204 2.76.157 4.58-.141zm-16.64-22.419v-2.961h16.64v2.961zm29.34 23.054q-2.28 0-3.99-.706c-1.13-.469-2.09-1.104-2.89-1.903a10 10 0 0 1-1.9-2.726 13.6 13.6 0 0 1-1.06-3.267q-.33-1.738-.33-3.454V232.62h3.48v12.948c0 1.395.13 2.687.4 3.878.26 1.191.69 2.232 1.27 3.125a6.1 6.1 0 0 0 2.28 2.045c.94.486 2.07.728 3.4.728 1.22 0 2.3-.211 3.22-.634a6.2 6.2 0 0 0 2.35-1.81c.64-.799 1.13-1.762 1.46-2.89.33-1.144.49-2.428.49-3.854l2.45.54c0 2.601-.46 4.787-1.37 6.557s-2.16 3.11-3.76 4.018c-1.59.909-3.43 1.364-5.5 1.364m8.54-.635v-6.251h-.36V232.62h3.46V258zm21.48 0q-2.13.447-4.23.353c-1.38-.063-2.61-.361-3.71-.894-1.08-.532-1.9-1.363-2.47-2.491q-.675-1.41-.75-2.843c-.03-.971-.05-2.076-.05-3.314V225.57h3.43v23.1q0 1.599.03 2.679c.03.705.19 1.332.49 1.88.57 1.05 1.46 1.677 2.68 1.88 1.24.204 2.77.157 4.58-.141zm-16.63-22.419v-2.961h16.63v2.961zm20.1-7.779v-3.877h3.46v3.877zm0 30.198v-25.38h3.46V258zm19.1.705c-2.52 0-4.67-.572-6.46-1.716q-2.685-1.715-4.11-4.747-1.44-3.031-1.44-6.956c0-2.663.49-4.997 1.46-7.003q1.455-3.008 4.14-4.676c1.8-1.128 3.94-1.692 6.41-1.692 2.54 0 4.7.572 6.49 1.715q2.7 1.692 4.11 4.724c.96 2.005 1.43 4.316 1.43 6.932 0 2.664-.47 5.006-1.43 7.027-.96 2.005-2.33 3.572-4.14 4.7-1.8 1.128-3.95 1.692-6.46 1.692m0-3.314q4.23 0 6.3-2.796 2.07-2.82 2.07-7.309c0-3.07-.7-5.514-2.09-7.332-1.38-1.817-3.47-2.726-6.28-2.726-1.89 0-3.46.431-4.7 1.293-1.22.846-2.14 2.029-2.75 3.548-.59 1.504-.89 3.243-.89 5.217 0 3.055.7 5.507 2.11 7.356 1.41 1.833 3.49 2.749 6.23 2.749m33.55 2.609v-12.948c0-1.411-.14-2.703-.4-3.878q-.405-1.786-1.29-3.102a5.9 5.9 0 0 0-2.28-2.068q-1.395-.729-3.39-.729-1.83 0-3.24.635a6.4 6.4 0 0 0-2.35 1.833c-.63.783-1.11 1.739-1.43 2.867-.33 1.128-.5 2.413-.5 3.854l-2.44-.541c0-2.6.45-4.786 1.36-6.556s2.16-3.11 3.76-4.019c1.6-.908 3.43-1.362 5.5-1.362 1.52 0 2.84.234 3.97.704 1.15.47 2.11 1.105 2.89 1.904.8.799 1.44 1.715 1.93 2.749.49 1.019.84 2.108 1.06 3.267q.33 1.715.33 3.431V258zm-18.36 0v-25.38h3.13v6.251h.35V258zm35.4.682q-4.455 0-7.35-1.928c-1.91-1.284-3.09-3.07-3.53-5.358l3.53-.587c.38 1.441 1.23 2.593 2.56 3.454q2.025 1.269 4.98 1.269 2.895 0 4.56-1.198c1.11-.815 1.67-1.919 1.67-3.314q0-1.174-.54-1.903c-.35-.501-1.06-.964-2.14-1.387s-2.69-.924-4.84-1.504q-3.45-.94-5.4-1.88c-1.31-.626-2.23-1.347-2.78-2.162-.55-.83-.82-1.84-.82-3.031 0-1.441.41-2.703 1.22-3.784.82-1.096 1.94-1.942 3.39-2.538 1.44-.611 3.11-.916 5.02-.916 1.92 0 3.62.313 5.13.94q2.28.917 3.66 2.585 1.395 1.668 1.65 3.877l-3.53.635c-.23-1.488-.98-2.663-2.23-3.525-1.24-.877-2.81-1.332-4.72-1.363-1.8-.047-3.27.298-4.4 1.034-1.12.721-1.69 1.684-1.69 2.89 0 .674.2 1.254.61 1.739.41.47 1.15.917 2.21 1.34 1.08.423 2.62.885 4.61 1.386 2.33.596 4.16 1.222 5.5 1.88 1.33.658 2.28 1.434 2.84 2.327s.85 1.997.85 3.313c0 2.397-.9 4.285-2.68 5.664-1.77 1.363-4.22 2.045-7.34 2.045"/><path stroke="#fff" stroke-opacity=".28" d="M877.791 124.086c5.176 16.824 1.802 35.458-8.825 54.783-10.629 19.328-28.494 39.309-52.216 58.784-47.444 38.947-118.238 75.802-201.139 101.309s-162.168 34.822-223.3 29.28c-30.567-2.771-56.574-9.254-76.229-19.264-19.653-10.009-32.918-23.523-38.094-40.347s-1.803-35.458 8.825-54.784c10.628-19.328 28.493-39.309 52.216-58.783 47.443-38.948 118.237-75.802 201.138-101.309s162.168-34.822 223.3-29.28c30.567 2.77 56.574 9.253 76.229 19.263 19.653 10.01 32.918 23.523 38.095 40.348Z"/><path fill="#fff" fill-rule="evenodd" d="M319.096 212.322q-5.911-2.758-15.763-5.271-9.017-2.272-13.916-4.189-4.828-1.917-6.674-4.047-1.846-2.201-1.846-5.254 0-5.468 5.112-8.733 5.112-3.337 13.277-3.124 8.662.142 14.271 4.118 5.68 3.905 6.745 10.65l10.65-1.917q-.781-6.673-4.97-11.715-4.19-5.041-11.076-7.81-6.816-2.84-15.478-2.84t-15.194 2.769q-6.532 2.698-10.224 7.668-3.692 4.899-3.692 11.431 0 5.396 2.485 9.159 2.485 3.692 8.378 6.532t16.33 5.68q9.38 2.534 14.27 4.406a251 251 0 0 1 7.315-7.513m-25.704 30.318q-3.889-.958-7.028-2.929-6.035-3.904-7.739-10.437l-10.65 1.775q1.988 10.367 10.65 16.188 4.104 2.736 9.26 4.187a140 140 0 0 1 5.507-8.784M0 148.76V251h10.437V148.76zm82.843 63.119V251H93.35v-42.174q0-5.183-.994-10.366-.995-5.254-3.195-9.869a29.2 29.2 0 0 0-5.822-8.307q-3.55-3.621-8.733-5.751-5.112-2.13-12-2.13-9.37 0-16.613 4.118-5.471 3.111-9.16 8.451V174.32h-9.442V251H37.9v-40.896q0-6.532 1.49-11.644 1.492-5.112 4.332-8.662a19.3 19.3 0 0 1 7.1-5.538q4.26-1.917 9.798-1.917 6.034 0 10.224 2.201 4.26 2.2 6.887 6.248 2.697 3.977 3.905 9.372 1.206 5.325 1.207 11.715m32.269-28.613V251h10.437v-67.734h20.945v-8.946h-20.945v-6.816q0-6.247 2.911-9.159 2.982-2.911 8.946-2.911h9.088v-8.804h-9.798q-2.912 0-5.964.355a20.3 20.3 0 0 0-5.751 1.562q-2.769 1.136-5.112 3.692-2.13 2.272-3.124 4.97a23.7 23.7 0 0 0-1.349 5.538 61 61 0 0 0-.284 5.893v5.68h-13.277v8.946zm38.481-8.946V251h10.437v-38.269q0-4.543.639-9.159.639-4.686 2.556-8.804 1.917-4.19 5.751-7.171 4.19-3.408 9.159-3.976t9.159.497v-9.798q-3.337-.852-7.384-.568-4.047.213-8.023 1.633-3.976 1.349-6.958 3.976-2.413 1.846-4.473 4.757a26 26 0 0 0-1.491 2.308V174.32zm51.382 75.686q5.892 3.124 14.555 3.124 11.502 0 19.738-5.183 5.792-3.645 9.443-9.609V251h9.301v-47.641q0-4.26-.426-8.378-.426-4.117-1.846-7.455-3.054-7.455-10.437-11.36-7.314-3.976-17.821-3.976-12.71 0-20.661 5.68-7.953 5.68-10.579 15.975l10.153 2.982q2.2-7.668 7.597-11.218 5.466-3.55 13.348-3.55 11.43 0 16.046 5.467 4.256 5.042 4.406 15.097-3.75.53-8.24 1.091-6.746.781-13.845 1.917-7.03 1.065-12.851 2.485-5.751 1.491-10.153 4.331a21.2 21.2 0 0 0-6.887 7.313q-2.485 4.403-2.485 10.65 0 6.107 2.911 11.289 2.91 5.183 8.733 8.307m28.542-8.52q-5.467 2.627-12.78 2.627-6.178 0-9.94-2.059-3.693-2.059-5.396-5.183-1.633-3.124-1.633-6.461 0-4.118 1.917-6.887a14.6 14.6 0 0 1 5.041-4.402 29.2 29.2 0 0 1 6.319-2.627q4.828-1.278 10.792-2.201a330 330 0 0 1 12.212-1.633q3.978-.452 7.581-.904-.018 1.731-.055 4.099-.072 4.403-.923 8.094-.995 5.75-4.331 10.366-3.338 4.544-8.804 7.171m132.405-67.166h18.406v8.946h-23.501v39.547q0 4.827.071 8.094.143 3.195 1.491 5.68 2.556 4.756 8.094 5.68 2.154.354 4.695.374 3.831-.034 8.51-.8v.102l.64-.102V251a51.6 51.6 0 0 1-10.862 1.113q-1.281.009-2.558-.048-6.248-.284-11.218-2.698-4.899-2.414-7.455-7.526-2.06-4.26-2.272-8.591a313 313 0 0 1-.142-10.011v-39.973H333.42v-8.946h16.401v-21.3h10.366v21.3zm431.447 78.809-.186.001q-11.218 0-19.454-4.97-8.165-4.97-12.709-13.987-4.544-9.018-4.544-21.158 0-12.567 4.473-21.726 4.473-9.16 12.567-14.129 8.165-4.97 19.241-4.97 11.36 0 19.383 5.254 8.024 5.183 12.141 14.91t3.763 23.217h-60.423q.603 12.398 6.463 19.596 6.603 7.952 18.673 7.952 8.236 0 14.342-3.763 6.177-3.834 9.727-11.005l5.241 2.027c-8.675 7.665-18.269 15.271-28.698 22.751m-25.54-46.291h49.281q-1.092-11.212-6.177-17.466-6.107-7.597-17.892-7.597-12.354 0-18.957 8.023-5.187 6.37-6.255 17.04M393.755 174.32V251h10.437v-38.269q0-4.545.639-9.159.639-4.686 2.556-8.804 1.917-4.19 5.751-7.171 4.19-3.409 9.159-3.976 4.971-.568 9.159.497v-9.798q-3.336-.853-7.384-.568-4.047.213-8.023 1.633-3.975 1.348-6.958 3.976-2.413 1.845-4.473 4.757-.804 1.11-1.491 2.308V174.32zm62.743 76.467q5.184 2.13 12.07 2.13 9.372 0 16.614-4.118 5.472-3.111 9.159-8.451V251h9.372v-76.68h-10.437v40.896q0 6.46-1.491 11.644-1.49 5.112-4.402 8.733-2.84 3.55-7.1 5.467-4.188 1.917-9.727 1.917-6.035 0-10.295-2.201-4.188-2.202-6.887-6.177-2.626-4.047-3.834-9.443-1.207-5.397-1.207-11.715V174.32h-10.508v42.174q0 5.182.994 10.437a41.5 41.5 0 0 0 3.195 9.869 30.4 30.4 0 0 0 5.751 8.236q3.621 3.621 8.733 5.751m73.592-2.84q8.023 5.183 19.596 5.183 11.431 0 19.667-5.325 8.236-5.397 12.496-15.62l-10.508-3.124q-2.84 6.887-8.378 10.508-5.467 3.55-13.277 3.55-12.354 0-18.602-8.307-6.247-8.379-6.39-22.152.07-8.946 2.769-15.833 2.697-6.888 8.236-10.721 5.538-3.906 13.987-3.905 7.525 0 13.348 3.834 5.893 3.762 8.591 10.65l10.224-3.266q-3.196-9.87-11.857-15.549-8.591-5.68-20.235-5.68-11.432 0-19.454 5.112-8.023 5.04-12.283 14.2-4.26 9.087-4.402 21.158.143 11.857 4.26 21.016 4.188 9.087 12.212 14.271m89.703 4.118q6.318.284 12.78-1.065v-9.159q-8.236 1.349-13.845.426-5.538-.924-8.094-5.68-1.35-2.485-1.491-5.68a379 379 0 0 1-.071-8.094v-39.547h23.501v-8.946h-23.501v-21.3h-10.366v21.3h-16.401v8.946h16.401v39.973q0 5.608.142 10.011.213 4.33 2.272 8.591 2.556 5.111 7.455 7.526 4.97 2.413 11.218 2.698m39.46-1.278q5.184 2.13 12.07 2.13 9.372 0 16.614-4.118 5.472-3.111 9.159-8.451V251h9.372v-76.68h-10.437v40.896q0 6.46-1.491 11.644-1.49 5.112-4.402 8.733-2.84 3.55-7.1 5.467-4.189 1.917-9.727 1.917-6.035 0-10.295-2.201-4.188-2.202-6.887-6.177-2.626-4.047-3.834-9.443-1.207-5.397-1.207-11.715V174.32H640.58v42.174q0 5.182.994 10.437a41.5 41.5 0 0 0 3.195 9.869 30.4 30.4 0 0 0 5.751 8.236q3.621 3.621 8.733 5.751m61.38.213h10.437v-38.269q0-4.545.639-9.159.639-4.686 2.556-8.804 1.917-4.19 5.751-7.171 4.188-3.409 9.159-3.976 4.97-.568 9.159.497v-9.798q-3.337-.853-7.384-.568-4.048.213-8.023 1.633-3.976 1.348-6.958 3.976-2.415 1.845-4.473 4.757-.806 1.11-1.491 2.308V174.32h-9.372z" clip-rule="evenodd"/></svg>