<svg xmlns="http://www.w3.org/2000/svg" width="349" height="117" fill="none" opt="1"><path fill="#fff" d="M7.843 102.545a6.8 6.8 0 0 1-1.87.154 4.1 4.1 0 0 1-1.65-.407 2.4 2.4 0 0 1-1.078-1.144 3.3 3.3 0 0 1-.33-1.265 29 29 0 0 1-.033-1.463V87.365h1.276v11.033q0 .748.011 1.243.022.485.231.891.396.759 1.254.924.858.154 2.189-.055zM.22 91.82v-1.155h7.623v1.155zm13.324 11.055q-1.375 0-2.288-.484-.901-.484-1.353-1.276a3.5 3.5 0 0 1-.45-1.738q0-1.013.417-1.694a3.3 3.3 0 0 1 1.133-1.1 5.8 5.8 0 0 1 1.573-.627 25 25 0 0 1 2.112-.374q1.133-.165 2.156-.286 1.034-.12 1.683-.21l-.462.276q.045-1.925-.726-2.86-.759-.945-2.684-.946-1.353 0-2.233.616-.87.605-1.22 1.88l-1.299-.362q.408-1.617 1.64-2.486 1.23-.87 3.156-.87 1.64 0 2.75.639 1.122.638 1.562 1.793.188.473.253 1.11.066.628.066 1.266v7.403h-1.155v-3.124l.43.11q-.54 1.607-1.882 2.475t-3.179.869m.066-1.166q1.21 0 2.123-.429.913-.44 1.474-1.221.573-.792.726-1.86.11-.593.121-1.286t.011-1.023l.55.352q-.714.088-1.716.187a54 54 0 0 0-2.024.242q-1.034.142-1.87.363a5.4 5.4 0 0 0-1.045.418 2.5 2.5 0 0 0-.869.737q-.34.473-.34 1.199 0 .54.263 1.078.275.538.902.891.627.352 1.694.352m8.797-13.442V86.65h1.265v1.617zm0 14.278v-11.88h1.265v11.88zm4.79 0v-16.17h1.265v16.17zm9.445.33q-1.771 0-3.004-.803-1.231-.803-1.88-2.222-.65-1.419-.65-3.267 0-1.86.66-3.267.66-1.42 1.892-2.2 1.244-.78 2.982-.781 1.77 0 3.002.803 1.244.792 1.882 2.2.648 1.408.648 3.245 0 1.881-.648 3.3-.65 1.408-1.893 2.2t-2.992.792m0-1.232q2.1 0 3.134-1.408 1.045-1.408 1.045-3.652 0-2.288-1.044-3.652t-3.136-1.364q-1.418 0-2.343.649-.924.638-1.386 1.77-.45 1.123-.45 2.597 0 2.288 1.055 3.674 1.068 1.386 3.124 1.386m7.953.902v-11.88h1.155v2.849l-.286-.374q.198-.507.495-.935.307-.44.627-.715a3.1 3.1 0 0 1 1.11-.66 4.4 4.4 0 0 1 1.288-.264 3.6 3.6 0 0 1 1.177.099v1.199a4.2 4.2 0 0 0-1.496-.066q-.792.099-1.485.682a3.14 3.14 0 0 0-.88 1.232q-.276.693-.352 1.463a15 15 0 0 0-.077 1.485v5.885zm12.328.33q-1.705 0-2.948-.759-1.242-.77-1.925-2.167-.681-1.408-.682-3.322 0-1.947.671-3.355.683-1.419 1.914-2.178 1.244-.76 2.948-.76 1.727 0 2.948.793 1.233.78 1.87 2.266.65 1.485.616 3.575h-1.32v-.44q-.054-2.442-1.1-3.718-1.044-1.275-2.992-1.276-2.013 0-3.113 1.33-1.089 1.321-1.089 3.74 0 2.4 1.09 3.719 1.1 1.32 3.09 1.32 1.375 0 2.398-.638 1.034-.65 1.64-1.848l1.143.506q-.715 1.54-2.068 2.376t-3.09.836m-4.686-5.907v-1.144h9.383v1.144zm17.097 5.907q-1.684 0-2.85-.825-1.155-.836-1.77-2.255-.606-1.43-.605-3.212 0-1.76.605-3.18.605-1.418 1.737-2.243 1.145-.825 2.762-.825 1.66 0 2.805.814 1.143.814 1.727 2.233.582 1.409.582 3.2 0 1.783-.582 3.202-.584 1.42-1.695 2.255-1.11.836-2.716.836m.076-1.21q1.332 0 2.212-.66.891-.67 1.32-1.815.44-1.156.44-2.607 0-1.462-.44-2.607-.441-1.144-1.32-1.782-.88-.65-2.19-.65-1.352 0-2.233.672-.879.66-1.308 1.804-.43 1.133-.43 2.563 0 1.44.44 2.596.452 1.144 1.32 1.815.88.67 2.19.671m3.972.88v-9.152h-.11v-6.688h1.264v15.84zm9.87 0V89.554q0-.462.044-.88.056-.418.21-.792.164-.374.462-.704.308-.33.681-.506.385-.175.814-.231a6 6 0 0 1 .903-.066h1.528v1.1h-1.419q-.978 0-1.474.473-.483.473-.484 1.562v13.035zM81.142 91.82v-1.155h6.753v1.155zm12.95 11.055q-1.77 0-3.003-.803t-1.881-2.222q-.65-1.419-.65-3.267 0-1.86.66-3.267.66-1.42 1.893-2.2 1.243-.78 2.98-.781 1.771 0 3.004.803 1.242.792 1.88 2.2.65 1.408.65 3.245 0 1.881-.65 3.3-.648 1.408-1.891 2.2t-2.992.792m0-1.232q2.1 0 3.135-1.408 1.044-1.408 1.045-3.652 0-2.288-1.045-3.652-1.046-1.364-3.135-1.364-1.419 0-2.343.649-.924.638-1.386 1.77-.45 1.123-.451 2.597 0 2.288 1.056 3.674 1.066 1.386 3.124 1.386m7.953.902v-11.88h1.155v2.849l-.286-.374q.198-.507.495-.935.307-.44.627-.715a3.1 3.1 0 0 1 1.111-.66 4.4 4.4 0 0 1 1.287-.264q.65-.044 1.177.099v1.199a4.2 4.2 0 0 0-1.496-.066q-.792.099-1.485.682a3.14 3.14 0 0 0-.88 1.232q-.275.693-.352 1.463a15 15 0 0 0-.077 1.485v5.885zm12.273 0v-15.84h1.265v15.84zm13.272 0v-6.182q0-1.122-.231-2.002-.22-.88-.682-1.496a2.9 2.9 0 0 0-1.144-.935q-.682-.32-1.617-.32-.969 0-1.683.342-.705.33-1.166.935a4.3 4.3 0 0 0-.682 1.44 7 7 0 0 0-.22 1.805l-1.001-.121q0-1.925.649-3.168.66-1.254 1.771-1.848 1.11-.605 2.497-.605.978 0 1.749.286.78.285 1.353.814a4.4 4.4 0 0 1 .946 1.232q.373.704.55 1.55.186.849.187 1.772v6.501zm-8.701 0v-11.88h1.155v2.673h.121v9.207zm17.215.308q-2.058 0-3.399-.869-1.332-.869-1.65-2.42l1.298-.22q.275 1.056 1.298 1.683t2.508.627q1.473 0 2.343-.627t.869-1.716q0-.594-.275-.968-.264-.385-1.056-.704-.792-.32-2.354-.748-1.65-.44-2.585-.88-.924-.44-1.309-1.001-.375-.56-.374-1.375 0-.98.561-1.716.56-.748 1.562-1.166 1.012-.418 2.332-.418t2.376.44q1.056.43 1.705 1.21a3.2 3.2 0 0 1 .748 1.793l-1.298.242a2.61 2.61 0 0 0-1.155-1.804q-.969-.671-2.42-.682-1.376-.022-2.244.55-.87.561-.869 1.485 0 .528.297.902.307.364 1.078.67.77.309 2.178.66 1.716.441 2.673.903.968.461 1.364 1.089.396.615.396 1.529 0 1.65-1.232 2.596-1.221.935-3.366.935m13.344-.308a6.8 6.8 0 0 1-1.87.154 4.1 4.1 0 0 1-1.65-.407 2.4 2.4 0 0 1-1.078-1.144 3.3 3.3 0 0 1-.33-1.265 29 29 0 0 1-.033-1.463V87.365h1.276v11.033q0 .748.011 1.243.021.485.231.891.396.759 1.254.924.857.154 2.189-.055zm-7.623-10.725v-1.155h7.623v1.155zm10.112-3.553V86.65h1.265v1.617zm0 14.278v-11.88h1.265v11.88zm10.874 0a6.8 6.8 0 0 1-1.87.154 4.1 4.1 0 0 1-1.65-.407 2.4 2.4 0 0 1-1.078-1.144 3.3 3.3 0 0 1-.33-1.265 29 29 0 0 1-.033-1.463V87.365h1.276v11.033q0 .748.011 1.243.021.485.231.891.396.759 1.254.924.857.154 2.189-.055zm-7.623-10.725v-1.155h7.623v1.155zm14.457 11q-.979 0-1.76-.286a4.1 4.1 0 0 1-1.342-.803 4.6 4.6 0 0 1-.946-1.232 6.3 6.3 0 0 1-.561-1.562 8.7 8.7 0 0 1-.176-1.771v-6.501h1.276v6.182q0 1.122.22 2.002.23.88.682 1.496a3 3 0 0 0 1.144.935q.693.32 1.628.319.968 0 1.672-.33a3.1 3.1 0 0 0 1.166-.946 4 4 0 0 0 .682-1.43 6.8 6.8 0 0 0 .231-1.815l1.001.12q0 1.926-.66 3.18-.649 1.243-1.76 1.848-1.111.594-2.497.594m4.037-.275v-2.673h-.121v-9.207h1.276v11.88zm10.527 0a6.8 6.8 0 0 1-1.87.154 4.1 4.1 0 0 1-1.65-.407 2.4 2.4 0 0 1-1.078-1.144 3.3 3.3 0 0 1-.33-1.265 29 29 0 0 1-.033-1.463V87.365h1.276v11.033q0 .748.011 1.243.023.485.231.891.396.759 1.254.924.858.154 2.189-.055zm-7.623-10.725v-1.155h7.623v1.155zm10.113-3.553V86.65h1.265v1.617zm0 14.278v-11.88h1.265v11.88zm9.444.33q-1.772 0-3.003-.803-1.233-.803-1.881-2.222-.65-1.419-.649-3.267 0-1.86.66-3.267.66-1.42 1.892-2.2 1.242-.78 2.981-.781 1.77 0 3.003.803 1.242.792 1.881 2.2.649 1.408.649 3.245 0 1.881-.649 3.3-.65 1.408-1.892 2.2-1.243.792-2.992.792m0-1.232q2.1 0 3.135-1.408 1.044-1.408 1.045-3.652 0-2.288-1.045-3.652t-3.135-1.364q-1.419 0-2.343.649-.924.638-1.386 1.77-.451 1.123-.451 2.597 0 2.288 1.056 3.674 1.066 1.386 3.124 1.386m16.654.902v-6.182q0-1.122-.231-2.002-.22-.88-.682-1.496a2.9 2.9 0 0 0-1.144-.935q-.683-.32-1.617-.32-.969 0-1.683.342-.705.33-1.166.935a4.3 4.3 0 0 0-.682 1.44 7 7 0 0 0-.22 1.805l-1.001-.121q0-1.925.649-3.168.66-1.254 1.771-1.848 1.11-.605 2.497-.605.978 0 1.749.286.78.285 1.353.814a4.4 4.4 0 0 1 .946 1.232q.373.704.55 1.55.186.849.187 1.772v6.501zm-8.701 0v-11.88h1.155v2.673h.121v9.207zm17.215.308q-2.056 0-3.399-.869-1.33-.869-1.65-2.42l1.298-.22q.275 1.056 1.298 1.683t2.508.627q1.475 0 2.343-.627.869-.627.869-1.716 0-.594-.275-.968-.264-.385-1.056-.704-.792-.32-2.354-.748-1.65-.44-2.585-.88-.924-.44-1.309-1.001-.374-.56-.374-1.375 0-.98.561-1.716.561-.748 1.562-1.166 1.012-.418 2.332-.418t2.376.44q1.056.43 1.705 1.21.65.769.748 1.793l-1.298.242a2.61 2.61 0 0 0-1.155-1.804q-.968-.671-2.42-.682-1.375-.022-2.244.55-.869.561-.869 1.485 0 .528.297.902.308.364 1.078.67.77.309 2.178.66 1.716.441 2.673.903.968.461 1.364 1.089.396.615.396 1.529 0 1.65-1.232 2.596-1.221.935-3.366.935"/><path stroke="#fff" stroke-opacity=".28" stroke-width="1.044" d="M347.563 23.533c1.98 6.277.701 13.26-3.412 20.554-4.114 7.296-11.042 14.86-20.267 22.245-18.449 14.77-45.998 28.76-78.276 38.445s-63.127 13.218-86.901 11.116c-11.888-1.051-21.98-3.508-29.592-7.289s-12.697-8.858-14.678-15.137c-1.98-6.277-.701-13.26 3.412-20.554 4.114-7.296 11.042-14.86 20.267-22.245 18.449-14.77 45.998-28.76 78.276-38.445S279.519-.995 303.293 1.107c11.888 1.05 21.98 3.508 29.592 7.289s12.697 8.858 14.678 15.137Z"/><path fill="#fff" fill-rule="evenodd" d="M129.994 58.16q-.951-1.373-3.03-2.4-2.211-1.091-6.084-2.08-3.303-.831-5.096-1.534-1.769-.702-2.444-1.482-.676-.805-.676-1.924 0-2.001 1.872-3.198 1.871-1.222 4.862-1.144 3.171.053 5.226 1.508 2.08 1.431 2.47 3.9l3.9-.702q-.287-2.443-1.82-4.29t-4.056-2.86q-2.496-1.04-5.668-1.04t-5.564 1.014q-2.393.99-3.744 2.808-1.352 1.794-1.352 4.186 0 1.977.91 3.354.91 1.354 3.068 2.392 2.157 1.04 5.98 2.08 3.561.962 5.356 1.664t2.366 1.534q.31.417.458.967 1.476-1.38 3.066-2.753m-8.988 8.86q-.402.025-.828.024-3.277 0-5.512-1.404-2.21-1.43-2.834-3.822l-3.9.65q.727 3.797 3.9 5.928 2.609 1.74 6.377 2.06a66 66 0 0 1 2.797-3.435M2 32.335v37.44h3.822v-37.44zm31.897 23.114v14.326h3.848V54.33q0-1.897-.364-3.796a14.7 14.7 0 0 0-1.17-3.614 10.7 10.7 0 0 0-2.132-3.042q-1.3-1.326-3.198-2.106-1.872-.78-4.394-.78-3.432 0-6.084 1.508a10.1 10.1 0 0 0-3.354 3.095v-3.9H13.59v28.08h3.848V54.797q0-2.391.546-4.264.546-1.872 1.586-3.172a7.1 7.1 0 0 1 2.6-2.028q1.56-.702 3.588-.702 2.21.001 3.744.806 1.56.806 2.522 2.288.987 1.457 1.43 3.432.441 1.95.442 4.29M47.274 44.97v24.804h3.822V44.97h7.67v-3.276h-7.67v-2.496q0-2.288 1.066-3.354 1.092-1.066 3.276-1.066h3.328v-3.224h-3.588q-1.066 0-2.184.13a7.5 7.5 0 0 0-2.106.572q-1.014.416-1.872 1.352a5.4 5.4 0 0 0-1.144 1.82 8.7 8.7 0 0 0-.494 2.028q-.105 1.066-.104 2.158v2.08h-4.862v3.276zm15.651-3.276v28.08h3.822V55.76q0-1.663.234-3.354.234-1.715.936-3.224.702-1.534 2.106-2.626 1.535-1.248 3.354-1.456 1.821-.208 3.354.182v-3.588q-1.221-.312-2.704-.208-1.482.079-2.938.598a7.4 7.4 0 0 0-2.548 1.456q-.883.677-1.638 1.742a9 9 0 0 0-.546.846v-4.434zM83.301 69.41q2.158 1.144 5.33 1.144 4.213 0 7.228-1.898a10.7 10.7 0 0 0 3.458-3.518v4.636h3.406V52.328a30 30 0 0 0-.156-3.068q-.156-1.508-.676-2.73-1.118-2.73-3.822-4.16-2.677-1.456-6.526-1.456-4.654 0-7.566 2.08t-3.874 5.85l3.718 1.092q.807-2.807 2.782-4.108 2.002-1.3 4.888-1.3 4.186 0 5.876 2.002 1.56 1.846 1.614 5.529-1.374.194-3.018.4-2.47.285-5.07.701a54 54 0 0 0-4.706.91q-2.106.546-3.718 1.586a7.8 7.8 0 0 0-2.522 2.678q-.91 1.612-.91 3.9a8.3 8.3 0 0 0 1.066 4.134q1.066 1.899 3.198 3.042m10.452-3.12q-2.002.962-4.68.962-2.262.001-3.64-.754-1.352-.753-1.976-1.898a5.05 5.05 0 0 1-.598-2.366q0-1.508.702-2.522a5.34 5.34 0 0 1 1.846-1.612 10.7 10.7 0 0 1 2.314-.962 39 39 0 0 1 3.952-.806q2.21-.337 4.472-.598 1.457-.165 2.776-.33-.006.633-.02 1.5a14.2 14.2 0 0 1-.338 2.964 9 9 0 0 1-1.586 3.796q-1.223 1.665-3.224 2.626m55.583-24.596h1.592v3.276h-8.606v14.482q0 1.77.026 2.964.053 1.17.546 2.08.468.87 1.208 1.391.347.244.755.41a4.7 4.7 0 0 0 1 .279q2.055.338 5.07-.156h.001v3.354q-2.365.495-4.68.39-2.288-.103-4.108-.988h-.001a6 6 0 0 1-1.201-.782 6.1 6.1 0 0 1-1.529-1.974q-.754-1.56-.832-3.146a117 117 0 0 1-.052-3.666V49.504h.001V44.97h-6.006v-3.276h6.006v-7.8h3.796v7.8h7.014m168.165 28.839q-.409.021-.827.021-4.109 0-7.124-1.82-2.99-1.82-4.654-5.122t-1.664-7.748q0-4.602 1.638-7.956t4.602-5.174q2.99-1.82 7.046-1.82 4.16 0 7.098 1.924 2.937 1.898 4.446 5.46 1.507 3.563 1.378 8.502h-22.127q.22 4.54 2.367 7.176 2.418 2.912 6.838 2.912 3.015 0 5.252-1.378 2.262-1.405 3.562-4.03l2.239.866c-3.045 2.752-6.411 5.488-10.07 8.187m-10.112-16.931h18.047q-.4-4.106-2.262-6.396-2.236-2.782-6.552-2.782-4.524 0-6.942 2.938-1.9 2.332-2.291 6.24M156.46 41.694v28.08h3.822V55.76q0-1.664.234-3.354.234-1.716.936-3.224.702-1.534 2.106-2.626 1.533-1.248 3.354-1.456 1.82-.208 3.354.182v-3.588q-1.222-.312-2.704-.208-1.483.078-2.938.598-1.456.495-2.548 1.456-.885.675-1.638 1.742a9 9 0 0 0-.546.845v-4.433zm25.056 28.002q1.898.78 4.42.78 3.432 0 6.084-1.508a10.1 10.1 0 0 0 3.354-3.094v3.9h3.432v-28.08h-3.822V56.67q0 2.366-.546 4.264-.546 1.872-1.612 3.198a6.9 6.9 0 0 1-2.6 2.002q-1.534.702-3.562.702-2.21 0-3.77-.806a6.9 6.9 0 0 1-2.522-2.262q-.962-1.481-1.404-3.458-.442-1.975-.442-4.29V41.694h-3.848v15.444q0 1.898.364 3.822.365 1.898 1.17 3.614a11.1 11.1 0 0 0 2.106 3.016q1.326 1.326 3.198 2.106m29.029-1.04q2.939 1.898 7.176 1.898 4.186 0 7.202-1.95 3.016-1.976 4.576-5.72l-3.848-1.144q-1.04 2.522-3.068 3.848-2.002 1.3-4.862 1.3-4.524 0-6.812-3.042-2.288-3.068-2.34-8.112.025-3.276 1.014-5.798.988-2.522 3.016-3.926 2.028-1.43 5.122-1.43 2.756 0 4.888 1.404 2.158 1.378 3.146 3.9l3.744-1.196q-1.17-3.614-4.342-5.694-3.145-2.08-7.41-2.08-4.186 0-7.124 1.872-2.938 1.846-4.498 5.2-1.56 3.328-1.612 7.748.053 4.342 1.56 7.696 1.534 3.328 4.472 5.226m34.929 1.508q2.315.105 4.68-.39V66.42q-3.017.494-5.07.156-2.028-.338-2.964-2.08-.493-.91-.546-2.08-.026-1.195-.026-2.964V44.97h8.606v-3.276h-8.606v-7.8h-3.796v7.8h-6.006v3.276h6.006v14.638q0 2.054.052 3.666.078 1.586.832 3.146.936 1.872 2.73 2.756 1.82.885 4.108.988m16.53-.468q1.899.78 4.42.78 3.432 0 6.084-1.508a10.1 10.1 0 0 0 3.354-3.094v3.9h3.432v-28.08h-3.822V56.67q0 2.366-.546 4.264-.546 1.872-1.612 3.198a6.9 6.9 0 0 1-2.6 2.002q-1.533.702-3.562.702-2.21 0-3.77-.806a6.9 6.9 0 0 1-2.522-2.262q-.962-1.481-1.404-3.458-.442-1.975-.442-4.29V41.694h-3.848v15.444q0 1.898.364 3.822.364 1.898 1.17 3.614a11.1 11.1 0 0 0 2.106 3.016q1.326 1.326 3.198 2.106m24.557-28.002v28.08h3.822V55.76q0-1.664.234-3.354.234-1.716.936-3.224.702-1.534 2.106-2.626 1.535-1.248 3.354-1.456 1.821-.208 3.354.182v-3.588q-1.222-.312-2.704-.208-1.482.078-2.938.598-1.456.495-2.548 1.456-.884.675-1.638 1.742a10 10 0 0 0-.546.845v-4.433z" clip-rule="evenodd"/></svg>