<svg xmlns="http://www.w3.org/2000/svg" width="976" height="312" fill="none" opt="1"><path fill="#fff" d="M786.72 128a14.4 14.4 0 0 1-3.6.3q-1.76-.08-3.16-.76-1.38-.68-2.1-2.12-.58-1.2-.64-2.42a88 88 0 0 1-.04-2.82V100.4h2.92v19.66q0 1.36.02 2.28.04.9.42 1.6.72 1.34 2.28 1.6 1.58.26 3.9-.12zm-14.16-19.08v-2.52h14.16v2.52zm23.596 19.68q-2.44 0-4.1-.88-1.641-.88-2.46-2.34a6.4 6.4 0 0 1-.82-3.18q0-1.76.7-3a6 6 0 0 1 1.94-2.06q1.24-.8 2.86-1.22 1.64-.4 3.62-.7a92 92 0 0 1 3.9-.54q1.92-.24 3.36-.46l-1.04.64q.06-3.2-1.24-4.74t-4.52-1.54q-2.22 0-3.76 1-1.52 1-2.14 3.16l-2.86-.84q.74-2.9 2.98-4.5t5.82-1.6q2.96 0 5.02 1.12 2.079 1.1 2.94 3.2.4.94.52 2.1t.12 2.36V128h-2.62v-5.42l.76.32q-1.101 2.78-3.42 4.24t-5.56 1.46m.34-2.54q2.06 0 3.6-.74t2.48-2.02a6.94 6.94 0 0 0 1.22-2.92q.24-1.04.26-2.28.02-1.26.02-1.88l1.12.58q-1.5.2-3.26.4-1.74.2-3.44.46a30 30 0 0 0-3.04.62 8.2 8.2 0 0 0-1.78.74 4.1 4.1 0 0 0-1.42 1.24q-.54.78-.54 1.94 0 .94.46 1.82.48.88 1.52 1.46 1.06.58 2.8.58m15.106-23.76V99h2.94v3.3zm0 25.7v-21.6h2.94V128zm8.336 0V98.6h2.94V128zm16.956.6q-3.22 0-5.5-1.46t-3.5-4.04-1.22-5.92q0-3.4 1.24-5.96t3.52-3.98q2.301-1.44 5.46-1.44 3.24 0 5.52 1.46 2.3 1.44 3.5 4.02 1.22 2.56 1.22 5.9 0 3.4-1.22 5.98-1.22 2.56-3.52 4t-5.5 1.44m0-2.82q3.6 0 5.36-2.38 1.76-2.4 1.76-6.22 0-3.92-1.78-6.24-1.76-2.32-5.34-2.32-2.42 0-4 1.1-1.56 1.08-2.34 3.02-.76 1.92-.76 4.44 0 3.9 1.8 6.26 1.8 2.34 5.3 2.34m13.652 2.22v-21.6h2.64v5.2l-.52-.68q.36-.96.94-1.76a6.1 6.1 0 0 1 1.26-1.34 5.7 5.7 0 0 1 1.96-1.12 8 8 0 0 1 2.26-.46q1.14-.08 2.08.16v2.76q-1.18-.3-2.58-.14t-2.58 1.12a5.36 5.36 0 0 0-1.62 2.02q-.54 1.16-.72 2.48a19 19 0 0 0-.18 2.58V128zm22.164.6q-3.16 0-5.48-1.4-2.3-1.4-3.58-3.94t-1.28-5.96q0-3.54 1.26-6.12t3.54-3.98q2.3-1.4 5.42-1.4 3.2 0 5.46 1.48 2.259 1.46 3.42 4.2 1.16 2.74 1.06 6.54h-3v-1.04q-.08-4.2-1.82-6.34-1.72-2.14-5.04-2.14-3.48 0-5.34 2.26-1.84 2.26-1.84 6.44 0 4.08 1.84 6.34 1.86 2.24 5.26 2.24 2.32 0 4.04-1.06 1.74-1.08 2.74-3.1l2.74 1.06q-1.281 2.82-3.78 4.38-2.48 1.54-5.62 1.54m-8.26-10.58v-2.46h16.5v2.46zm29.898 10.58q-3.02 0-5.16-1.5-2.14-1.52-3.28-4.1t-1.14-5.82q0-3.22 1.12-5.8 1.14-2.58 3.26-4.08t5.08-1.5q3.04 0 5.12 1.48t3.14 4.06q1.08 2.56 1.08 5.84 0 3.22-1.06 5.82-1.06 2.58-3.12 4.1-2.06 1.5-5.04 1.5m.3-2.74q2.3 0 3.8-1.12t2.24-3.08q.74-1.98.74-4.48 0-2.54-.74-4.48-.74-1.96-2.24-3.06-1.48-1.1-3.74-1.1-2.32 0-3.84 1.14t-2.26 3.1q-.72 1.96-.72 4.4 0 2.46.74 4.44.76 1.96 2.26 3.1t3.76 1.14m6.78 2.14v-16.26h-.32V99.2h2.96V128zm16.399 0v-23.2q0-.84.08-1.66a6.6 6.6 0 0 1 .38-1.56q.28-.76.88-1.4.66-.72 1.44-1.04a5.7 5.7 0 0 1 1.62-.44q.86-.1 1.68-.1h2.76v2.48h-2.56q-1.68 0-2.52.82-.82.82-.82 2.58V128zm-3.74-19.08v-2.52h12.58v2.52zm23.018 19.68q-3.22 0-5.5-1.46t-3.5-4.04-1.22-5.92q0-3.4 1.24-5.96t3.52-3.98q2.3-1.44 5.46-1.44 3.24 0 5.52 1.46 2.3 1.44 3.5 4.02 1.22 2.56 1.22 5.9 0 3.4-1.22 5.98-1.22 2.56-3.52 4t-5.5 1.44m0-2.82q3.6 0 5.36-2.38 1.76-2.4 1.76-6.22 0-3.92-1.78-6.24-1.76-2.32-5.34-2.32-2.42 0-4 1.1-1.56 1.08-2.34 3.02-.76 1.92-.76 4.44 0 3.9 1.8 6.26 1.8 2.34 5.3 2.34m13.652 2.22v-21.6h2.64v5.2l-.52-.68q.36-.96.94-1.76a6.1 6.1 0 0 1 1.26-1.34 5.7 5.7 0 0 1 1.96-1.12 8 8 0 0 1 2.26-.46q1.14-.08 2.08.16v2.76q-1.18-.3-2.58-.14t-2.58 1.12a5.36 5.36 0 0 0-1.62 2.02q-.54 1.16-.72 2.48a19 19 0 0 0-.18 2.58V128zM775.36 170v-28.8h2.94V170zm23.536 0v-11.02q0-1.8-.34-3.3-.34-1.52-1.1-2.64a5 5 0 0 0-1.94-1.76q-1.18-.62-2.88-.62-1.56 0-2.76.54-1.18.54-2 1.56-.8 1-1.22 2.44t-.42 3.28l-2.08-.46q0-3.32 1.16-5.58t3.2-3.42 4.68-1.16q1.94 0 3.38.6 1.46.6 2.46 1.62 1.02 1.02 1.64 2.34.62 1.3.9 2.78.28 1.46.28 2.92V170zm-15.62 0v-21.6h2.66v5.32h.3V170zm30.83.58q-3.8 0-6.26-1.64-2.44-1.64-3-4.56l3-.5q.48 1.84 2.18 2.94 1.72 1.08 4.24 1.08 2.46 0 3.88-1.02 1.42-1.04 1.42-2.82 0-1-.46-1.62-.44-.64-1.82-1.18t-4.12-1.28q-2.94-.8-4.6-1.6t-2.36-1.84q-.7-1.06-.7-2.58 0-1.84 1.04-3.22 1.04-1.4 2.88-2.16 1.84-.78 4.28-.78t4.36.8q1.94.78 3.12 2.2a6.18 6.18 0 0 1 1.4 3.3l-3 .54q-.3-1.9-1.9-3-1.58-1.12-4.02-1.16-2.3-.06-3.74.88-1.44.92-1.44 2.46 0 .86.52 1.48.52.6 1.88 1.14 1.38.54 3.92 1.18 2.98.76 4.68 1.6t2.42 1.98.72 2.82q0 3.06-2.28 4.82-2.26 1.74-6.24 1.74m23.716-.58a14.4 14.4 0 0 1-3.6.3q-1.76-.08-3.16-.76-1.38-.68-2.1-2.12-.58-1.2-.64-2.42a88 88 0 0 1-.04-2.82V142.4h2.92v19.66q0 1.36.02 2.28.039.9.42 1.6.72 1.34 2.28 1.6 1.58.26 3.9-.12zm-14.16-19.08v-2.52h14.16v2.52zm17.815-6.62V141h2.94v3.3zm0 25.7v-21.6h2.94V170zm19.696 0a14.4 14.4 0 0 1-3.6.3q-1.76-.08-3.16-.76-1.38-.68-2.1-2.12-.58-1.2-.64-2.42a91 91 0 0 1-.04-2.82V142.4h2.92v19.66q0 1.36.02 2.28.04.9.42 1.6.72 1.34 2.28 1.6 1.581.26 3.9-.12zm-14.16-19.08v-2.52h14.16v2.52zm25.676 19.62q-1.94 0-3.4-.6-1.44-.6-2.46-1.62a8.5 8.5 0 0 1-1.62-2.32 11.7 11.7 0 0 1-.9-2.78 15.8 15.8 0 0 1-.28-2.94V148.4h2.96v11.02q0 1.78.34 3.3t1.08 2.66a5.3 5.3 0 0 0 1.94 1.74q1.2.62 2.9.62 1.56 0 2.74-.54 1.2-.54 2-1.54.82-1.02 1.24-2.46.42-1.46.42-3.28l2.08.46q0 3.32-1.16 5.58t-3.2 3.42-4.68 1.16m7.26-.54v-5.32h-.3V148.4h2.94V170zm18.99 0a14.4 14.4 0 0 1-3.6.3q-1.76-.08-3.16-.76-1.38-.68-2.1-2.12-.58-1.2-.64-2.42a88 88 0 0 1-.04-2.82V142.4h2.92v19.66q0 1.36.02 2.28.04.9.42 1.6.72 1.34 2.28 1.6 1.58.26 3.9-.12zm-14.16-19.08v-2.52h14.16v2.52zm17.816-6.62V141h2.94v3.3zm0 25.7v-21.6h2.94V170zm16.955.6q-3.22 0-5.5-1.46t-3.5-4.04-1.22-5.92q0-3.4 1.24-5.96t3.52-3.98q2.301-1.44 5.46-1.44 3.24 0 5.52 1.46 2.3 1.44 3.5 4.02 1.22 2.56 1.22 5.9 0 3.4-1.22 5.98-1.22 2.56-3.52 4t-5.5 1.44m0-2.82q3.6 0 5.36-2.38 1.76-2.4 1.76-6.22 0-3.92-1.78-6.24-1.76-2.32-5.34-2.32-2.42 0-4 1.1-1.56 1.08-2.34 3.02-.76 1.92-.76 4.44 0 3.9 1.8 6.26 1.8 2.34 5.3 2.34m29.252 2.22v-11.02q0-1.8-.34-3.3-.34-1.52-1.1-2.64a5 5 0 0 0-1.94-1.76q-1.179-.62-2.88-.62-1.56 0-2.76.54-1.18.54-2 1.56-.8 1-1.22 2.44t-.42 3.28l-2.08-.46q0-3.32 1.16-5.58t3.2-3.42 4.68-1.16q1.94 0 3.38.6 1.461.6 2.46 1.62 1.02 1.02 1.64 2.34.621 1.3.9 2.78.28 1.46.28 2.92V170zm-15.62 0v-21.6h2.66v5.32h.3V170zm30.83.58q-3.8 0-6.26-1.64-2.439-1.64-3-4.56l3-.5q.48 1.84 2.18 2.94 1.72 1.08 4.24 1.08 2.46 0 3.88-1.02 1.42-1.04 1.42-2.82 0-1-.46-1.62-.44-.64-1.82-1.18t-4.12-1.28q-2.94-.8-4.6-1.6t-2.36-1.84q-.7-1.06-.7-2.58 0-1.84 1.04-3.22 1.041-1.4 2.88-2.16 1.84-.78 4.28-.78t4.36.8q1.941.78 3.12 2.2a6.17 6.17 0 0 1 1.4 3.3l-3 .54q-.3-1.9-1.9-3-1.58-1.12-4.02-1.16-2.3-.06-3.74.88-1.44.92-1.44 2.46 0 .86.52 1.48.52.6 1.88 1.14 1.38.54 3.92 1.18 2.98.76 4.68 1.6t2.42 1.98.72 2.82q0 3.06-2.28 4.82-2.259 1.74-6.24 1.74"/><path stroke="#fff" stroke-opacity=".28" d="M743.767 87.738c3.081 11.848-1.182 25.09-11.709 38.938-10.522 13.842-27.251 28.216-48.93 42.281-43.353 28.126-106.406 54.953-178.88 73.797-72.475 18.843-140.609 26.124-192.172 22.676-25.784-1.724-47.395-6.13-63.327-13.094-15.939-6.967-26.112-16.455-29.192-28.304s1.182-25.09 11.709-38.938c10.522-13.842 27.251-28.216 48.93-42.28 43.353-28.127 106.406-54.954 178.88-73.797 72.475-18.844 140.609-26.125 192.172-22.677 25.784 1.724 47.395 6.13 63.327 13.094 15.939 6.967 26.112 16.455 29.192 28.304Z"/><path fill="#fff" fill-rule="evenodd" d="M278.309 145.262a13 13 0 0 0-.39-.662q-2.16-3.42-7.26-5.94t-14.04-4.8q-7.62-1.92-11.76-3.54-4.08-1.62-5.64-3.42-1.56-1.86-1.56-4.44 0-4.62 4.32-7.38 4.32-2.82 11.22-2.64 7.32.12 12.06 3.48 4.8 3.3 5.7 9l9-1.62q-.66-5.64-4.2-9.9t-9.36-6.6q-5.76-2.4-13.08-2.4t-12.84 2.34q-5.52 2.28-8.64 6.48-3.12 4.14-3.12 9.66 0 4.56 2.1 7.74 2.1 3.12 7.08 5.52t13.8 4.8q8.22 2.22 12.36 3.84t5.46 3.54a6.6 6.6 0 0 1 1.048 2.189 314 314 0 0 1 7.742-5.247m-26.074 19.323q-5.768-.495-9.956-3.125-5.1-3.3-6.54-8.82l-9 1.5q1.68 8.76 9 13.68 3.814 2.543 8.701 3.771a184 184 0 0 1 7.795-7.006M.281 84.6V171h8.82V84.6zm70.008 53.34V171h8.88v-35.64q0-4.38-.84-8.76-.84-4.44-2.7-8.34a24.7 24.7 0 0 0-4.92-7.02q-3-3.06-7.38-4.86-4.32-1.8-10.14-1.8-7.92 0-14.04 3.48-4.623 2.63-7.74 7.141V106.2h-7.98V171h8.88v-34.56q0-5.52 1.26-9.84t3.66-7.32q2.46-3.06 6-4.68 3.6-1.62 8.28-1.62 5.1 0 8.64 1.86 3.6 1.86 5.82 5.28 2.28 3.36 3.3 7.92 1.02 4.5 1.02 9.9m27.27-24.18V171h8.82v-57.24h17.7v-7.56h-17.7v-5.76q0-5.28 2.46-7.74 2.52-2.46 7.56-2.46h7.68V82.8h-8.28q-2.46 0-5.04.3-2.52.3-4.86 1.32-2.34.96-4.32 3.12-1.8 1.92-2.64 4.2-.84 2.22-1.14 4.68-.24 2.46-.24 4.98v4.8H86.34v7.56zm32.519-7.56V171h8.82v-32.34q0-3.84.54-7.74.54-3.96 2.16-7.44 1.62-3.54 4.86-6.06 3.54-2.88 7.74-3.36t7.74.42v-8.28q-2.82-.72-6.24-.48-3.42.18-6.78 1.38-3.36 1.14-5.88 3.36-2.04 1.56-3.78 4.02a22 22 0 0 0-1.26 1.951V106.2zm43.421 63.96q4.98 2.64 12.3 2.64 9.72 0 16.68-4.38 4.896-3.081 7.98-8.12V171h7.86v-40.26q0-3.6-.36-7.08t-1.56-6.3q-2.58-6.3-8.82-9.6-6.18-3.36-15.06-3.36-10.74 0-17.46 4.8t-8.94 13.5l8.58 2.52q1.86-6.48 6.42-9.48 4.62-3 11.28-3 9.66 0 13.56 4.62 3.597 4.261 3.724 12.758a397 397 0 0 1-5.34.717l-1.624.205q-5.7.66-11.7 1.62-5.94.9-10.86 2.1-4.86 1.26-8.58 3.66-3.66 2.4-5.82 6.18-2.1 3.72-2.1 9 0 5.16 2.46 9.54t7.38 7.02m24.12-7.2q-4.62 2.22-10.8 2.22-5.22 0-8.4-1.74-3.12-1.74-4.56-4.38-1.38-2.64-1.38-5.46 0-3.48 1.62-5.82 1.68-2.34 4.26-3.72 2.58-1.44 5.34-2.22 4.08-1.08 9.12-1.86 5.1-.78 10.32-1.38a603 603 0 0 0 6.407-.764q-.014 1.464-.047 3.464-.06 3.72-.78 6.84-.84 4.86-3.66 8.76-2.82 3.84-7.44 6.06m128.22 8.041q-5.46 1.14-10.8.9-5.28-.24-9.48-2.28a14 14 0 0 1-1.568-.902q-3.222-2.02-5.041-5.658-1.74-3.6-1.92-7.26-.12-3.72-.12-8.46v-15.32l.309-.178v-18.082h-13.86v-7.56h13.86v-18h8.76v18h19.86v7.56h-19.86v33.42q0 4.08.06 6.84.12 2.7 1.26 4.8 1.117 2.078 2.908 3.29 1.568.968 3.623 1.31 4.74.78 11.7-.36v.25l.309-.05zm15.578-54.77v-6.847a590 590 0 0 0-7.92 3.646v57.771h8.82v-32.34q0-3.84.54-7.74.54-3.96 2.16-7.44 1.62-3.54 4.86-6.06 3.54-2.88 7.74-3.36t7.74.42v-8.28q-2.82-.72-6.24-.48-3.42.18-6.78 1.38-3.36 1.14-5.88 3.36-2.04 1.56-3.78 4.02a22 22 0 0 0-1.26 1.95m360.44 40.186c-6.977 5.335-14.705 10.659-23.114 15.928a36 36 0 0 1-4.321.256q-9.48 0-16.44-4.2-6.9-4.2-10.74-11.82t-3.84-17.88q0-10.62 3.78-18.36t10.62-11.94q6.9-4.2 16.26-4.2 9.6 0 16.38 4.44 6.78 4.38 10.26 12.6t3.18 19.62H652.82q.51 10.478 5.462 16.56 5.58 6.72 15.78 6.72 6.96 0 12.12-3.18 5.22-3.24 8.22-9.3l8.22 3.18a34 34 0 0 1-.765 1.576m-315.338 14.204q4.38 1.8 10.2 1.8 7.92 0 14.04-3.48 4.624-2.63 7.74-7.141v9.001h7.92v-64.8h-8.82v34.56q0 5.46-1.26 9.84-1.26 4.32-3.72 7.38-2.4 3-6 4.62-3.54 1.62-8.22 1.62-5.1 0-8.7-1.86-3.54-1.86-5.82-5.22-2.22-3.42-3.24-7.98t-1.02-9.9v-33.06h-8.88v35.64q0 4.38.84 8.82.84 4.38 2.7 8.34a25.6 25.6 0 0 0 4.86 6.96q3.06 3.06 7.38 4.86m62.19-2.4q6.78 4.38 16.56 4.38 9.66 0 16.62-4.5 6.96-4.56 10.56-13.2l-8.88-2.64q-2.4 5.82-7.08 8.88-4.62 3-11.22 3-10.44 0-15.72-7.02-5.28-7.08-5.4-18.72.06-7.56 2.34-13.38t6.96-9.06q4.68-3.3 11.82-3.3 6.36 0 11.28 3.24 4.98 3.18 7.26 9l8.64-2.76q-2.7-8.34-10.02-13.14-7.26-4.8-17.1-4.8-9.66 0-16.44 4.32-6.78 4.26-10.38 12-3.6 7.68-3.72 17.88.12 10.02 3.6 17.76 3.54 7.68 10.32 12.06m75.806 3.48q5.34.24 10.8-.9v-7.74q-6.96 1.14-11.7.36-4.68-.78-6.84-4.8-1.14-2.1-1.26-4.8a240 240 0 0 1-.046-3.224q-.014-1.656-.014-3.616v-33.42h19.86v-7.56h-19.86v-18h-8.76v18h-13.86v7.56h13.86v33.78q0 4.74.12 8.46.18 3.66 1.92 7.26 2.16 4.32 6.3 6.36 4.2 2.04 9.48 2.28m33.347-1.08q4.378 1.8 10.2 1.8 7.92 0 14.04-3.48 4.623-2.63 7.74-7.141v9.001h7.919v-64.8h-8.82v34.56q0 5.46-1.26 9.84-1.259 4.32-3.72 7.38-2.399 3-6 4.62-3.539 1.62-8.22 1.62-5.1 0-8.699-1.86-3.541-1.86-5.821-5.22-2.22-3.42-3.24-7.98t-1.02-9.9v-33.06h-8.879v35.64q0 4.38.839 8.82.84 4.38 2.701 8.34 1.86 3.9 4.859 6.96 3.06 3.06 7.381 4.86m59.79-64.62h-7.921v64.8h8.821v-32.34q0-3.84.54-7.74a25.8 25.8 0 0 1 2.159-7.44q1.62-3.54 4.861-6.06 3.54-2.88 7.74-3.36t7.74.42v-8.28q-2.82-.72-6.24-.48-3.42.18-6.78 1.38-3.36 1.14-5.881 3.36-2.039 1.56-3.779 4.02a22 22 0 0 0-1.26 1.95zm76.99 27.48q-.923-9.475-5.22-14.76-5.16-6.42-15.12-6.42-10.44 0-16.02 6.78-4.383 5.383-5.286 14.4z" clip-rule="evenodd"/></svg>