<svg xmlns="http://www.w3.org/2000/svg" width="482" height="173" fill="none" opt="1"><path fill="#fff" d="M7.843 126a6.8 6.8 0 0 1-1.87.154 4.1 4.1 0 0 1-1.65-.407 2.4 2.4 0 0 1-1.078-1.144 3.3 3.3 0 0 1-.33-1.265 29 29 0 0 1-.033-1.463V110.82h1.276v11.033q0 .748.011 1.243.022.484.231.891.396.759 1.254.924.858.154 2.189-.055zM.22 115.275v-1.155h7.623v1.155zm13.324 11.055q-1.375 0-2.288-.484-.901-.484-1.353-1.276a3.5 3.5 0 0 1-.45-1.738q0-1.012.417-1.694a3.3 3.3 0 0 1 1.133-1.1 5.8 5.8 0 0 1 1.573-.627 25 25 0 0 1 2.112-.374q1.133-.165 2.156-.286 1.034-.121 1.683-.209l-.462.275q.045-1.925-.726-2.86-.759-.946-2.684-.946-1.353 0-2.233.616-.87.605-1.22 1.881l-1.299-.363q.408-1.617 1.64-2.486 1.23-.869 3.156-.869 1.64 0 2.75.638 1.122.638 1.562 1.793.188.473.253 1.111.066.627.066 1.265V126h-1.155v-3.124l.43.11q-.54 1.606-1.882 2.475t-3.179.869m.066-1.166q1.21 0 2.123-.429.913-.44 1.474-1.221.573-.792.726-1.859.11-.594.121-1.287t.011-1.023l.55.352a72 72 0 0 1-1.716.187q-.99.1-2.024.242t-1.87.363a5.4 5.4 0 0 0-1.045.418 2.5 2.5 0 0 0-.869.737q-.34.473-.34 1.199 0 .539.263 1.078.275.539.902.891t1.694.352m8.797-13.442v-1.617h1.265v1.617zm0 14.278v-11.88h1.265V126zm4.79 0v-16.17h1.265V126zm9.445.33q-1.771 0-3.004-.803-1.231-.803-1.88-2.222-.65-1.419-.65-3.267 0-1.859.66-3.267.66-1.419 1.892-2.2 1.244-.781 2.982-.781 1.77 0 3.002.803 1.244.792 1.882 2.2.648 1.408.648 3.245 0 1.881-.648 3.3-.65 1.408-1.893 2.2t-2.992.792m0-1.232q2.1 0 3.134-1.408 1.045-1.408 1.045-3.652 0-2.288-1.044-3.652t-3.136-1.364q-1.418 0-2.343.649-.924.638-1.386 1.771-.45 1.122-.45 2.596 0 2.288 1.055 3.674 1.068 1.386 3.124 1.386m7.953.902v-11.88h1.155v2.849l-.286-.374q.198-.506.495-.935a3.9 3.9 0 0 1 .627-.715 3.1 3.1 0 0 1 1.11-.66 4.4 4.4 0 0 1 1.288-.264q.649-.043 1.177.099v1.199a4.2 4.2 0 0 0-1.496-.066q-.792.099-1.485.682a3.14 3.14 0 0 0-.88 1.232q-.276.693-.352 1.463a15 15 0 0 0-.077 1.485V126zm12.328.33q-1.705 0-2.948-.759-1.242-.77-1.925-2.167-.681-1.408-.682-3.322 0-1.947.671-3.355.683-1.419 1.914-2.178 1.244-.759 2.948-.759 1.727 0 2.948.792 1.233.781 1.87 2.266.65 1.485.616 3.575h-1.32v-.44q-.054-2.442-1.1-3.718-1.044-1.276-2.992-1.276-2.013 0-3.113 1.331-1.089 1.32-1.089 3.74 0 2.398 1.09 3.718 1.1 1.32 3.09 1.32 1.375 0 2.398-.638 1.034-.65 1.64-1.848l1.143.506q-.715 1.54-2.068 2.376t-3.09.836m-4.686-5.907v-1.144h9.383v1.144zm17.097 5.907q-1.684 0-2.85-.825-1.155-.836-1.77-2.255-.606-1.43-.605-3.212 0-1.76.605-3.179t1.737-2.244q1.145-.825 2.762-.825 1.66 0 2.805.814 1.143.814 1.727 2.233.582 1.408.582 3.201 0 1.782-.582 3.201-.584 1.42-1.695 2.255-1.11.836-2.716.836m.076-1.21q1.332 0 2.212-.66.891-.67 1.32-1.815.44-1.155.44-2.607 0-1.462-.44-2.607-.441-1.145-1.32-1.782-.88-.65-2.19-.649-1.352 0-2.233.671-.879.66-1.308 1.804-.43 1.133-.43 2.563 0 1.441.44 2.596.452 1.144 1.32 1.815.88.67 2.19.671m3.972.88v-9.152h-.11v-6.688h1.264V126zm9.87 0v-12.991a8 8 0 0 1 .044-.88q.056-.419.21-.792.164-.374.462-.704.308-.33.681-.506.385-.176.814-.231a6 6 0 0 1 .903-.066h1.528v1.1h-1.419q-.978 0-1.474.473-.483.473-.484 1.562V126zm-2.111-10.725v-1.155h6.753v1.155zm12.95 11.055q-1.77 0-3.003-.803t-1.881-2.222q-.65-1.419-.65-3.267 0-1.859.66-3.267.66-1.419 1.893-2.2 1.243-.781 2.98-.781 1.771 0 3.004.803 1.242.792 1.88 2.2.65 1.408.65 3.245 0 1.881-.65 3.3-.648 1.408-1.891 2.2t-2.992.792m0-1.232q2.1 0 3.135-1.408 1.044-1.408 1.045-3.652 0-2.288-1.045-3.652-1.046-1.364-3.135-1.364-1.419 0-2.343.649-.924.638-1.386 1.771-.45 1.122-.451 2.596 0 2.288 1.056 3.674 1.066 1.386 3.124 1.386m7.953.902v-11.88h1.155v2.849l-.286-.374q.198-.506.495-.935.307-.44.627-.715a3.1 3.1 0 0 1 1.111-.66 4.4 4.4 0 0 1 1.287-.264q.65-.043 1.177.099v1.199a4.2 4.2 0 0 0-1.496-.066q-.792.099-1.485.682a3.14 3.14 0 0 0-.88 1.232q-.275.693-.352 1.463a15 15 0 0 0-.077 1.485V126zm12.273 0v-15.84h1.265V126zm13.272 0v-6.182q0-1.122-.231-2.002-.22-.88-.682-1.496a2.9 2.9 0 0 0-1.144-.935q-.682-.32-1.617-.319-.969 0-1.683.341-.705.33-1.166.935a4.3 4.3 0 0 0-.682 1.441 7 7 0 0 0-.22 1.804l-1.001-.121q0-1.925.649-3.168.66-1.254 1.771-1.848 1.11-.605 2.497-.605.978 0 1.749.286.78.286 1.353.814.571.517.946 1.232.373.703.55 1.551.186.847.187 1.771V126zm-8.701 0v-11.88h1.155v2.673h.121V126zm17.215.308q-2.058 0-3.399-.869-1.332-.869-1.65-2.42l1.298-.22q.275 1.056 1.298 1.683t2.508.627q1.473 0 2.343-.627t.869-1.716q0-.594-.275-.968-.264-.385-1.056-.704-.792-.32-2.354-.748-1.65-.44-2.585-.88-.924-.44-1.309-1.001-.375-.56-.374-1.375 0-.98.561-1.716.56-.748 1.562-1.166 1.012-.418 2.332-.418t2.376.44q1.056.429 1.705 1.21.648.77.748 1.793l-1.298.242a2.61 2.61 0 0 0-1.155-1.804q-.969-.671-2.42-.682-1.376-.022-2.244.55-.87.561-.869 1.485 0 .528.297.902.307.363 1.078.671.77.307 2.178.66 1.716.44 2.673.902.968.462 1.364 1.089.396.616.396 1.529 0 1.65-1.232 2.596-1.221.935-3.366.935m13.344-.308a6.8 6.8 0 0 1-1.87.154 4.1 4.1 0 0 1-1.65-.407 2.4 2.4 0 0 1-1.078-1.144 3.3 3.3 0 0 1-.33-1.265 29 29 0 0 1-.033-1.463V110.82h1.276v11.033q0 .748.011 1.243.021.484.231.891.396.759 1.254.924.857.154 2.189-.055zm-7.623-10.725v-1.155h7.623v1.155zm10.112-3.553v-1.617h1.265v1.617zm0 14.278v-11.88h1.265V126zm10.874 0a6.8 6.8 0 0 1-1.87.154 4.1 4.1 0 0 1-1.65-.407 2.4 2.4 0 0 1-1.078-1.144 3.3 3.3 0 0 1-.33-1.265 29 29 0 0 1-.033-1.463V110.82h1.276v11.033q0 .748.011 1.243.021.484.231.891.396.759 1.254.924.857.154 2.189-.055zm-7.623-10.725v-1.155h7.623v1.155zm14.457 11q-.979 0-1.76-.286a4.1 4.1 0 0 1-1.342-.803 4.6 4.6 0 0 1-.946-1.232 6.3 6.3 0 0 1-.561-1.562 8.7 8.7 0 0 1-.176-1.771v-6.501h1.276v6.182q0 1.122.22 2.002.23.88.682 1.496a3 3 0 0 0 1.144.935q.693.32 1.628.319.968 0 1.672-.33a3.1 3.1 0 0 0 1.166-.946q.462-.605.682-1.43a6.8 6.8 0 0 0 .231-1.815l1.001.121q0 1.925-.66 3.179-.649 1.243-1.76 1.848-1.111.594-2.497.594m4.037-.275v-2.673h-.121v-9.207h1.276V126zm10.527 0a6.8 6.8 0 0 1-1.87.154 4.1 4.1 0 0 1-1.65-.407 2.4 2.4 0 0 1-1.078-1.144 3.3 3.3 0 0 1-.33-1.265 29 29 0 0 1-.033-1.463V110.82h1.276v11.033a60 60 0 0 0 .011 1.243q.023.484.231.891.396.759 1.254.924.858.154 2.189-.055zm-7.623-10.725v-1.155h7.623v1.155zm10.113-3.553v-1.617h1.265v1.617zm0 14.278v-11.88h1.265V126zm9.444.33q-1.772 0-3.003-.803-1.233-.803-1.881-2.222-.65-1.419-.649-3.267 0-1.859.66-3.267.66-1.419 1.892-2.2 1.242-.781 2.981-.781 1.77 0 3.003.803 1.242.792 1.881 2.2.649 1.408.649 3.245 0 1.881-.649 3.3-.65 1.408-1.892 2.2-1.243.792-2.992.792m0-1.232q2.1 0 3.135-1.408 1.044-1.408 1.045-3.652 0-2.288-1.045-3.652t-3.135-1.364q-1.419 0-2.343.649-.924.638-1.386 1.771-.451 1.122-.451 2.596 0 2.288 1.056 3.674 1.066 1.386 3.124 1.386m16.654.902v-6.182q0-1.122-.231-2.002-.22-.88-.682-1.496a2.9 2.9 0 0 0-1.144-.935q-.683-.32-1.617-.319-.969 0-1.683.341-.705.33-1.166.935a4.3 4.3 0 0 0-.682 1.441 7 7 0 0 0-.22 1.804l-1.001-.121q0-1.925.649-3.168.66-1.254 1.771-1.848 1.11-.605 2.497-.605.978 0 1.749.286.78.286 1.353.814.571.517.946 1.232.373.703.55 1.551.186.847.187 1.771V126zm-8.701 0v-11.88h1.155v2.673h.121V126zm17.215.308q-2.056 0-3.399-.869-1.33-.869-1.65-2.42l1.298-.22q.275 1.056 1.298 1.683t2.508.627q1.475 0 2.343-.627.869-.627.869-1.716 0-.594-.275-.968-.264-.385-1.056-.704-.792-.32-2.354-.748-1.65-.44-2.585-.88-.924-.44-1.309-1.001-.374-.56-.374-1.375 0-.98.561-1.716.561-.748 1.562-1.166 1.012-.418 2.332-.418t2.376.44q1.056.429 1.705 1.21.65.77.748 1.793l-1.298.242a2.61 2.61 0 0 0-1.155-1.804q-.968-.671-2.42-.682-1.375-.022-2.244.55-.869.561-.869 1.485 0 .528.297.902.308.363 1.078.671.77.307 2.178.66 1.716.44 2.673.902.968.462 1.364 1.089.396.616.396 1.529 0 1.65-1.232 2.596-1.221.935-3.366.935"/><path stroke="#fff" stroke-opacity=".28" d="M479.458 34.531c2.871 9.331 1.006 19.685-4.916 30.455-5.924 10.772-15.889 21.922-29.138 32.798-26.495 21.751-66.044 42.342-112.368 56.595-46.325 14.253-90.608 19.455-124.748 16.36-17.072-1.547-31.58-5.167-42.535-10.746-10.953-5.578-18.315-13.093-21.186-22.424s-1.006-19.685 4.916-30.455c5.924-10.772 15.889-21.922 29.138-32.798 26.495-21.75 66.044-42.342 112.368-56.595 46.325-14.253 90.609-19.455 124.748-16.36 17.072 1.547 31.58 5.167 42.535 10.746 10.953 5.578 18.315 13.093 21.186 22.424Z"/><path fill="#fff" fill-rule="evenodd" d="M196.119 60.885v-9.907h12.578V46.19h-12.578v-11.4h-5.661v11.4h-8.778v4.787h8.778v21.394q0 3.002.076 5.358.114 2.318 1.216 4.598 1.368 2.736 3.99 4.028 2.66 1.292 6.004 1.444a27.4 27.4 0 0 0 6.84-.57v-4.902q-4.408.722-7.41.228-2.964-.495-4.332-3.04-.723-1.33-.798-3.04-.038-1.748-.038-4.332V60.96zm-16.304 11.867a8.3 8.3 0 0 0-.978-2.242q-1.368-2.166-4.598-3.762t-8.892-3.04q-4.826-1.216-7.448-2.242-2.583-1.026-3.572-2.166-.987-1.179-.988-2.812 0-2.927 2.736-4.674 2.736-1.786 7.106-1.672 4.636.075 7.638 2.204 3.04 2.09 3.61 5.7l5.7-1.026q-.417-3.573-2.66-6.27-2.241-2.698-5.928-4.18-3.648-1.52-8.284-1.52-4.635 0-8.132 1.482-3.495 1.443-5.472 4.104-1.976 2.622-1.976 6.118 0 2.887 1.33 4.902 1.33 1.975 4.484 3.496t8.74 3.04q5.206 1.406 7.828 2.432t3.458 2.242q.874 1.178.874 3.078 0 .765-.138 1.459a182 182 0 0 1 5.562-4.651m-11.442 10.036q-1.796.452-4.052.452-4.788 0-8.056-2.052-3.23-2.091-4.142-5.586l-5.7.95q1.065 5.547 5.7 8.664 4.327 2.883 10.835 3.098a133 133 0 0 1 5.415-5.526M3 32.51v54.72h5.586V32.51zm44.338 33.782V87.23h5.624V64.658q0-2.775-.532-5.548a21.5 21.5 0 0 0-1.71-5.282 15.6 15.6 0 0 0-3.116-4.446q-1.899-1.938-4.674-3.078-2.736-1.14-6.422-1.14-5.016 0-8.892 2.204-2.928 1.665-4.902 4.522v-5.7H17.66v41.04h5.624V65.342q0-3.496.798-6.232t2.318-4.636a10.3 10.3 0 0 1 3.8-2.964q2.28-1.026 5.244-1.026 3.231 0 5.472 1.178a9.55 9.55 0 0 1 3.686 3.344q1.445 2.127 2.09 5.016.645 2.85.646 6.27M64.61 50.978V87.23h5.586V50.978h11.21V46.19h-11.21v-3.648q0-3.345 1.558-4.902 1.596-1.558 4.788-1.558h4.864V31.37h-5.244q-1.557 0-3.192.19-1.596.19-3.078.836-1.482.608-2.736 1.976-1.14 1.215-1.672 2.66a12.7 12.7 0 0 0-.722 2.964 32 32 0 0 0-.152 3.154v3.04h-7.106v4.788zm20.596-4.788v41.04h5.586V66.748q0-2.433.342-4.902a16.3 16.3 0 0 1 1.368-4.712q1.026-2.242 3.078-3.838 2.241-1.825 4.902-2.128t4.902.266V46.19q-1.786-.457-3.952-.304a15 15 0 0 0-4.294.874q-2.128.721-3.724 2.128-1.293.987-2.394 2.546-.432.594-.798 1.235v-6.48zm27.5 40.508q3.153 1.672 7.79 1.672 6.156 0 10.564-2.774 3.1-1.951 5.054-5.143v6.777h4.978V61.732q0-2.28-.228-4.484t-.988-3.99q-1.635-3.99-5.586-6.08-3.915-2.128-9.538-2.128-6.802 0-11.058 3.04t-5.662 8.55l5.434 1.596q1.177-4.104 4.066-6.004 2.925-1.9 7.144-1.9 6.117 0 8.588 2.926 2.278 2.698 2.358 8.08-2.007.283-4.41.584-3.61.417-7.41 1.026-3.762.57-6.878 1.33-3.078.797-5.434 2.318a11.35 11.35 0 0 0-3.686 3.914q-1.33 2.355-1.33 5.7 0 3.267 1.558 6.042 1.557 2.774 4.674 4.446m15.276-4.56q-2.926 1.406-6.84 1.406-3.306 0-5.32-1.102-1.976-1.103-2.888-2.774-.874-1.673-.874-3.458 0-2.204 1.026-3.686a7.8 7.8 0 0 1 2.698-2.356 15.6 15.6 0 0 1 3.382-1.406q2.584-.684 5.776-1.178 3.23-.495 6.536-.874 2.129-.243 4.057-.484-.01.927-.029 2.194-.038 2.355-.494 4.332a13.2 13.2 0 0 1-2.318 5.548q-1.787 2.431-4.712 3.838m301.567 6.231q-6.003 0-10.412-2.66-4.37-2.66-6.802-7.486T409.902 66.9q0-6.726 2.394-11.628t6.726-7.562q4.37-2.66 10.298-2.66 6.081 0 10.374 2.812 4.295 2.775 6.498 7.98 2.205 5.206 2.014 12.426h-32.339q.322 6.636 3.459 10.488 3.534 4.256 9.994 4.256 4.409 0 7.676-2.014 3.307-2.052 5.206-5.89l5.206 2.014q-2.431 5.358-7.182 8.322-4.711 2.925-10.678 2.926m9.5-34.124q2.722 3.348 3.306 9.348h-26.375q.572-5.71 3.347-9.12 3.534-4.294 10.146-4.294 6.309 0 9.576 4.066m-50.47 32.984h5.586V66.747q0-2.431.342-4.902a16.3 16.3 0 0 1 1.368-4.712q1.026-2.242 3.078-3.838 2.242-1.824 4.902-2.128t4.902.266V46.19q-1.786-.456-3.952-.304a15 15 0 0 0-4.294.874q-2.128.721-3.724 2.128-1.293.988-2.394 2.546-.43.594-.798 1.236v-6.48h-5.016zm-26.391 1.026q-3.687 0-6.46-1.14-2.736-1.14-4.674-3.078a16.2 16.2 0 0 1-3.078-4.408 22.2 22.2 0 0 1-1.71-5.282 30 30 0 0 1-.532-5.586V46.19h5.624v20.938q0 3.383.646 6.27.645 2.888 2.052 5.054a10.03 10.03 0 0 0 3.686 3.306q2.28 1.178 5.51 1.178 2.964 0 5.206-1.026a10.1 10.1 0 0 0 3.8-2.926q1.557-1.938 2.356-4.674.798-2.775.798-6.232V46.19h5.586v41.04h-5.016v-5.7q-1.974 2.856-4.902 4.522-3.876 2.205-8.892 2.204m-27.58-.456a27.4 27.4 0 0 0 6.84-.57v-4.902q-4.409.722-7.41.228-2.964-.495-4.332-3.04-.721-1.33-.798-3.04a207 207 0 0 1-.038-4.332V50.977h12.578V46.19h-12.578v-11.4h-5.548v11.4h-8.778v4.788h8.778v21.394q0 3.002.076 5.358.114 2.318 1.216 4.598 1.368 2.736 3.99 4.028 2.66 1.292 6.004 1.444m-37.522.57q-6.194 0-10.488-2.774t-6.536-7.638q-2.204-4.902-2.28-11.248.076-6.46 2.356-11.324 2.28-4.902 6.574-7.6 4.294-2.736 10.412-2.736 6.232 0 10.83 3.04 4.636 3.04 6.346 8.322l-5.472 1.748q-1.444-3.685-4.598-5.7-3.116-2.052-7.144-2.052-4.522 0-7.486 2.09-2.964 2.051-4.408 5.738-1.445 3.686-1.482 8.474.076 7.373 3.42 11.856 3.344 4.446 9.956 4.446 4.18 0 7.106-1.9 2.964-1.938 4.484-5.624l5.624 1.672q-2.28 5.472-6.688 8.36-4.408 2.85-10.526 2.85m-49.875-1.254q2.774 1.14 6.46 1.14 5.016 0 8.892-2.204 2.928-1.665 4.902-4.523v5.701h5.016V46.19h-5.586v21.888q0 3.458-.798 6.232-.798 2.736-2.356 4.674a10.1 10.1 0 0 1-3.8 2.926q-2.242 1.026-5.206 1.026-3.23 0-5.51-1.178a10.04 10.04 0 0 1-3.686-3.306q-1.406-2.166-2.052-5.054-.646-2.887-.646-6.27V46.19h-5.624v22.572q0 2.774.532 5.586.533 2.775 1.71 5.282a16.2 16.2 0 0 0 3.078 4.408q1.938 1.938 4.674 3.078m-33.581.114V46.19h5.016v6.48q.368-.642.798-1.236 1.103-1.558 2.394-2.546 1.596-1.406 3.724-2.128a15 15 0 0 1 4.294-.874q2.166-.152 3.952.304v5.244q-2.241-.57-4.902-.266t-4.902 2.128q-2.052 1.596-3.078 3.838a16.3 16.3 0 0 0-1.368 4.712 36 36 0 0 0-.342 4.902V87.23z" clip-rule="evenodd"/></svg>