<svg xmlns="http://www.w3.org/2000/svg" width="297" height="165" fill="none" opt="1"><path stroke="#fff" stroke-opacity=".28" d="M282.565 44.035c1.743 5.854-.064 12.543-4.99 19.677-4.922 7.13-12.915 14.632-23.386 22.061-20.937 14.856-51.689 29.353-87.292 39.951s-69.278 15.278-94.931 14.29c-12.83-.494-23.624-2.404-31.644-5.681-8.025-3.279-13.195-7.891-14.938-13.746-1.743-5.854.064-12.543 4.99-19.677 4.922-7.129 12.915-14.632 23.385-22.061 20.938-14.856 51.69-29.353 87.293-39.95C176.656 28.3 210.33 23.62 235.983 24.607c12.829.494 23.624 2.405 31.644 5.681 8.025 3.28 13.195 7.891 14.938 13.746Z"/><path fill="#fff" fill-rule="evenodd" d="M254.676 72V33.78h3.822V72zm-107.53-35.88h-3.796v1.94l.191-.055v5.915h-6.006v3.276h6.006v14.638q0 2.054.052 3.666.078 1.586.832 3.146.936 1.872 2.73 2.756 1.82.885 4.108.988 2.315.105 4.68-.39v-3.354q-3.016.494-5.07.156-2.028-.338-2.964-2.08-.494-.91-.546-2.08-.026-1.195-.026-2.964V47.196h8.606V43.92h-8.606v-7.8zm-32.229 7.8h.191v14.326q0 2.315.442 4.29.441 1.976 1.404 3.458a6.86 6.86 0 0 0 2.522 2.262q1.56.806 3.77.806 2.028 0 3.562-.702a6.9 6.9 0 0 0 2.6-2.002q1.066-1.326 1.612-3.198.546-1.898.546-4.264V43.92h3.822V72h-3.432v-3.9a10.1 10.1 0 0 1-3.354 3.094q-2.652 1.508-6.084 1.508-2.523 0-4.42-.78-1.872-.78-3.198-2.106a11.1 11.1 0 0 1-2.106-3.016 15.1 15.1 0 0 1-1.17-3.614 20.5 20.5 0 0 1-.364-3.822V48.795l-.191.074v-4.95zm-15.275 3.276v14.482q0 1.769.026 2.964.051 1.17.546 2.08.936 1.742 2.964 2.08 2.053.337 5.07-.156V72q-2.365.495-4.68.39-2.288-.105-4.108-.988-1.794-.885-2.73-2.756-.754-1.56-.832-3.146a115 115 0 0 1-.052-3.666v-6.695l-.19.084v-8.027H89.65V43.92h6.005v-7.8h3.986v7.8h8.607v3.276zm-12.668 12.01V43.92h-3.822v17.144a299 299 0 0 1 3.822-1.858M71.391 67.24a4.4 4.4 0 0 1-.325-.518q-.494-.91-.546-2.08-.026-1.196-.026-2.964V47.196H79.1V43.92h-8.606v-7.8h-3.796v7.8h-6.006v3.276h6.006v14.638q0 2.054.052 3.666.079 1.586.832 3.146.15.3.323.576a241 241 0 0 1 3.486-1.982M0 34.56V72h3.822V34.56zm29.897 23.114V72h3.848V56.556q0-1.897-.364-3.796a14.7 14.7 0 0 0-1.17-3.614 10.7 10.7 0 0 0-2.132-3.042q-1.3-1.326-3.198-2.106-1.872-.78-4.394-.78-3.432 0-6.084 1.508a10.1 10.1 0 0 0-3.354 3.094v-3.9H9.59V72h3.848V57.024q0-2.392.546-4.264t1.586-3.172a7.1 7.1 0 0 1 2.6-2.028q1.56-.702 3.588-.702 2.21 0 3.744.806 1.56.806 2.522 2.288.987 1.455 1.43 3.432.442 1.95.442 4.29m10.935 12.948q3.198 2.132 8.138 2.132 5.174 0 8.112-2.262 2.964-2.288 2.964-6.266 0-2.184-.936-3.666t-3.146-2.574q-2.211-1.092-6.084-2.08-3.303-.832-5.096-1.534-1.769-.702-2.444-1.482-.676-.807-.676-1.924 0-2.002 1.872-3.198 1.871-1.222 4.862-1.144 3.171.051 5.226 1.508 2.08 1.43 2.47 3.9l3.9-.702q-.286-2.445-1.82-4.29t-4.056-2.86q-2.496-1.04-5.668-1.04t-5.564 1.014q-2.392.987-3.744 2.808-1.353 1.794-1.352 4.186 0 1.976.91 3.354.91 1.351 3.068 2.392t5.98 2.08q3.562.962 5.356 1.664 1.793.703 2.366 1.534.597.806.598 2.106 0 2.313-1.846 3.666-1.846 1.326-5.044 1.326-3.276 0-5.512-1.404-2.21-1.431-2.834-3.822l-3.9.65q.727 3.796 3.9 5.928M83.152 34.3v4.29h3.822V34.3zm146.813 37.336q2.158 1.144 5.33 1.144 4.213 0 7.228-1.898a10.7 10.7 0 0 0 3.458-3.519V72h3.406V54.554q0-1.56-.156-3.068t-.676-2.73q-1.118-2.73-3.822-4.16-2.677-1.456-6.526-1.456-4.653 0-7.566 2.08-2.912 2.08-3.874 5.85l3.718 1.092q.807-2.808 2.782-4.108 2.002-1.3 4.888-1.3 4.187 0 5.876 2.002 1.559 1.846 1.614 5.528-1.374.195-3.018.4-2.47.286-5.07.702a54 54 0 0 0-4.706.91q-2.106.546-3.718 1.586a7.8 7.8 0 0 0-2.522 2.678q-.91 1.613-.91 3.9 0 2.236 1.066 4.134t3.198 3.042m10.452-3.12q-2.001.962-4.68.962-2.262 0-3.64-.754-1.352-.754-1.976-1.898a5.05 5.05 0 0 1-.598-2.366q0-1.508.702-2.522a5.35 5.35 0 0 1 1.846-1.612 10.7 10.7 0 0 1 2.314-.962 39 39 0 0 1 3.952-.806q2.21-.338 4.472-.598 1.457-.165 2.776-.331-.006.634-.02 1.501a14.2 14.2 0 0 1-.338 2.964 9 9 0 0 1-1.586 3.796q-1.221 1.665-3.224 2.626M218.665 72V57.674q0-2.34-.442-4.29-.441-1.975-1.43-3.432a6.54 6.54 0 0 0-2.522-2.288q-1.533-.806-3.744-.806-2.028 0-3.588.702a7.1 7.1 0 0 0-2.6 2.028q-1.04 1.3-1.586 3.172t-.546 4.264V72h-3.848V43.92h3.458v3.9a10.1 10.1 0 0 1 3.354-3.094q2.652-1.508 6.084-1.508 2.522 0 4.394.78 1.899.78 3.198 2.106a10.7 10.7 0 0 1 2.132 3.042 14.7 14.7 0 0 1 1.17 3.614q.364 1.897.364 3.796V72zm-44.476-1.118q2.964 1.898 7.15 1.898 4.16 0 7.15-1.872t4.576-5.2q1.586-3.354 1.586-7.774 0-4.342-1.586-7.67-1.56-3.354-4.55-5.226-2.964-1.898-7.176-1.898-4.108 0-7.098 1.872-2.965 1.845-4.576 5.174-1.612 3.328-1.612 7.748 0 4.342 1.586 7.696t4.55 5.252m14.118-4.862q-2.289 3.094-6.968 3.094-4.55 0-6.89-3.042-2.34-3.068-2.34-8.138 0-3.276.988-5.772 1.014-2.522 3.042-3.926 2.053-1.43 5.2-1.43 4.653 0 6.942 3.016 2.313 3.016 2.314 8.112 0 4.966-2.288 8.086m-28.311-27.43V34.3h3.822v4.29zm0 33.41V43.92h3.822V72z" clip-rule="evenodd"/></svg>