<svg xmlns="http://www.w3.org/2000/svg" width="597" height="346" fill="none" opt="1"><path stroke="#fff" stroke-opacity=".28" d="M568.861 92.286c3.726 12.516-.162 26.733-10.549 41.777-10.385 15.039-27.219 30.833-49.228 46.45-44.015 31.23-108.631 61.686-183.416 83.947-74.784 22.26-145.537 32.098-199.466 30.022-26.967-1.039-49.698-5.056-66.616-11.968-16.924-6.914-27.954-16.691-31.68-29.208s.163-26.733 10.55-41.777c10.384-15.039 27.218-30.833 49.228-46.45 44.015-31.23 108.631-61.686 183.415-83.947 74.785-22.26 145.538-32.098 199.467-30.022 26.967 1.039 49.698 5.056 66.616 11.968 16.924 6.914 27.953 16.69 31.679 29.208Z"/><path fill="#fff" fill-rule="evenodd" d="M517.242 140.601V67.128h7.347v73.473zM300.485 71.626h-7.297v2.744l.276-.074v12.325h-11.546v6.298h11.546v28.139q0 3.95.1 7.048.15 3.048 1.599 6.048 1.8 3.599 5.248 5.298 3.499 1.7 7.898 1.899 4.448.2 8.996-.75v-6.447q-5.798.95-9.746.3-3.899-.65-5.698-3.999-.95-1.749-1.05-3.999a272 272 0 0 1-.05-5.697v-27.84h16.544V86.62h-16.544V71.626zm-63.707 14.995h-7.673v7.714l.275-.099v22.074q0 3.65.7 7.347a29.2 29.2 0 0 0 2.249 6.948 21.4 21.4 0 0 0 4.049 5.798q2.549 2.549 6.148 4.048 3.648 1.5 8.497 1.5 6.597 0 11.695-2.899 3.852-2.19 6.448-5.949v7.498h6.598v-53.98h-7.348v28.789q0 4.55-1.049 8.197-1.05 3.6-3.099 6.148-2 2.499-4.998 3.849-2.95 1.35-6.848 1.349-4.248 0-7.247-1.549a13.2 13.2 0 0 1-4.849-4.348q-1.848-2.85-2.699-6.648-.849-3.798-.849-8.247zm-39.333 19.812.276-.112v14.737q0 3.95.1 7.048.15 3.048 1.599 6.048 1.8 3.599 5.249 5.298 3.498 1.7 7.897 1.899 4.448.2 8.996-.75v-6.447q-5.798.95-9.746.3-3.898-.65-5.698-3.999-.95-1.749-1.05-3.999a272 272 0 0 1-.05-5.697v-27.84h16.544V86.62h-16.544V71.626h-7.573v14.995h-11.546v6.297h11.546zm-18.715 7.95V86.621h-7.347v31.062a684 684 0 0 1 7.347-3.3m-32.835 15.622q-.736-1.584-.823-3.549-.05-2.299-.05-5.698v-27.84h16.544v-6.297h-16.544V71.626h-7.298v14.995h-11.545v6.297h11.545v28.14q0 3.95.1 7.048.135 2.73 1.311 5.42a566 566 0 0 1 6.76-3.521M3.424 68.627v71.974h7.347V68.627zm59.5 44.434v27.54h7.397v-29.689q0-3.649-.7-7.297a28.3 28.3 0 0 0-2.249-6.948 20.6 20.6 0 0 0-4.098-5.848q-2.5-2.55-6.148-4.048-3.6-1.5-8.447-1.5-6.597 0-11.696 2.9-3.85 2.19-6.447 5.948v-7.498h-6.648v53.98h7.397v-28.789q0-4.599 1.05-8.197 1.05-3.599 3.049-6.098a13.6 13.6 0 0 1 4.998-3.899q3-1.35 6.898-1.35 4.248 0 7.197 1.55 3 1.55 4.848 4.399 1.9 2.799 2.75 6.597.849 3.749.849 8.247m23.048 24.891q6.149 4.1 15.645 4.099 9.946 0 15.594-4.349 5.698-4.398 5.698-12.045 0-4.198-1.799-7.048-1.8-2.848-6.048-4.948-4.249-2.099-11.696-3.999-6.348-1.6-9.796-2.948-3.399-1.35-4.699-2.849-1.3-1.55-1.3-3.699 0-3.849 3.6-6.148 3.597-2.349 9.346-2.2 6.098.102 10.046 2.9 3.999 2.75 4.749 7.497l7.497-1.349q-.55-4.699-3.499-8.247-2.949-3.55-7.797-5.498-4.799-2-10.896-2t-10.696 1.95q-4.599 1.899-7.198 5.398-2.599 3.448-2.599 8.047 0 3.798 1.75 6.447 1.749 2.6 5.898 4.599t11.495 3.998q6.848 1.85 10.297 3.199 3.448 1.35 4.548 2.949 1.15 1.55 1.15 4.049 0 4.447-3.549 7.047-3.549 2.549-9.697 2.549-6.297 0-10.596-2.699-4.248-2.75-5.448-7.347l-7.497 1.249q1.4 7.298 7.497 11.396m85.411-69.824v8.247h7.347v-8.247zm296.328 71.774q4.148 2.199 10.247 2.199 8.096 0 13.895-3.649 4.077-2.567 6.647-6.764v8.913h6.548v-33.537q0-3-.3-5.898-.3-2.9-1.3-5.248-2.148-5.25-7.347-7.998-5.148-2.798-12.545-2.799-8.947 0-14.545 3.999t-7.447 11.246l7.147 2.099q1.55-5.398 5.348-7.897 3.849-2.499 9.397-2.499 8.047 0 11.296 3.849 2.996 3.549 3.101 10.627-2.64.373-5.8.768-4.749.55-9.747 1.35-4.948.75-9.047 1.749-4.048 1.05-7.147 3.049a14.9 14.9 0 0 0-4.848 5.148q-1.75 3.099-1.75 7.498 0 4.298 2.05 7.947t6.147 5.848m20.093-5.998q-3.849 1.85-8.997 1.849-4.348 0-6.997-1.449-2.6-1.45-3.799-3.649-1.149-2.199-1.149-4.548 0-2.9 1.349-4.849a10.3 10.3 0 0 1 3.549-3.099 20.6 20.6 0 0 1 4.448-1.849q3.4-.9 7.598-1.549 4.248-.65 8.596-1.15 2.8-.318 5.337-.636-.012 1.218-.038 2.885-.05 3.1-.65 5.698-.7 4.049-3.049 7.298-2.349 3.198-6.198 5.048m-43.841 6.697v-27.54q0-4.499-.849-8.247-.85-3.798-2.749-6.597a12.57 12.57 0 0 0-4.849-4.399q-2.949-1.55-7.197-1.55-3.899 0-6.897 1.35a13.6 13.6 0 0 0-4.999 3.899q-2 2.5-3.049 6.098t-1.049 8.197v28.789h-7.397v-53.98h6.647v7.498q2.596-3.759 6.448-5.949 5.098-2.899 11.695-2.899 4.849 0 8.447 1.5 3.65 1.5 6.148 4.048 2.55 2.55 4.099 5.848a28.3 28.3 0 0 1 2.249 6.948 38.7 38.7 0 0 1 .7 7.297v29.689zm-87.529-2.149q5.697 3.65 13.745 3.649 7.997 0 13.745-3.599t8.796-9.996q3.05-6.448 3.049-14.945 0-8.346-3.049-14.745-2.998-6.447-8.746-10.046-5.698-3.648-13.795-3.648-7.897 0-13.645 3.598-5.698 3.55-8.797 9.947-3.099 6.398-3.099 14.894 0 8.347 3.049 14.795 3.048 6.447 8.747 10.096m27.14-9.346q-4.399 5.947-13.395 5.947-8.748 0-13.246-5.848-4.497-5.897-4.498-15.644 0-6.297 1.899-11.096 1.95-4.848 5.848-7.547 3.95-2.75 9.997-2.75 8.946 0 13.345 5.799 4.448 5.797 4.448 15.594 0 9.547-4.398 15.545m-56.451-52.731v-8.247h7.347v8.247zm0 64.226v-53.98h7.347v53.98z" clip-rule="evenodd"/></svg>