<svg xmlns="http://www.w3.org/2000/svg" width="771" height="442" fill="none" opt="1"><path stroke="#fff" stroke-opacity=".28" d="M735.317 117.738c4.771 16.031-.214 34.22-13.483 53.436-13.265 19.212-34.764 39.379-62.86 59.315-56.188 39.868-138.668 78.743-234.121 107.155s-185.765 40.972-254.61 38.321c-34.425-1.326-63.453-6.454-85.065-15.283-21.617-8.833-35.738-21.334-40.51-37.365s.214-34.219 13.483-53.436c13.265-19.211 34.763-39.379 62.86-59.314 56.188-39.869 138.668-78.743 234.12-107.156 95.453-28.412 185.766-40.971 254.611-38.32 34.425 1.325 63.453 6.453 85.065 15.283 21.617 8.832 35.738 21.333 40.51 37.364Z"/><path fill="#fff" fill-rule="evenodd" d="M711.647 88.368V77.776h-9.945v5.108c3.558 1.712 6.877 3.54 9.945 5.484M196.04 165.345a745 745 0 0 0-9.352 4.828 18 18 0 0 1-.957-1.682q-1.962-4.059-2.164-8.185a297 297 0 0 1-.136-9.539v-38.085h-15.626v-8.524h15.626V83.864h9.877v20.294h22.391v8.524h-22.391v37.68q0 4.6.067 7.711.136 3.045 1.421 5.412.55 1.023 1.244 1.86m43.445-20.442a892 892 0 0 0-9.944 4.414v-45.159h9.944zm35.76-14.73a968 968 0 0 0-9.876 3.898v-21.389h-15.627v-8.524h15.627V83.864h9.876v20.294h22.392v8.524h-22.392zm43.539-15.764a1056 1056 0 0 0-10.012 3.429v-13.68h10.012zm87.153-25.283q-4.924 1.203-9.877 2.464v-7.726h9.877zm45.486-9.997a961 961 0 0 0-9.254 1.851V79.13zM0 79.805v97.413h9.944V79.805zm81.084 60.139v37.274h10.012v-40.183q0-4.938-.947-9.877-.947-5.005-3.044-9.403a27.9 27.9 0 0 0-5.547-7.914q-3.383-3.45-8.32-5.48-4.872-2.03-11.433-2.029-8.93 0-15.83 3.923-5.213 2.964-8.726 8.052v-10.149H28.25v73.06h10.012v-38.965q0-6.224 1.421-11.095 1.42-4.87 4.127-8.253a18.4 18.4 0 0 1 6.764-5.276q4.059-1.827 9.336-1.827 5.75 0 9.74 2.097 4.06 2.098 6.563 5.953 2.57 3.788 3.72 8.93 1.15 5.073 1.15 11.162m31.749 33.688q8.321 5.547 21.174 5.547 13.462 0 21.106-5.885 7.712-5.953 7.712-16.303 0-5.682-2.435-9.538t-8.186-6.697q-5.75-2.843-15.829-5.412-8.592-2.165-13.259-3.991-4.6-1.827-6.359-3.856-1.76-2.097-1.759-5.006 0-5.209 4.871-8.321 4.87-3.18 12.65-2.976 8.253.135 13.597 3.923 5.412 3.721 6.427 10.147l10.147-1.826q-.744-6.359-4.736-11.162-3.99-4.803-10.553-7.441-6.494-2.706-14.747-2.706t-14.476 2.638q-6.224 2.57-9.742 7.306-3.517 4.668-3.517 10.891 0 5.142 2.367 8.727 2.368 3.517 7.983 6.223 5.614 2.706 15.559 5.412 9.267 2.503 13.935 4.33t6.156 3.991q1.556 2.097 1.556 5.479 0 6.02-4.803 9.539-4.803 3.45-13.124 3.45-8.523 0-14.341-3.653-5.75-3.721-7.374-9.945l-10.147 1.692q1.894 9.876 10.147 15.423m116.708-94.503V90.29h9.944V79.13z" clip-rule="evenodd"/><path fill="#fff" fill-rule="evenodd" d="M701.648 77.776v99.442h9.944V77.776zm-67.591 98.495q5.615 2.976 13.868 2.976 10.958 0 18.806-4.938 5.518-3.474 8.997-9.156v12.065h8.862v-45.392a78 78 0 0 0-.406-7.982q-.406-3.924-1.759-7.103-2.909-7.104-9.944-10.824-6.968-3.788-16.98-3.788-12.109 0-19.685 5.412-7.576 5.411-10.08 15.22l9.674 2.841q2.097-7.305 7.238-10.688 5.21-3.382 12.718-3.382 10.891 0 15.288 5.209 4.056 4.804 4.198 14.383-3.573.506-7.851 1.04a307 307 0 0 0-13.191 1.827q-6.697 1.014-12.244 2.367-5.48 1.421-9.674 4.127a20.2 20.2 0 0 0-6.562 6.968q-2.367 4.194-2.367 10.147 0 5.818 2.773 10.756t8.321 7.915m27.194-8.118q-5.208 2.502-12.176 2.503-5.886 0-9.471-1.962-3.518-1.962-5.141-4.938-1.557-2.977-1.556-6.156 0-3.924 1.826-6.562a13.9 13.9 0 0 1 4.803-4.194 27.8 27.8 0 0 1 6.021-2.503q4.6-1.218 10.282-2.097a315 315 0 0 1 11.636-1.556q3.79-.43 7.223-.861a674 674 0 0 1-.053 3.905q-.067 4.194-.879 7.712-.947 5.48-4.127 9.876-3.179 4.33-8.388 6.833m-59.89 9.065v-37.274q0-6.089-1.15-11.162-1.15-5.142-3.721-8.93-2.502-3.855-6.561-5.953-3.991-2.097-9.742-2.097-5.276 0-9.335 1.827a18.4 18.4 0 0 0-6.765 5.276q-2.706 3.382-4.126 8.253t-1.421 11.095v38.965h-10.012v-73.06h8.997v10.149q3.514-5.088 8.727-8.052 6.9-3.923 15.829-3.923 6.563 0 11.433 2.029 4.938 2.03 8.321 5.48 3.45 3.45 5.547 7.914 2.097 4.398 3.044 9.403.947 4.94.947 9.877v40.183zm-119.021-2.909q7.712 4.938 18.603 4.938 10.824 0 18.603-4.871 7.78-4.87 11.906-13.529 4.126-8.727 4.126-20.227 0-11.296-4.126-19.956-4.059-8.726-11.838-13.597-7.713-4.938-18.671-4.938-10.689 0-18.468 4.87-7.712 4.803-11.906 13.462-4.194 8.66-4.194 20.159 0 11.297 4.126 20.024t11.839 13.665m36.732-12.65q-5.952 8.05-18.129 8.05-11.838 0-17.927-7.915-6.088-7.983-6.088-21.174 0-8.523 2.571-15.018 2.638-6.561 7.914-10.214 5.344-3.721 13.53-3.721 12.108 0 18.062 7.847 6.02 7.848 6.02 21.106 0 12.921-5.953 21.039M442.115 90.29V79.13h9.944V90.29zm0 86.928v-73.06h9.944v73.06zm-26.018 1.014q6.02.27 12.176-1.014v-8.727q-7.846 1.285-13.191.406-5.276-.879-7.712-5.412-1.285-2.367-1.42-5.412a365 365 0 0 1-.068-7.711v-37.68h22.391v-8.524h-22.391V83.864h-9.877v20.294h-15.626v8.524h15.626v38.085q0 5.345.136 9.539.203 4.126 2.164 8.185 2.436 4.87 7.103 7.171 4.736 2.3 10.689 2.57m-78.088.812q-6.562 0-11.5-2.029-4.871-2.03-8.321-5.48a28.9 28.9 0 0 1-5.48-7.847 39.6 39.6 0 0 1-3.044-9.403 53.4 53.4 0 0 1-.947-9.944v-40.183h10.012v37.274q0 6.02 1.15 11.162 1.15 5.14 3.653 8.997 2.57 3.788 6.562 5.885 4.059 2.097 9.809 2.097 5.276 0 9.268-1.826 4.058-1.827 6.764-5.209 2.773-3.45 4.194-8.321 1.42-4.938 1.421-11.094v-38.965h9.944v73.06h-8.929v-10.149q-3.515 5.088-8.727 8.052-6.9 3.923-15.829 3.923m-52.604-.812q6.021.27 12.177-1.014v-8.727q-7.847 1.285-13.191.406-5.277-.879-7.712-5.412-1.286-2.367-1.421-5.412a366 366 0 0 1-.067-7.711v-37.68h22.391v-8.524h-22.391V83.864h-9.877v20.294h-15.626v8.524h15.626v38.085q0 5.345.135 9.539.204 4.126 2.165 8.185 2.435 4.87 7.103 7.171 4.736 2.3 10.688 2.57" clip-rule="evenodd"/></svg>