<svg xmlns="http://www.w3.org/2000/svg" width="458" height="255" fill="none" opt="1"><path stroke="#fff" stroke-opacity=".28" d="M436.549 68.067c2.73 9.172-.113 19.61-7.759 30.684-7.643 11.069-20.039 22.701-36.257 34.208-32.431 23.012-80.049 45.457-135.167 61.864s-107.26 23.656-146.996 22.125c-19.87-.765-36.61-3.724-49.062-8.812-12.458-5.089-20.546-12.274-23.276-21.446s.112-19.611 7.758-30.685c7.643-11.069 20.04-22.701 36.257-34.208 32.431-23.012 80.049-45.457 135.168-61.864S324.474 36.278 364.21 37.808c19.871.765 36.611 3.725 49.063 8.812 12.457 5.09 20.545 12.274 23.276 21.447Z"/><path fill="#fff" fill-rule="evenodd" d="M382.855 112.58V56.72h5.586v55.86zm-209.36-38.169v-2.87h-5.784v22.571q0 2.775.532 5.586.533 2.774 1.71 5.282a16.2 16.2 0 0 0 3.078 4.408q1.938 1.938 4.674 3.078 2.774 1.14 6.46 1.14 5.016 0 8.892-2.204 2.928-1.665 4.902-4.522v5.7h5.016V71.54h-5.586v21.888q0 3.459-.798 6.232-.798 2.736-2.356 4.674a10.1 10.1 0 0 1-3.8 2.926q-2.242 1.026-5.206 1.026-3.23 0-5.51-1.178a10.03 10.03 0 0 1-3.686-3.306q-1.406-2.165-2.052-5.054-.646-2.887-.646-6.27V74.473zm-11.111 1.917h-12.417v7.73l-.161.07v13.366q0 2.585.038 4.332.077 1.71.798 3.04 1.368 2.547 4.332 3.04 3.003.495 7.41-.228v4.902a27.3 27.3 0 0 1-6.84.57q-3.343-.151-6.004-1.444-2.622-1.292-3.99-4.028-1.101-2.28-1.216-4.598a170 170 0 0 1-.076-5.358V76.328h-8.778V71.54h8.778v-11.4h5.709v11.4h12.578v4.788zm-31.575 16.615V71.54h-5.586v24.194a437 437 0 0 1 5.586-2.791m-23.753 12.605a7 7 0 0 1-.421-.682q-.721-1.33-.798-3.04-.038-1.748-.038-4.332V76.328h12.578V71.54h-12.578v-11.4h-5.548v11.4h-8.778v4.788h8.778v21.394q0 3.003.076 5.358.114 2.319 1.216 4.598.216.432.463.828a339 339 0 0 1 5.05-2.958M0 57.86v54.72h5.586V57.86zm44.618 33.782v20.938h5.624V90.008a29.4 29.4 0 0 0-.532-5.548A21.5 21.5 0 0 0 48 79.178a15.6 15.6 0 0 0-3.116-4.446q-1.899-1.938-4.674-3.078-2.735-1.14-6.422-1.14-5.016 0-8.892 2.204-2.928 1.665-4.902 4.523v-5.7H14.94v41.039h5.624V90.692q0-3.496.798-6.232t2.318-4.636a10.3 10.3 0 0 1 3.8-2.964q2.28-1.026 5.244-1.026 3.231 0 5.472 1.178a9.55 9.55 0 0 1 3.686 3.344q1.445 2.128 2.09 5.016.646 2.85.646 6.27m16.905 18.924q4.674 3.117 11.894 3.116 7.563 0 11.856-3.306 4.332-3.344 4.332-9.158 0-3.192-1.368-5.358-1.367-2.166-4.598-3.762t-8.892-3.04q-4.826-1.216-7.448-2.242-2.583-1.026-3.572-2.166-.988-1.177-.988-2.812 0-2.925 2.736-4.674 2.736-1.786 7.106-1.672 4.636.076 7.638 2.204 3.04 2.091 3.61 5.7l5.7-1.026q-.417-3.572-2.66-6.27-2.241-2.698-5.928-4.18-3.648-1.52-8.284-1.52-4.635 0-8.132 1.482-3.495 1.444-5.472 4.104-1.976 2.623-1.976 6.118 0 2.889 1.33 4.902 1.33 1.977 4.484 3.496 3.154 1.52 8.74 3.04 5.206 1.407 7.828 2.432Q82.08 97 82.917 98.216q.874 1.179.874 3.078 0 3.383-2.698 5.358-2.698 1.938-7.372 1.938-4.788 0-8.056-2.052-3.23-2.09-4.142-5.586l-5.7.95q1.065 5.549 5.7 8.664m63.7-53.086v6.27h5.586v-6.27zm220.593 54.568q3.154 1.672 7.79 1.672 6.156 0 10.564-2.774 3.1-1.95 5.054-5.143v6.777h4.978V87.082q0-2.28-.228-4.484t-.988-3.99q-1.633-3.99-5.586-6.08-3.914-2.127-9.538-2.128-6.803 0-11.058 3.04-4.256 3.04-5.662 8.55l5.434 1.596q1.178-4.104 4.066-6.004 2.926-1.9 7.144-1.9 6.118 0 8.588 2.926 2.279 2.7 2.358 8.08-2.007.284-4.41.584-3.61.418-7.41 1.026-3.762.57-6.878 1.33-3.078.798-5.434 2.318a11.36 11.36 0 0 0-3.686 3.914q-1.33 2.356-1.33 5.7 0 3.268 1.558 6.042t4.674 4.446m15.276-4.56q-2.927 1.407-6.84 1.406-3.306 0-5.32-1.102-1.976-1.101-2.888-2.774-.874-1.671-.874-3.458 0-2.204 1.026-3.686a7.8 7.8 0 0 1 2.698-2.356 15.7 15.7 0 0 1 3.382-1.406q2.584-.683 5.776-1.178 3.23-.493 6.536-.874 2.129-.24 4.058-.484a551 551 0 0 1-.03 2.194q-.038 2.356-.494 4.332-.532 3.079-2.318 5.548-1.786 2.433-4.712 3.838m-32.713 5.092V91.642q0-3.42-.646-6.27-.646-2.887-2.09-5.016a9.55 9.55 0 0 0-3.686-3.344q-2.242-1.178-5.472-1.178-2.964 0-5.244 1.026a10.34 10.34 0 0 0-3.8 2.964q-1.52 1.9-2.318 4.636t-.798 6.232v21.888h-5.624V71.54h5.054v5.701q1.974-2.858 4.902-4.523 3.876-2.204 8.892-2.204 3.687 0 6.422 1.14 2.774 1.14 4.674 3.078a15.6 15.6 0 0 1 3.116 4.446 21.4 21.4 0 0 1 1.71 5.282q.532 2.775.532 5.548v22.572zm-65.929-1.634q4.332 2.774 10.45 2.774 6.08 0 10.45-2.736t6.688-7.6q2.318-4.902 2.318-11.362 0-6.345-2.318-11.21-2.28-4.902-6.65-7.638Q279.056 70.4 272.9 70.4q-6.003 0-10.374 2.736-4.332 2.699-6.688 7.562-2.355 4.865-2.356 11.324 0 6.346 2.318 11.248t6.65 7.676m20.634-7.106q-3.344 4.522-10.184 4.522-6.65 0-10.07-4.446-3.42-4.484-3.42-11.894 0-4.788 1.444-8.436 1.482-3.686 4.446-5.738 3.003-2.09 7.6-2.09 6.803 0 10.146 4.408 3.382 4.409 3.382 11.856 0 7.258-3.344 11.818m-42.299-40.09v-6.27h5.586v6.27zm0 48.83V71.54h5.586v41.04zm-13.686.57a27.3 27.3 0 0 0 6.84-.57v-4.902q-4.408.723-7.41.228-2.964-.493-4.332-3.04-.722-1.33-.798-3.04a207 207 0 0 1-.038-4.332V76.328h12.578V71.54h-12.578v-11.4h-5.548v11.4h-8.778v4.788h8.778v21.394q0 3.003.076 5.358.114 2.319 1.216 4.598 1.368 2.736 3.99 4.028 2.66 1.293 6.004 1.444" clip-rule="evenodd"/></svg>