<svg xmlns="http://www.w3.org/2000/svg" width="521" height="175" fill="none" opt="1"><path fill="#fff" fill-rule="evenodd" d="M32.18 95.65q-8.306 0-14.96-2.75-6.601-2.805-10.946-7.92-4.29-5.115-5.61-12.155l8.25-1.375q1.98 7.7 8.36 12.1 6.38 4.345 15.235 4.345 5.83 0 10.45-1.815 4.62-1.87 7.26-5.28t2.64-8.085q0-3.08-1.1-5.225-1.1-2.2-2.915-3.63a18 18 0 0 0-3.96-2.365 31 31 0 0 0-4.18-1.595L20.63 53.905q-3.63-1.046-6.71-2.64-3.08-1.65-5.39-3.905a16.7 16.7 0 0 1-3.52-5.39q-1.265-3.08-1.265-7.04 0-6.71 3.52-11.605t9.625-7.535 13.915-2.585q7.92 0 14.135 2.805 6.27 2.805 10.34 8.03 4.07 5.17 5.39 12.265l-8.47 1.54q-.825-5.17-3.795-8.965t-7.59-5.83q-4.565-2.09-10.065-2.145-5.335 0-9.515 1.815-4.125 1.76-6.545 4.84t-2.42 7.04q0 4.016 2.2 6.435 2.255 2.42 5.5 3.795 3.3 1.375 6.38 2.255l15.51 4.565q2.42.66 5.665 1.925 3.3 1.21 6.38 3.52 3.135 2.254 5.17 5.94 2.035 3.685 2.035 9.35 0 5.5-2.2 9.845-2.145 4.345-6.105 7.315-3.905 2.97-9.185 4.51-5.225 1.595-11.44 1.595m62.117 0q-8.69 0-15.07-3.85-6.324-3.85-9.845-10.835-3.52-6.985-3.52-16.39 0-9.735 3.465-16.83T79.062 36.8q6.325-3.85 14.905-3.85 8.8 0 15.015 4.07 6.216 4.015 9.405 11.55 3.19 7.535 2.915 17.985H74.496q.467 9.605 5.006 15.18 5.115 6.16 14.465 6.16 6.38 0 11.11-2.915 4.785-2.97 7.535-8.525l7.535 2.915q-3.519 7.755-10.395 12.045-6.82 4.235-15.455 4.235m13.75-49.39q3.94 4.845 4.785 13.53H74.657q.826-8.265 4.845-13.2 5.115-6.215 14.685-6.215 9.13 0 13.86 5.885m46.801 49.39q-8.966 0-15.18-4.015t-9.46-11.055q-3.19-7.095-3.3-16.28.11-9.35 3.41-16.39 3.3-7.095 9.515-11 6.215-3.96 15.07-3.96 9.02 0 15.675 4.4 6.71 4.4 9.185 12.045l-7.92 2.53q-2.09-5.336-6.655-8.25-4.51-2.97-10.34-2.97-6.545 0-10.835 3.025-4.29 2.97-6.38 8.305T135.488 64.3q.11 10.67 4.95 17.16 4.84 6.435 14.41 6.435 6.05 0 10.285-2.75 4.29-2.805 6.49-8.14l8.14 2.42q-3.3 7.92-9.68 12.1-6.38 4.125-15.235 4.125m55.683-.165q-5.335 0-9.35-1.65-3.96-1.65-6.765-4.455a23.5 23.5 0 0 1-4.455-6.38 32 32 0 0 1-2.475-7.645 43.4 43.4 0 0 1-.77-8.085V34.6h8.14v30.305q0 4.894.935 9.075t2.97 7.315q2.09 3.08 5.335 4.785 3.3 1.705 7.975 1.705 4.29 0 7.535-1.485 3.3-1.485 5.5-4.235 2.255-2.805 3.41-6.765 1.155-4.015 1.155-9.02V34.6h8.085v53.074a288 288 0 0 0-7.26 4.112V85.75q-2.856 4.136-7.095 6.546-5.61 3.19-12.87 3.19m39.298-14.108a404 404 0 0 1 8.085-3.91V64.355q0-3.52.495-7.095.495-3.63 1.98-6.82 1.485-3.245 4.455-5.555 3.244-2.64 7.095-3.08 3.849-.44 7.095.385V34.6q-2.585-.66-5.72-.44-3.135.165-6.215 1.265-3.08 1.045-5.39 3.08-1.87 1.43-3.465 3.685-.624.861-1.155 1.788V34.6h-7.26zm37.438-16.522.534-.21V94h8.085V34.6h-8.619zm0-41.53V14.25h8.619v9.075h-8.619m43.148 71.5q4.894.219 9.9-.825v-7.095q-6.381 1.044-10.725.33-4.29-.716-6.27-4.4-1.046-1.925-1.155-4.4a295 295 0 0 1-.055-6.27V41.53h18.205v-6.456l23.947 58.78-9.786 26.546h8.085l31.9-85.8h-8.25l-18 48.823-19.51-48.823H322.11V18.1h-8.03v16.5h-12.705v6.93h12.705v30.965q0 4.344.11 7.755.165 3.355 1.76 6.655 1.98 3.96 5.775 5.83 3.85 1.87 8.69 2.09" clip-rule="evenodd"/><path stroke="#fff" stroke-opacity=".28" d="M507.692 40.41c1.56 5.242-1.156 11.634-7.764 18.786-6.582 7.123-16.905 14.865-30.207 22.753-26.598 15.771-65.004 32.067-108.913 45.137s-84.975 20.43-115.868 21.771c-15.45.671-28.327-.165-37.733-2.53-9.444-2.374-15.214-6.24-16.774-11.481s1.157-11.633 7.765-18.785c6.582-7.124 16.905-14.866 30.207-22.754 26.597-15.771 65.004-32.067 108.913-45.137S422.293 27.74 453.186 26.4c15.45-.67 28.326.165 37.733 2.53 9.444 2.374 15.213 6.24 16.773 11.481Z"/></svg>