<svg xmlns="http://www.w3.org/2000/svg" width="673" height="220" fill="none" opt="1"><path fill="#fff" fill-rule="evenodd" d="M40.683 121.13q-10.721 0-19.312-3.55-8.52-3.621-14.129-10.224Q1.704 100.753 0 91.666l10.65-1.776q2.556 9.94 10.792 15.62 8.235 5.609 19.667 5.609 7.526 0 13.49-2.343 5.964-2.413 9.372-6.816 3.408-4.401 3.408-10.437 0-3.975-1.42-6.745-1.42-2.84-3.763-4.686a23.2 23.2 0 0 0-5.112-3.053 40 40 0 0 0-5.396-2.059l-25.915-7.739q-4.686-1.35-8.662-3.408-3.976-2.13-6.958-5.04-2.91-2.983-4.544-6.959t-1.633-9.088q0-8.662 4.544-14.98 4.544-6.32 12.425-9.728t17.963-3.337q10.224 0 18.247 3.621 8.094 3.622 13.348 10.366 5.254 6.675 6.958 15.833L66.527 46.51q-1.065-6.675-4.899-11.573T51.83 27.41q-5.894-2.698-12.993-2.769-6.887 0-12.283 2.343-5.325 2.272-8.449 6.248t-3.124 9.088q0 5.183 2.84 8.307 2.91 3.124 7.1 4.9 4.26 1.774 8.236 2.91l20.022 5.893q3.124.853 7.313 2.485 4.26 1.562 8.236 4.544 4.047 2.91 6.674 7.668 2.627 4.757 2.627 12.07 0 7.1-2.84 12.709-2.769 5.609-7.881 9.443-5.04 3.834-11.857 5.822-6.746 2.06-14.768 2.059m80.189 0q-11.218 0-19.454-4.97-8.165-4.97-12.709-13.987t-4.544-21.158q0-12.567 4.473-21.726t12.567-14.129q8.165-4.97 19.241-4.97 11.36 0 19.383 5.254 8.024 5.184 12.141 14.91 4.118 9.728 3.763 23.217H95.31q.603 12.399 6.463 19.596 6.603 7.952 18.673 7.952 8.236 0 14.342-3.763 6.177-3.834 9.727-11.005l9.727 3.763q-4.543 10.011-13.419 15.549-8.804 5.467-19.951 5.467m17.75-63.758q5.085 6.255 6.177 17.466H95.518q1.068-10.668 6.255-17.04 6.603-8.023 18.957-8.023 11.786 0 17.892 7.597m60.415 63.758q-11.572 0-19.596-5.183-8.022-5.183-12.212-14.271-4.118-9.159-4.26-21.016.142-12.07 4.402-21.158 4.26-9.16 12.283-14.2 8.024-5.112 19.454-5.112 11.645 0 20.235 5.68 8.662 5.68 11.857 15.55l-10.224 3.265q-2.697-6.886-8.591-10.65-5.821-3.834-13.348-3.834-8.448 0-13.987 3.905-5.538 3.834-8.236 10.721-2.697 6.887-2.769 15.833.143 13.774 6.39 22.152 6.248 8.307 18.602 8.307 7.81 0 13.277-3.55 5.538-3.621 8.378-10.508l10.508 3.124q-4.26 10.224-12.496 15.62-8.235 5.325-19.667 5.325m71.882-.213q-6.886 0-12.07-2.13-5.112-2.13-8.733-5.751a30.4 30.4 0 0 1-5.751-8.236 41.5 41.5 0 0 1-3.195-9.869 56 56 0 0 1-.994-10.437V42.32h10.508v39.121q0 6.32 1.207 11.715 1.208 5.396 3.834 9.443 2.699 3.977 6.887 6.177 4.26 2.2 10.295 2.201 5.539 0 9.727-1.917 4.26-1.917 7.1-5.467 2.911-3.621 4.402-8.733 1.491-5.183 1.491-11.644V42.32h10.437v75.486q-.984.599-1.949 1.194h-7.423v-10.651q-3.687 5.339-9.159 8.45-7.242 4.118-16.614 4.118m50.73-12.01a435 435 0 0 1 10.437-5.442V80.731q0-4.544.639-9.159.639-4.686 2.556-8.804 1.917-4.19 5.751-7.17 4.19-3.409 9.159-3.977t9.159.497V42.32q-3.337-.852-7.384-.568-4.047.213-8.023 1.633-3.976 1.35-6.958 3.976-2.413 1.846-4.473 4.757a26 26 0 0 0-1.491 2.308V42.32h-9.372zm50.953-80.142V17.05h10.437v11.715zm0 91.235V43.32h10.437V120zm55.01 1.065q6.32.283 12.78-1.065v-9.159q-8.237 1.348-13.845.426-5.538-.923-8.094-5.68-1.349-2.485-1.491-5.68a386 386 0 0 1-.071-8.094V52.266h23.501v-8.333l30.913 75.878-12.631 34.269h10.437l41.18-110.76h-10.65l-23.238 63.027-25.184-63.027h-34.328v-21.3h-10.366v21.3h-16.401v8.946h16.401v39.973q0 5.61.142 10.011.213 4.33 2.272 8.591 2.556 5.112 7.455 7.526 4.97 2.414 11.218 2.698" clip-rule="evenodd"/><path stroke="#fff" stroke-opacity=".28" d="M656.59 51.233c2 6.72-1.389 14.842-9.577 23.853-8.164 8.985-20.984 18.722-37.506 28.621-33.039 19.792-80.783 40.169-135.4 56.426s-105.732 25.308-144.217 26.805c-19.246.748-35.304-.393-47.052-3.451-11.783-3.067-19.063-8.013-21.063-14.733s1.389-14.843 9.577-23.854c8.164-8.985 20.984-18.722 37.506-28.62 33.039-19.793 80.783-40.17 135.4-56.427S549.99 34.546 588.475 33.05c19.246-.749 35.304.393 47.052 3.45 11.783 3.067 19.063 8.013 21.063 14.734Z"/></svg>