<svg xmlns="http://www.w3.org/2000/svg" width="246" height="85" fill="none" opt="1"><path fill="#fff" fill-rule="evenodd" d="M14.898 46.78q-3.926 0-7.072-1.3-3.12-1.326-5.174-3.744Q.624 39.318 0 35.99l3.9-.65q.936 3.64 3.952 5.72 3.015 2.054 7.202 2.054 2.756 0 4.94-.858 2.184-.884 3.432-2.496 1.248-1.611 1.248-3.822 0-1.455-.52-2.47a5 5 0 0 0-1.378-1.716 8.5 8.5 0 0 0-1.872-1.118 15 15 0 0 0-1.976-.754l-9.49-2.834a17.3 17.3 0 0 1-3.172-1.248 11.2 11.2 0 0 1-2.548-1.846 7.9 7.9 0 0 1-1.664-2.548q-.598-1.456-.598-3.328 0-3.171 1.664-5.486t4.55-3.562q2.886-1.249 6.578-1.222 3.744 0 6.682 1.326 2.964 1.326 4.888 3.796 1.924 2.445 2.548 5.798l-4.004.728q-.39-2.445-1.794-4.238T18.98 12.46q-2.158-.987-4.758-1.014-2.521 0-4.498.858-1.95.833-3.094 2.288a5.24 5.24 0 0 0-1.144 3.328q0 1.899 1.04 3.042a7.5 7.5 0 0 0 2.6 1.794q1.56.65 3.016 1.066l7.332 2.158q1.144.313 2.678.91 1.56.573 3.016 1.664 1.482 1.066 2.444 2.808.962 1.743.962 4.42 0 2.6-1.04 4.654a9.6 9.6 0 0 1-2.886 3.458q-1.846 1.404-4.342 2.132-2.47.754-5.408.754m29.365 0q-4.108 0-7.124-1.82-2.99-1.82-4.654-5.122-1.665-3.302-1.664-7.748 0-4.602 1.638-7.956t4.602-5.174q2.99-1.82 7.046-1.82 4.16 0 7.098 1.924 2.938 1.899 4.446 5.46 1.508 3.563 1.378 8.502H34.902q.22 4.54 2.367 7.176 2.418 2.913 6.838 2.912 3.015 0 5.252-1.378 2.262-1.404 3.562-4.03l3.562 1.378q-1.664 3.666-4.914 5.694-3.225 2.002-7.306 2.002m6.5-23.348q1.862 2.291 2.262 6.396H34.978q.392-3.906 2.291-6.24 2.418-2.937 6.942-2.938 4.316 0 6.552 2.782M72.887 46.78q-4.237 0-7.176-1.898t-4.472-5.226q-1.508-3.354-1.56-7.696.052-4.42 1.612-7.748 1.56-3.354 4.498-5.2 2.938-1.872 7.124-1.872 4.265 0 7.41 2.08 3.172 2.08 4.342 5.694L80.92 26.11q-.988-2.522-3.146-3.9-2.131-1.404-4.888-1.404-3.094 0-5.122 1.43-2.028 1.404-3.016 3.926-.989 2.522-1.014 5.798.053 5.044 2.34 8.112 2.288 3.042 6.812 3.042 2.86 0 4.862-1.3 2.028-1.325 3.068-3.848l3.848 1.144q-1.56 3.744-4.576 5.72-3.015 1.95-7.202 1.95m26.323-.078q-2.522 0-4.42-.78-1.872-.78-3.198-2.106a11.1 11.1 0 0 1-2.106-3.016 15.2 15.2 0 0 1-1.17-3.614 20.5 20.5 0 0 1-.364-3.822V17.92H91.8v14.326q0 2.314.442 4.29.443 1.976 1.404 3.458.989 1.456 2.522 2.262 1.56.806 3.77.806 2.028 0 3.562-.702a6.9 6.9 0 0 0 2.6-2.002q1.066-1.326 1.612-3.198.546-1.897.546-4.264V17.92h3.822v25.194a98 98 0 0 0-3.432 2.255V42.1a10.1 10.1 0 0 1-3.354 3.095q-2.652 1.509-6.084 1.508m18.577-6.955q1.851-1.029 3.822-2.052v-5.709q0-1.664.234-3.354.234-1.715.936-3.224.702-1.533 2.106-2.626 1.534-1.248 3.354-1.456t3.354.182V17.92q-1.222-.312-2.704-.208-1.482.078-2.938.598-1.456.495-2.548 1.456-.884.676-1.638 1.742a9 9 0 0 0-.546.846V17.92h-3.432zm17.719-27.157V8.3h3.822v4.29zm0 33.41V17.92h3.822V46zm20.145.39a18.7 18.7 0 0 0 4.68-.39v-3.354q-3.016.495-5.07.156-2.028-.337-2.964-2.08-.495-.91-.546-2.08a136 136 0 0 1-.026-2.964V21.196h8.606v-3.051l11.32 27.786-4.626 12.55h3.822l15.08-40.56h-3.9L173.518 41l-9.223-23.08h-12.57v-7.8h-3.796v7.8h-6.006v3.275h6.006v14.638q0 2.055.052 3.666.078 1.587.832 3.146.936 1.872 2.73 2.756 1.82.885 4.108.988" clip-rule="evenodd"/><path fill="#fff" fill-opacity=".28" fill-rule="evenodd" d="M235.336 30.262c2.854-3.47 3.805-6.43 3.103-8.786-.701-2.357-3.116-4.315-7.403-5.66-4.246-1.332-10.077-1.975-17.115-1.894-14.063.162-32.71 3.21-52.59 9.127s-37.159 13.563-49.021 21.118c-5.937 3.782-10.467 7.51-13.293 10.946-2.854 3.47-3.805 6.43-3.103 8.787.701 2.357 3.116 4.314 7.403 5.659 4.246 1.332 10.077 1.975 17.115 1.894 14.063-.161 32.71-3.209 52.59-9.126 19.881-5.918 37.159-13.564 49.021-21.12 5.937-3.78 10.467-7.508 13.293-10.945m-62.028 33.023c39.886-11.872 69.476-30.719 66.09-42.095s-38.466-10.972-78.353.9-69.476 30.72-66.09 42.095 38.466 10.973 78.353-.9" clip-rule="evenodd"/></svg>