<svg xmlns="http://www.w3.org/2000/svg" width="333" height="133" fill="none" opt="1"><path fill="#fff" fill-rule="evenodd" d="M22.231 57.14q-5.737 0-10.336-1.9-4.56-1.938-7.562-5.472Q1.369 46.234.457 41.37l5.7-.95q1.368 5.32 5.776 8.36 4.408 3.002 10.526 3.002 4.028 0 7.22-1.254 3.192-1.291 5.016-3.648 1.824-2.356 1.824-5.586 0-2.128-.76-3.61-.76-1.52-2.014-2.508a12.4 12.4 0 0 0-2.736-1.634 21.6 21.6 0 0 0-2.888-1.102l-13.87-4.142a25.2 25.2 0 0 1-4.636-1.824q-2.128-1.14-3.724-2.698a11.6 11.6 0 0 1-2.432-3.724q-.874-2.128-.874-4.864 0-4.635 2.432-8.018 2.432-3.382 6.65-5.206T21.281.178q5.472 0 9.766 1.938 4.333 1.938 7.144 5.548 2.812 3.572 3.724 8.474l-5.852 1.064q-.57-3.572-2.622-6.194T28.197 6.98q-3.154-1.444-6.954-1.482-3.686 0-6.574 1.254-2.85 1.215-4.522 3.344T8.475 14.96q0 2.774 1.52 4.446 1.558 1.672 3.8 2.622 2.28.95 4.408 1.558l10.716 3.154q1.673.456 3.914 1.33 2.28.836 4.408 2.432 2.166 1.559 3.572 4.104t1.406 6.46q0 3.8-1.52 6.802-1.482 3.002-4.218 5.054-2.698 2.052-6.346 3.116-3.61 1.102-7.904 1.102m42.918 0q-6.004 0-10.412-2.66-4.37-2.66-6.802-7.486T45.503 35.67q0-6.726 2.394-11.628t6.726-7.562q4.37-2.66 10.298-2.66 6.08 0 10.374 2.812 4.295 2.775 6.498 7.98 2.204 5.206 2.014 12.426H51.468q.322 6.636 3.46 10.488 3.532 4.256 9.993 4.256 4.408 0 7.676-2.014 3.306-2.052 5.206-5.89l5.206 2.014q-2.431 5.358-7.182 8.322-4.711 2.926-10.678 2.926m9.5-34.124q2.722 3.348 3.306 9.348H51.579q.572-5.71 3.348-9.12 3.534-4.294 10.146-4.294 6.307 0 9.576 4.066m32.335 34.124q-6.193 0-10.488-2.774-4.294-2.774-6.536-7.638-2.205-4.902-2.28-11.248.076-6.46 2.356-11.324 2.28-4.902 6.574-7.6 4.294-2.736 10.412-2.736 6.233 0 10.83 3.04 4.636 3.04 6.346 8.322l-5.472 1.748q-1.444-3.686-4.598-5.7-3.116-2.052-7.144-2.052-4.522 0-7.486 2.09-2.964 2.052-4.408 5.738t-1.482 8.474q.075 7.372 3.42 11.856 3.344 4.446 9.956 4.446 4.18 0 7.106-1.9 2.964-1.938 4.484-5.624l5.624 1.672q-2.28 5.472-6.688 8.36-4.408 2.85-10.526 2.85m38.472-.114q-3.686 0-6.46-1.14-2.736-1.14-4.674-3.078a16.2 16.2 0 0 1-3.078-4.408 22.2 22.2 0 0 1-1.71-5.282 30 30 0 0 1-.532-5.586V14.96h5.624v20.938q0 3.383.646 6.27.647 2.888 2.052 5.054a10.04 10.04 0 0 0 3.686 3.306q2.28 1.178 5.51 1.178 2.964 0 5.206-1.026a10.1 10.1 0 0 0 3.8-2.926q1.558-1.938 2.356-4.674.798-2.775.798-6.232V14.96h5.586v40.796l-.548.244h-4.468v-5.7q-1.974 2.856-4.902 4.522-3.876 2.204-8.892 2.204m27.151-4.827a345 345 0 0 1 5.586-2.234V35.518q0-2.431.342-4.902a16.3 16.3 0 0 1 1.368-4.712q1.026-2.242 3.078-3.838 2.243-1.824 4.902-2.128t4.902.266V14.96q-1.786-.456-3.952-.304a15 15 0 0 0-4.294.874q-2.128.721-3.724 2.128-1.291.988-2.394 2.546-.43.594-.798 1.235V14.96h-5.016zm25.471-45.03V.9h5.586v6.27zm0 48.83V14.96h5.586V56zm29.442.57a27.4 27.4 0 0 0 6.84-.57v-4.901q-4.407.721-7.41.228-2.964-.495-4.332-3.04-.721-1.33-.798-3.04-.038-1.748-.038-4.332V19.748h12.578v-4.46l16.546 40.61-6.761 18.342h5.586l22.04-59.28h-5.7l-12.437 33.732-13.479-33.732h-18.373V3.56h-5.548v11.4h-8.778v4.788h8.778v21.394q0 3.002.076 5.358.114 2.318 1.216 4.598 1.368 2.736 3.99 4.028 2.66 1.292 6.004 1.444" clip-rule="evenodd"/><path stroke="#fff" stroke-opacity=".28" d="M323.313 38.62c1.18 3.964-.485 8.687-4.774 13.902-4.275 5.198-11.073 10.778-19.9 16.4-17.647 11.24-43.301 22.586-72.778 31.36s-57.161 13.304-78.082 13.544c-10.464.121-19.207-.833-25.629-2.847-6.442-2.021-10.419-5.065-11.599-9.029s.485-8.687 4.773-13.902c4.275-5.198 11.074-10.778 19.9-16.4 17.647-11.24 43.302-22.586 72.779-31.36s57.16-13.305 78.081-13.545c10.465-.12 19.208.833 25.63 2.848 6.442 2.02 10.419 5.064 11.599 9.028Z"/></svg>