<svg xmlns="http://www.w3.org/2000/svg" width="643" height="269" fill="none" opt="1"><path fill="#fff" fill-rule="evenodd" d="M241.555 85.473v64.522c-4.492 5.702-8.003 11.352-10.437 16.877v-81.4h-35.713v-10.01h81.863v10.01zM32.873 179.76q-13.49 0-22.223-5.822Q1.988 168.118 0 157.751l10.65-1.775q1.704 6.532 7.739 10.437 6.105 3.834 15.052 3.834 8.733 0 13.774-3.621 5.04-3.691 5.041-10.011 0-3.55-1.633-5.751-1.562-2.272-6.461-4.189t-14.626-4.544q-10.437-2.84-16.33-5.68t-8.378-6.532q-2.485-3.763-2.485-9.159 0-6.532 3.692-11.431 3.692-4.97 10.224-7.668 6.533-2.77 15.194-2.77t15.478 2.841q6.886 2.769 11.076 7.81 4.19 5.042 4.97 11.715l-10.65 1.917q-1.065-6.745-6.745-10.65-5.61-3.976-14.271-4.118-8.165-.213-13.277 3.124-5.112 3.266-5.112 8.733 0 3.053 1.846 5.254 1.845 2.13 6.674 4.047 4.9 1.917 13.916 4.189 10.579 2.698 16.614 5.68t8.591 7.029 2.556 10.011q0 10.863-8.094 17.111-8.023 6.177-22.152 6.177m83.48-2.059q-6.46 1.349-12.78 1.065-6.248-.284-11.217-2.698-4.899-2.414-7.456-7.526-2.059-4.26-2.272-8.591a314 314 0 0 1-.141-10.011v-39.973H66.086v-8.946h16.4v-21.3h10.367v21.3h23.5v8.946h-23.5v39.547q0 4.828.07 8.094.142 3.195 1.492 5.68 2.555 4.757 8.093 5.68 5.61.923 13.845-.426zm10.848 0V75.462h63.9v10.01h-53.463v35.359h44.943v10.011h-44.943v36.849h53.463v10.011zM280.26 75.462v102.24h10.437v-46.15h56.516v46.15h10.366V75.462h-10.366v46.079h-56.516v-46.08z" clip-rule="evenodd"/><path stroke="#fff" stroke-opacity=".28" d="M619.797 76.266c3.075 10.331.629 21.83-6.54 33.819s-19.035 24.42-34.698 36.567c-31.325 24.292-77.752 47.38-131.857 63.485s-105.601 22.164-145.111 18.957c-19.757-1.603-36.489-5.522-49.048-11.639-12.558-6.117-20.894-14.406-23.969-24.737s-.629-21.83 6.54-33.818c7.169-11.99 19.035-24.421 34.698-36.568 31.325-24.291 77.752-47.38 131.857-63.484C455.774 42.743 507.27 36.683 546.78 39.89c19.756 1.604 36.489 5.522 49.048 11.64 12.557 6.116 20.894 14.406 23.969 24.736Z"/><rect width="102" height="102" x="402" y="75.702" fill="#fff" rx="51"/><g clip-path="url(#a)"><rect width="82" height="82" x="412" y="85.702" fill="#fff" rx="41"/><g fill="#00A3FF" filter="url(#b)" opacity=".7"><path d="m466.987 122.467.399.612c4.5 6.903 3.495 15.944-2.416 21.736-3.478 3.407-8.035 5.111-12.593 5.111z" opacity=".6"/><path d="m452.376 130.812 14.61-8.345-14.61 27.459z" opacity=".2"/><path d="m437.751 122.467-.399.612c-4.5 6.903-3.495 15.944 2.416 21.736 3.478 3.407 8.036 5.111 12.593 5.111z"/><path d="m452.357 130.812-14.611-8.345 14.611 27.459z" opacity=".6"/><path d="M452.381 112.169v14.394l12.585-7.193z" opacity=".2"/><path d="m452.378 112.169-12.595 7.201 12.595 7.193z" opacity=".6"/><path d="m452.378 100.063-12.595 19.312 12.595-7.222z"/><path d="m452.381 112.151 12.595 7.222-12.595-19.321z" opacity=".6"/></g><path fill="#00A3FF" d="m468.138 122.06.413.629c4.659 7.093 3.619 16.383-2.502 22.335-3.601 3.501-8.32 5.252-13.04 5.253z" opacity=".6"/><path fill="#00A3FF" d="m453.006 130.636 15.129-8.576-15.129 28.217z" opacity=".2"/><path fill="#00A3FF" d="m437.864 122.06-.413.629c-4.659 7.093-3.619 16.383 2.502 22.335 3.601 3.501 8.32 5.252 13.04 5.253z"/><path fill="#00A3FF" d="m452.988 130.636-15.129-8.576 15.129 28.217z" opacity=".6"/><path fill="#00A3FF" d="M453.014 111.478v14.791l13.031-7.391z" opacity=".2"/><path fill="#00A3FF" d="m453.01 111.478-13.041 7.4 13.041 7.391z" opacity=".6"/><path fill="#00A3FF" d="m453.01 99.039-13.041 19.843 13.041-7.42z"/><path fill="#00A3FF" d="m453.014 111.46 13.041 7.421-13.041-19.854z" opacity=".6"/></g><defs><clipPath id="a"><rect width="82" height="82" x="412" y="85.702" fill="#fff" rx="41"/></clipPath><filter id="b" width="81.637" height="95.874" x="411.551" y="77.052" color-interpolation-filters="sRGB" filterUnits="userSpaceOnUse"><feFlood flood-opacity="0" result="BackgroundImageFix"/><feBlend in="SourceGraphic" in2="BackgroundImageFix" result="shape"/><feGaussianBlur result="effect1_foregroundBlur_2509_11054" stdDeviation="11.5"/></filter></defs></svg>