<svg xmlns="http://www.w3.org/2000/svg" width="363" height="161" fill="none" opt="1"><path fill="#fff" fill-rule="evenodd" d="M129.283 50.599v29.874a90 90 0 0 0-5.586 5.59V50.598h-19.114v-5.358h43.814v5.358zM17.594 101.063q-7.22 0-11.894-3.116-4.635-3.115-5.7-8.664l5.7-.95q.912 3.496 4.142 5.586 3.268 2.052 8.056 2.052 4.674 0 7.372-1.938 2.698-1.975 2.698-5.358 0-1.9-.874-3.078-.836-1.216-3.458-2.242t-7.828-2.432q-5.586-1.52-8.74-3.04t-4.484-3.496q-1.33-2.014-1.33-4.902 0-3.496 1.976-6.118 1.975-2.66 5.472-4.104 3.495-1.482 8.132-1.482 4.635 0 8.284 1.52 3.686 1.482 5.928 4.18 2.242 2.699 2.66 6.27l-5.7 1.026q-.57-3.61-3.61-5.7-3.001-2.128-7.638-2.204-4.37-.114-7.106 1.672-2.736 1.748-2.736 4.674 0 1.635.988 2.812.989 1.14 3.572 2.166 2.621 1.026 7.448 2.242 5.663 1.444 8.892 3.04 3.23 1.596 4.598 3.762t1.368 5.358q0 5.814-4.332 9.158-4.295 3.306-11.856 3.306m44.68-1.102a27.4 27.4 0 0 1-6.84.57q-3.345-.152-6.004-1.444-2.622-1.292-3.99-4.028-1.102-2.28-1.216-4.598-.076-2.356-.076-5.358V63.709H35.37v-4.788h8.778v-11.4h5.548v11.4h12.578v4.788H49.696v21.166q0 2.584.038 4.332.075 1.71.798 3.04 1.368 2.545 4.332 3.04 3.002.494 7.41-.228zm5.805 0v-54.72h34.2v5.358H73.665v18.924H97.72v5.358H73.665v19.722h28.614v5.358zm82.228-54.72v54.72h5.586v-24.7h30.248v24.7h5.548v-54.72h-5.548v24.662h-30.248V45.241z" clip-rule="evenodd"/><path stroke="#fff" stroke-opacity=".28" d="M348.61 44.954c1.787 6.003.295 12.733-4.052 19.806-4.347 7.072-11.522 14.435-20.991 21.655-18.936 14.437-46.961 28.233-79.588 37.944s-63.634 13.488-87.382 11.756c-11.877-.865-21.91-3.106-29.417-6.65s-12.437-8.363-14.223-14.366-.296-12.733 4.051-19.806c4.348-7.072 11.522-14.435 20.992-21.655 18.936-14.436 46.961-28.232 79.587-37.944 32.627-9.711 63.634-13.487 87.383-11.756 11.876.866 21.909 3.107 29.416 6.65s12.437 8.364 14.224 14.366Z"/><rect width="64" height="64" x="217.76" y="41.258" fill="#fff" rx="32"/><g clip-path="url(#a)"><rect width="56" height="56" x="221.76" y="45.258" fill="#fff" rx="28"/><g fill="#00A3FF" filter="url(#b)" opacity=".7"><path d="m259.313 70.367.272.417c3.073 4.715 2.387 10.889-1.65 14.844-2.375 2.327-5.488 3.491-8.6 3.491z" opacity=".6"/><path d="m249.333 76.066 9.978-5.7-9.978 18.753z" opacity=".2"/><path d="m239.346 70.367-.273.417c-3.073 4.715-2.387 10.889 1.65 14.844 2.375 2.327 5.488 3.491 8.601 3.491z"/><path d="m249.32 76.066-9.978-5.7 9.978 18.753z" opacity=".6"/><path d="M249.336 63.334v9.83l8.595-4.912z" opacity=".2"/><path d="m249.334 63.334-8.602 4.918 8.602 4.912z" opacity=".6"/><path d="m249.334 55.066-8.602 13.189 8.602-4.932z"/><path d="m249.336 63.321 8.601 4.932-8.601-13.194z" opacity=".6"/></g><path fill="#00A3FF" d="m260.096 70.089.283.43c3.182 4.843 2.471 11.188-1.709 15.252-2.459 2.391-5.682 3.587-8.905 3.588z" opacity=".6"/><path fill="#00A3FF" d="m249.764 75.945 10.332-5.856-10.332 19.27z" opacity=".2"/><path fill="#00A3FF" d="m239.423 70.089-.282.43c-3.182 4.843-2.471 11.188 1.709 15.252 2.459 2.391 5.682 3.587 8.905 3.588z"/><path fill="#00A3FF" d="M249.751 75.945 239.42 70.09l10.331 19.27z" opacity=".6"/><path fill="#00A3FF" d="M249.768 62.862v10.1l8.899-5.047z" opacity=".2"/><path fill="#00A3FF" d="m249.765 62.862-8.906 5.053 8.906 5.048z" opacity=".6"/><path fill="#00A3FF" d="m249.765 54.367-8.906 13.552 8.906-5.068z"/><path fill="#00A3FF" d="m249.768 62.85 8.906 5.067-8.906-13.558z" opacity=".6"/></g><defs><clipPath id="a"><rect width="56" height="56" x="221.76" y="45.258" fill="#fff" rx="28"/></clipPath><filter id="b" width="70.338" height="80.061" x="214.16" y="32.059" color-interpolation-filters="sRGB" filterUnits="userSpaceOnUse"><feFlood flood-opacity="0" result="BackgroundImageFix"/><feBlend in="SourceGraphic" in2="BackgroundImageFix" result="shape"/><feGaussianBlur result="effect1_foregroundBlur_2509_11059" stdDeviation="11.5"/></filter></defs></svg>