<svg xmlns="http://www.w3.org/2000/svg" width="229" height="98" fill="none" opt="1"><rect width="40" height="40" x="148.959" y="23.398" fill="#fff" rx="20"/><g clip-path="url(#a)"><rect width="32" height="32" x="152.959" y="27.398" fill="#fff" rx="16"/><g fill="#00A3FF" filter="url(#b)" opacity=".7"><path d="m174.417 41.746.156.238a6.71 6.71 0 0 1-.943 8.483 7 7 0 0 1-4.915 1.995z" opacity=".6"/><path d="m168.716 45.002 5.702-3.256-5.702 10.715z" opacity=".2"/><path d="m163.009 41.746-.156.238a6.71 6.71 0 0 0 .943 8.483 7 7 0 0 0 4.914 1.995z"/><path d="m168.709 45.002-5.701-3.256 5.701 10.715z" opacity=".6"/><path d="M168.719 37.727v5.617l4.911-2.807z" opacity=".2"/><path d="m168.716 37.727-4.915 2.81 4.915 2.807z" opacity=".6"/><path d="m168.716 33.003-4.915 7.536 4.915-2.818z"/><path d="m168.719 37.72 4.915 2.818-4.915-7.54z" opacity=".6"/></g><path fill="#00A3FF" d="m174.867 41.587.161.245c1.819 2.768 1.413 6.394-.976 8.716a7.28 7.28 0 0 1-5.089 2.05z" opacity=".6"/><path fill="#00A3FF" d="m168.961 44.933 5.904-3.346-5.904 11.011z" opacity=".2"/><path fill="#00A3FF" d="m163.053 41.587-.161.245c-1.819 2.768-1.413 6.394.976 8.716a7.28 7.28 0 0 0 5.089 2.05z"/><path fill="#00A3FF" d="m168.955 44.933-5.904-3.346 5.904 11.011z" opacity=".6"/><path fill="#00A3FF" d="M168.965 37.457v5.772l5.085-2.884z" opacity=".2"/><path fill="#00A3FF" d="m168.962 37.457-5.089 2.888 5.089 2.884z" opacity=".6"/><path fill="#00A3FF" d="m168.962 32.603-5.089 7.744 5.089-2.896z"/><path fill="#00A3FF" d="m168.965 37.45 5.089 2.896-5.089-7.748z" opacity=".6"/></g><path fill="#fff" fill-rule="evenodd" d="M88.457 29.326v23.13c-1.661 2.19-2.948 4.371-3.822 6.51v-29.64H71.557V25.66h29.978v3.666zM12.038 63.854q-4.94 0-8.138-2.132-3.173-2.13-3.9-5.928l3.9-.65q.624 2.393 2.834 3.822 2.236 1.404 5.512 1.404 3.198 0 5.044-1.326 1.846-1.35 1.846-3.666 0-1.299-.598-2.106-.572-.832-2.366-1.534-1.794-.701-5.356-1.664-3.822-1.04-5.98-2.08t-3.068-2.392q-.91-1.377-.91-3.354 0-2.392 1.352-4.186 1.352-1.82 3.744-2.808 2.393-1.014 5.564-1.014t5.668 1.04q2.522 1.014 4.056 2.86 1.535 1.847 1.82 4.29l-3.9.702q-.39-2.469-2.47-3.9-2.054-1.455-5.226-1.508-2.99-.078-4.862 1.144-1.872 1.197-1.872 3.198 0 1.119.676 1.924.675.78 2.444 1.482 1.794.702 5.096 1.534 3.874.989 6.084 2.08t3.146 2.574q.936 1.482.936 3.666 0 3.978-2.964 6.266-2.938 2.262-8.112 2.262m30.57-.754q-2.365.495-4.68.39-2.287-.103-4.108-.988-1.794-.884-2.73-2.756-.754-1.56-.832-3.146a115 115 0 0 1-.052-3.666V38.296H24.2V35.02h6.006v-7.8h3.796v7.8h8.606v3.276h-8.606v14.482q0 1.77.026 2.964.052 1.17.546 2.08.936 1.743 2.964 2.08 2.055.339 5.07-.156zm3.973 0V25.66h23.4v3.666H50.403v12.948H66.86v3.666H50.403v13.494H69.98V63.1zM102.6 25.66V63.1h3.822V46.2h20.696v16.9h3.796V25.66h-3.796v16.874h-20.696V25.66z" clip-rule="evenodd"/><path stroke="#fff" stroke-opacity=".28" stroke-width=".659" d="M219.385 28.629c1.14 3.83.388 8.058-2.005 12.444-2.394 4.388-6.418 8.911-11.775 13.306-10.713 8.788-26.7 17.019-45.424 22.592s-36.61 7.426-50.385 5.926c-6.888-.75-12.732-2.336-17.136-4.7-4.402-2.364-7.343-5.491-8.483-9.322s-.389-8.058 2.004-12.444c2.395-4.388 6.42-8.911 11.776-13.306 10.713-8.788 26.7-17.019 45.424-22.592s36.61-7.426 50.385-5.926c6.888.75 12.732 2.335 17.135 4.7 4.403 2.363 7.344 5.491 8.484 9.322Z"/><defs><clipPath id="a"><rect width="32" height="32" x="152.959" y="27.398" fill="#fff" rx="16"/></clipPath><filter id="b" width="59.906" height="65.463" x="138.76" y="9.998" color-interpolation-filters="sRGB" filterUnits="userSpaceOnUse"><feFlood flood-opacity="0" result="BackgroundImageFix"/><feBlend in="SourceGraphic" in2="BackgroundImageFix" result="shape"/><feGaussianBlur result="effect1_foregroundBlur_2509_11064" stdDeviation="11.5"/></filter></defs></svg>