<svg xmlns="http://www.w3.org/2000/svg" width="536" height="225" fill="none" opt="1"><path fill="#fff" fill-rule="evenodd" d="M187.12 79.257v39.159a140 140 0 0 0-8.085 7.373V79.257H151.37v-7.755h63.415v7.755zm-161.655 73.04q-10.45 0-17.215-4.51-6.71-4.51-8.25-12.54l8.25-1.375q1.32 5.06 5.995 8.085 4.73 2.97 11.66 2.97 6.765 0 10.67-2.805 3.905-2.86 3.905-7.755 0-2.751-1.265-4.455-1.21-1.76-5.005-3.245t-11.33-3.52q-8.085-2.2-12.65-4.4t-6.49-5.06q-1.925-2.916-1.925-7.095 0-5.06 2.86-8.855 2.86-3.85 7.92-5.94 5.06-2.145 11.77-2.145t11.99 2.2q5.336 2.145 8.58 6.05 3.245 3.904 3.85 9.075l-8.25 1.485q-.825-5.226-5.225-8.25-4.346-3.08-11.055-3.19-6.325-.165-10.285 2.42-3.96 2.529-3.96 6.765 0 2.364 1.43 4.07 1.43 1.65 5.17 3.135 3.795 1.484 10.78 3.245 8.195 2.09 12.87 4.4t6.655 5.445 1.98 7.755q0 8.415-6.27 13.255-6.215 4.785-17.16 4.785m64.668-1.595q-5.005 1.044-9.9.825-4.84-.22-8.69-2.09-3.795-1.87-5.775-5.83-1.595-3.3-1.76-6.655a243 243 0 0 1-.11-7.755V98.232H51.193v-6.93h12.705v-16.5h8.03v16.5h18.205v6.93H71.928v30.635q0 3.74.055 6.27.11 2.474 1.155 4.4 1.98 3.684 6.27 4.4 4.346.714 10.725-.33zm8.403 0v-79.2h49.5v7.755h-41.415v27.39h34.815v7.755h-34.815v28.545h41.415v7.755zm119.644-79.2v79.2h8.085v-35.75h43.78v35.75h8.03v-79.2h-8.03v35.695h-43.78V71.502z" clip-rule="evenodd"/><path stroke="#fff" stroke-opacity=".28" d="M517.198 59.52c2.378 7.99-.194 17.123-7.058 26.852-6.86 9.724-17.958 19.968-32.463 30.125-29.006 20.309-71.54 40.2-120.729 54.841-49.188 14.642-95.677 21.249-131.068 20.109-17.698-.571-32.591-3.079-43.652-7.468-11.068-4.392-18.216-10.632-20.594-18.621s.194-17.122 7.058-26.851c6.86-9.724 17.958-19.968 32.464-30.124 29.005-20.31 71.54-40.2 120.728-54.842 49.189-14.642 95.678-21.25 131.068-20.108 17.698.57 32.592 3.078 43.653 7.467 11.068 4.392 18.216 10.632 20.593 18.62Z"/><rect width="80" height="80" x="307.48" y="70.999" fill="#fff" rx="40"/><g clip-path="url(#a)"><rect width="68" height="68" x="313.48" y="76.999" fill="#fff" rx="34"/><g fill="#00A3FF" filter="url(#b)" opacity=".7"><path d="m359.079 107.488.331.507c3.731 5.725 2.898 13.222-2.004 18.025-2.884 2.825-6.664 4.238-10.443 4.239z" opacity=".6"/><path d="m346.962 114.408 12.116-6.92-12.116 22.771z" opacity=".2"/><path d="m334.833 107.488-.33.507c-3.732 5.725-2.899 13.222 2.003 18.025 2.884 2.825 6.664 4.238 10.444 4.239z"/><path d="m346.946 114.408-12.116-6.92 12.116 22.771z" opacity=".6"/><path d="M346.965 98.948v11.936l10.436-5.964z" opacity=".2"/><path d="m346.962 98.948-10.444 5.971 10.444 5.965z" opacity=".6"/><path d="m346.962 88.909-10.444 16.014 10.444-5.989z"/><path d="m346.965 98.933 10.444 5.989-10.444-16.023z" opacity=".6"/></g><path fill="#00A3FF" d="m360.031 107.15.343.522c3.864 5.882 3.001 13.586-2.075 18.521-2.986 2.904-6.899 4.356-10.813 4.356z" opacity=".6"/><path fill="#00A3FF" d="m347.486 114.262 12.545-7.112-12.545 23.399z" opacity=".2"/><path fill="#00A3FF" d="m334.928 107.15-.343.522c-3.864 5.882-3.001 13.586 2.075 18.521 2.986 2.904 6.899 4.356 10.813 4.356z"/><path fill="#00A3FF" d="m347.469 114.262-12.545-7.112 12.545 23.399z" opacity=".6"/><path fill="#00A3FF" d="M347.49 98.375v12.265l10.807-6.128z" opacity=".2"/><path fill="#00A3FF" d="m347.486 98.375-10.814 6.136 10.814 6.129z" opacity=".6"/><path fill="#00A3FF" d="m347.486 88.06-10.814 16.455 10.814-6.154z"/><path fill="#00A3FF" d="m347.49 98.36 10.815 6.154L347.49 88.05z" opacity=".6"/></g><defs><clipPath id="a"><rect width="68" height="68" x="313.48" y="76.999" fill="#fff" rx="34"/></clipPath><filter id="b" width="75.553" height="87.359" x="309.18" y="65.899" color-interpolation-filters="sRGB" filterUnits="userSpaceOnUse"><feFlood flood-opacity="0" result="BackgroundImageFix"/><feBlend in="SourceGraphic" in2="BackgroundImageFix" result="shape"/><feGaussianBlur result="effect1_foregroundBlur_2509_11049" stdDeviation="11.5"/></filter></defs></svg>