<svg xmlns="http://www.w3.org/2000/svg" width="420" height="189" fill="none" opt="1"><path fill="#fff" fill-rule="evenodd" d="M159.21 88.73V67.929h12.578V63.14H159.21v-11.4h-5.548v11.4h-8.778v4.788h8.778v21.394q0 2.29.044 4.206a133 133 0 0 1 5.504-4.797M19.114 54.819v49.362H24.7V54.818h19.114V49.46H0v5.358zm24.729 8.322v41.04h5.585V83.698q0-2.431.343-4.902a16.3 16.3 0 0 1 1.367-4.712q1.026-2.242 3.079-3.838 2.241-1.824 4.901-2.128 2.661-.304 4.902.266V63.14q-1.785-.456-3.951-.304a15 15 0 0 0-4.294.874q-2.129.721-3.724 2.128-1.293.988-2.395 2.546-.43.594-.797 1.235v-6.48zm34.34 40.926q2.775 1.14 6.46 1.14 5.016 0 8.892-2.204 2.928-1.665 4.902-4.523v5.701h5.016V63.14h-5.586v21.888q0 3.457-.798 6.232-.798 2.736-2.356 4.674a10.1 10.1 0 0 1-3.8 2.926q-2.242 1.026-5.206 1.026-3.23 0-5.51-1.178a10.04 10.04 0 0 1-3.686-3.306q-1.405-2.166-2.052-5.054-.646-2.888-.646-6.27V63.14H68.19v22.572q0 2.774.532 5.586.533 2.775 1.71 5.282a16.2 16.2 0 0 0 3.078 4.408q1.938 1.938 4.674 3.078m37.031-1.9q4.674 3.116 11.894 3.116 7.563 0 11.856-3.306 4.332-3.344 4.332-9.158 0-3.192-1.368-5.358t-4.598-3.762-8.892-3.04q-4.826-1.216-7.448-2.242-2.583-1.026-3.572-2.166-.987-1.178-.988-2.812 0-2.926 2.736-4.674 2.736-1.785 7.106-1.672 4.636.075 7.638 2.204 3.04 2.09 3.61 5.7l5.7-1.026q-.417-3.572-2.66-6.27-2.241-2.698-5.928-4.18-3.648-1.52-8.284-1.52-4.635 0-8.132 1.482-3.495 1.444-5.472 4.104-1.976 2.622-1.976 6.118 0 2.888 1.33 4.902 1.33 1.976 4.484 3.496t8.74 3.04q5.206 1.406 7.828 2.432t3.458 2.242q.874 1.178.874 3.078 0 3.381-2.698 5.358-2.697 1.938-7.372 1.938-4.788 0-8.056-2.052-3.23-2.091-4.142-5.586l-5.7.95q1.065 5.548 5.7 8.664m204.974 20.254 6.76-18.341L310.27 63.14h5.928l13.479 33.733 12.437-33.733h5.7l-22.04 59.28zm-37.691-19.95q3.913 2.85 9.576 2.85 5.738 0 9.804-2.85 4.066-2.888 6.232-7.79t2.166-11.058q0-6.118-2.166-11.02-2.128-4.902-6.156-7.752T292.301 62q-5.776 0-9.728 2.812a16.5 16.5 0 0 0-3.344 3.166V49.46h-5.624v54.72h5.016v-5.702a17 17 0 0 0 3.876 3.992m-3.876-18.848q0-4.827 1.406-8.512 1.406-3.724 4.218-5.814 2.85-2.09 7.144-2.09 4.408 0 7.258 2.166 2.888 2.166 4.294 5.89 1.406 3.725 1.406 8.36 0 4.674-1.444 8.436-1.406 3.723-4.256 5.89t-7.144 2.166q-4.37 0-7.22-2.128t-4.256-5.852q-1.406-3.763-1.406-8.512m-44.762 21.698q-5.737 0-9.804-2.85-4.066-2.888-6.232-7.79t-2.166-11.058q0-6.118 2.128-11.02 2.166-4.902 6.194-7.752t9.652-2.85q5.777 0 9.728 2.812a16.3 16.3 0 0 1 3.344 3.177V49.46h5.624v54.72h-5.016v-5.702a17 17 0 0 1-3.876 3.992q-3.913 2.85-9.576 2.85m12.046-13.186q1.406-3.763 1.406-8.512 0-4.827-1.406-8.512-1.406-3.724-4.256-5.814-2.811-2.09-7.106-2.09-4.407 0-7.296 2.166-2.887 2.166-4.294 5.89-1.368 3.725-1.368 8.36 0 4.674 1.406 8.436 1.444 3.723 4.294 5.89t7.144 2.166q4.37 0 7.22-2.128t4.256-5.852m-63.191 10.526q4.409 2.66 10.412 2.66 5.967 0 10.678-2.926 4.75-2.964 7.182-8.322l-5.206-2.014q-1.9 3.838-5.206 5.89-3.267 2.014-7.676 2.014-6.46 0-9.994-4.256-3.137-3.852-3.459-10.488h32.339q.19-7.22-2.014-12.426-2.203-5.205-6.498-7.98Q198.979 62 192.898 62q-5.928 0-10.298 2.66-4.332 2.66-6.726 7.562T173.48 83.85q0 6.498 2.432 11.324t6.802 7.486m23.218-22.116q-.584-6-3.306-9.348-3.267-4.065-9.576-4.066-6.612 0-10.146 4.294-2.775 3.41-3.347 9.12z" clip-rule="evenodd"/><path stroke="#fff" stroke-opacity=".28" d="M402.752 52.727c2.178 7.082.586 15.013-4.268 23.333-4.855 8.32-12.949 16.982-23.674 25.476-21.447 16.986-53.333 33.232-90.576 44.691s-72.746 15.947-100.032 13.955c-13.645-.996-25.208-3.61-33.901-7.763-8.692-4.152-14.467-9.816-16.645-16.897-2.179-7.081-.587-15.013 4.267-23.333 4.855-8.32 12.949-16.982 23.674-25.476 21.447-16.986 53.333-33.232 90.576-44.69 37.242-11.46 72.746-15.948 100.033-13.956 13.644.996 25.207 3.61 33.9 7.763 8.692 4.152 14.467 9.816 16.646 16.897Z"/></svg>