<svg xmlns="http://www.w3.org/2000/svg" width="906" height="378" fill="none" opt="1"><path fill="#fff" fill-rule="evenodd" d="M297.899 225.025a591 591 0 0 1-.008-3.07v-39.547h23.501v-8.946h-23.501v-21.3h-10.366v21.3h-16.401v8.946h16.401v39.973q0 5.61.142 10.011.115 2.33.763 4.638c2.678-3.936 5.842-7.943 9.469-12.005M36.133 157.913v92.229H46.57v-92.229h35.713v-10.011H.42v10.011zm46.203 15.549v76.68h10.437v-38.269q0-4.543.64-9.159.638-4.685 2.555-8.804 1.917-4.188 5.751-7.171 4.19-3.408 9.159-3.976 4.971-.567 9.159.497v-9.798q-3.337-.852-7.384-.568-4.047.213-8.023 1.633-3.976 1.35-6.958 3.976-2.414 1.847-4.473 4.757a26 26 0 0 0-1.49 2.309v-12.107zm64.163 76.467q5.183 2.13 12.07 2.13 9.372 0 16.614-4.118 5.47-3.11 9.159-8.45v10.651h9.372v-76.68h-10.437v40.896q0 6.462-1.491 11.644-1.49 5.112-4.402 8.733-2.84 3.55-7.1 5.467-4.19 1.917-9.727 1.917-6.035 0-10.295-2.201-4.189-2.2-6.887-6.177-2.627-4.046-3.834-9.443t-1.207-11.715v-39.121h-10.508v42.174q0 5.184.994 10.437a41.5 41.5 0 0 0 3.195 9.869 30.3 30.3 0 0 0 5.751 8.236q3.621 3.621 8.733 5.751m69.19-3.55q8.733 5.822 22.223 5.822 14.129 0 22.152-6.177 8.094-6.248 8.094-17.111 0-5.964-2.556-10.011t-8.591-7.029q-6.036-2.982-16.614-5.68-9.017-2.272-13.916-4.189-4.829-1.917-6.674-4.047-1.846-2.2-1.846-5.254 0-5.466 5.112-8.733 5.112-3.336 13.277-3.124 8.661.143 14.271 4.118 5.68 3.906 6.745 10.65l10.65-1.917q-.782-6.674-4.97-11.715-4.19-5.04-11.076-7.81-6.816-2.84-15.478-2.84-8.663 0-15.194 2.769-6.532 2.698-10.224 7.668-3.693 4.9-3.692 11.431 0 5.397 2.485 9.159 2.484 3.693 8.378 6.532 5.893 2.84 16.33 5.68 9.727 2.627 14.626 4.544 4.898 1.918 6.461 4.189 1.632 2.202 1.633 5.751 0 6.32-5.041 10.011-5.041 3.621-13.774 3.621-8.947 0-15.052-3.834-6.036-3.904-7.739-10.437l-10.65 1.775q1.987 10.366 10.65 16.188M439.493 252.272q-10.72 0-18.318-5.325-7.597-5.396-11.644-14.555t-4.047-20.661q0-11.43 3.976-20.59 4.047-9.159 11.573-14.484t18.034-5.325q10.792 0 18.176 5.254a30.5 30.5 0 0 1 6.248 5.936v-34.62h10.508v102.24h-9.372V239.49a31.8 31.8 0 0 1-7.242 7.457q-7.312 5.325-17.892 5.325M462 227.635q2.627-7.029 2.627-15.904 0-9.016-2.627-15.904-2.627-6.957-7.952-10.863-5.254-3.905-13.277-3.905-8.236 0-13.632 4.047-5.396 4.048-8.023 11.005-2.556 6.959-2.556 15.62 0 8.733 2.627 15.762 2.698 6.958 8.023 11.005t13.348 4.047q8.165 0 13.49-3.976T462 227.635m68.369 19.312q7.313 5.325 17.892 5.325 10.72 0 18.318-5.325 7.596-5.396 11.644-14.555 4.047-9.159 4.047-20.661 0-11.43-4.047-20.59-3.976-9.159-11.502-14.484t-18.034-5.325q-10.793 0-18.176 5.254a30.9 30.9 0 0 0-6.248 5.915v-34.599h-10.508v102.24h9.372V239.49a31.8 31.8 0 0 0 7.242 7.457m-7.242-35.216q0-9.016 2.627-15.904 2.626-6.957 7.881-10.863 5.325-3.905 13.348-3.905 8.236 0 13.561 4.047 5.395 4.048 8.023 11.005 2.627 6.959 2.627 15.62 0 8.733-2.698 15.762-2.628 6.958-7.952 11.005-5.325 4.047-13.348 4.047-8.165 0-13.49-3.976t-7.952-10.934q-2.627-7.029-2.627-15.904m90.296 38.222-12.632 34.269h10.437l41.18-110.76h-10.65l-23.238 63.027-25.184-63.027H582.26zm-269.49-2.65q8.235 4.97 19.454 4.97 11.146 0 19.951-5.467 8.874-5.538 13.419-15.549l-9.727-3.763q-3.55 7.17-9.727 11.005-6.107 3.763-14.342 3.763-12.07 0-18.673-7.952-5.86-7.198-6.463-19.596h60.42300000000001q.354-13.491-3.763-23.217-4.119-9.728-12.141-14.91-8.024-5.254-19.383-5.254-11.076 0-19.241 4.97-8.094 4.97-12.567 14.129t-4.473 21.726q0 12.14 4.544 21.158 4.543 9.016 12.709 13.987m43.38-41.322q-1.09-11.212-6.176-17.466-6.107-7.597-17.892-7.597-12.354 0-18.957 8.023-5.187 6.37-6.255 17.04z" clip-rule="evenodd"/><path stroke="#fff" stroke-opacity=".28" d="M875.897 96.405c4.022 13.073-.388 28.154-12.005 44.291-11.611 16.129-30.365 33.23-54.84 50.285-48.946 34.107-120.675 67.966-203.587 93.476s-161.269 37.829-220.922 37.135c-29.83-.347-54.953-3.948-73.622-10.76-18.679-6.816-30.805-16.81-34.827-29.883s.388-28.154 12.005-44.291c11.611-16.129 30.365-33.23 54.84-50.285 48.946-34.107 120.676-67.966 203.587-93.476 82.912-25.51 161.27-37.829 220.922-37.135 29.83.347 54.953 3.948 73.622 10.76 18.679 6.816 30.805 16.81 34.827 29.883Z"/></svg>