<svg xmlns="http://www.w3.org/2000/svg" width="584" height="266" fill="none" opt="1"><path fill="#fff" fill-rule="evenodd" d="M279.88 75.11q8.764.012 14.959 4.07 6.215 4.014 9.405 11.55 3.19 7.535 2.915 17.984h-46.807q.467 9.604 5.007 15.18 5.115 6.16 14.465 6.16 6.38 0 11.11-2.915 4.785-2.97 7.535-8.525l7.535 2.915q-3.52 7.755-10.395 12.045-6.82 4.236-15.455 4.235-8.69 0-15.07-3.85-6.326-3.85-9.845-10.835-3.52-6.984-3.52-16.39 0-.485.008-.964l-.125.09q.15-9.182 3.458-15.956 3.465-7.095 9.735-10.945 6.325-3.85 14.905-3.85zm.19 7.424h-.026q-9.57 0-14.685 6.215-4.018 4.935-4.846 13.2h38.175q-.845-8.685-4.784-13.53a14.8 14.8 0 0 0-6.256-4.587l-.052.028q-3.284-1.303-7.526-1.326m-49.292 40.174a11.3 11.3 0 0 1-.288-2.114 302 302 0 0 1-.055-6.27V83.689h18.205v-6.93h-18.205v-16.5h-8.03v16.5H209.7v6.93h12.705v30.965q0 4.346.11 7.755.165 3.35 1.756 6.646a166 166 0 0 1 6.507-6.347M27.665 64.714v71.445h8.085V64.714h27.665v-7.755H0v7.755zm35.791 12.045v59.4h8.085v-29.645q0-3.52.495-7.095.495-3.63 1.98-6.82 1.485-3.245 4.455-5.555 3.246-2.64 7.095-3.08 3.85-.44 7.095.385v-7.59q-2.585-.66-5.72-.44-3.135.165-6.215 1.265-3.08 1.045-5.39 3.08-1.869 1.43-3.465 3.685-.623.86-1.155 1.788v-9.378zm49.704 59.235q4.015 1.65 9.35 1.65 7.26 0 12.87-3.19 4.238-2.41 7.095-6.546v8.251h7.26v-59.4h-8.085v31.68q0 5.005-1.155 9.02-1.155 3.96-3.41 6.765-2.2 2.75-5.5 4.235-3.245 1.485-7.535 1.485-4.675 0-7.975-1.705-3.245-1.706-5.335-4.785-2.035-3.135-2.97-7.315t-.935-9.075V76.759h-8.14v32.67q0 4.016.77 8.085a32.1 32.1 0 0 0 2.475 7.645 23.5 23.5 0 0 0 4.455 6.38q2.805 2.805 6.765 4.455m53.597-2.75q6.765 4.51 17.215 4.51 10.946 0 17.16-4.785 6.27-4.84 6.27-13.255 0-4.62-1.98-7.755t-6.655-5.445q-4.674-2.31-12.87-4.4-6.984-1.76-10.78-3.245-3.74-1.485-5.17-3.135-1.43-1.705-1.43-4.07 0-4.235 3.96-6.765 3.96-2.585 10.285-2.42 6.711.11 11.055 3.19 4.4 3.025 5.225 8.25l8.25-1.485q-.604-5.17-3.85-9.075-3.244-3.905-8.58-6.05-5.28-2.2-11.99-2.2t-11.77 2.145q-5.06 2.09-7.92 5.94-2.86 3.795-2.86 8.855 0 4.18 1.925 7.095 1.926 2.86 6.49 5.06 4.566 2.2 12.65 4.4 7.536 2.035 11.33 3.52 3.796 1.485 5.005 3.245 1.266 1.706 1.265 4.455 0 4.894-3.905 7.755-3.905 2.805-10.67 2.805-6.93 0-11.66-2.97-4.675-3.025-5.995-8.085l-8.25 1.375q1.54 8.03 8.25 12.54m297.301 29.315 9.785-26.547-24.14-59.253h8.58l19.509 48.824 18.001-48.824h8.25l-31.9 85.8zm-54.552-28.875q5.665 4.125 13.86 4.125 8.305 0 14.19-4.125 5.885-4.18 9.02-11.275t3.135-16.005q0-8.855-3.135-15.95-3.08-7.095-8.91-11.22t-13.97-4.125q-8.36 0-14.08 4.07a24 24 0 0 0-4.84 4.582V56.959h-8.14v79.2h7.26v-8.252a24.6 24.6 0 0 0 5.61 5.777m-5.61-27.28q0-6.985 2.035-12.32 2.036-5.39 6.105-8.415 4.125-3.025 10.34-3.025 6.38 0 10.505 3.135 4.18 3.135 6.215 8.525t2.035 12.1q0 6.765-2.09 12.21-2.035 5.39-6.16 8.525t-10.34 3.135q-6.325 0-10.45-3.08t-6.16-8.47q-2.035-5.445-2.035-12.32m-64.787 31.405q-8.304 0-14.19-4.125-5.885-4.18-9.02-11.275t-3.135-16.005q0-8.855 3.08-15.95 3.135-7.095 8.965-11.22t13.97-4.125q8.36 0 14.08 4.07a23.6 23.6 0 0 1 4.84 4.598V56.959h8.14v79.2h-7.26v-8.252a24.6 24.6 0 0 1-5.61 5.777q-5.664 4.125-13.86 4.125m17.435-19.085q2.035-5.445 2.035-12.32 0-6.985-2.035-12.32-2.035-5.39-6.16-8.415-4.07-3.025-10.285-3.025-6.38 0-10.56 3.135t-6.215 8.525q-1.98 5.39-1.98 12.1 0 6.765 2.035 12.21 2.09 5.39 6.215 8.525t10.34 3.135q6.325 0 10.45-3.08t6.16-8.47" clip-rule="evenodd"/><path stroke="#fff" stroke-opacity=".28" d="M559.099 77.734c3.223 10.477 1.364 22.019-4.839 33.952-6.205 11.936-16.74 24.231-30.8 36.172-28.118 23.88-70.259 46.278-119.76 61.508-49.5 15.23-96.943 20.395-133.622 16.451-18.341-1.972-33.965-6.218-45.806-12.602-11.838-6.382-19.864-14.882-23.088-25.359s-1.364-22.019 4.839-33.952c6.205-11.936 16.739-24.231 30.799-36.172 28.119-23.88 70.26-46.278 119.76-61.508s96.944-20.395 133.623-16.452c18.341 1.972 33.965 6.219 45.806 12.603 11.838 6.382 19.864 14.882 23.088 25.359Z"/></svg>