<svg xmlns="http://www.w3.org/2000/svg" width="278" height="124" fill="none" opt="1"><path fill="#fff" fill-rule="evenodd" d="M108.933 59.352v-14.35h8.606v-3.276h-8.606v-7.8h-3.796v7.8h-6.006v3.276h6.006V59.64q0 1.937.046 3.48a71 71 0 0 1 3.75-3.768m-95.855-23.32v33.774H16.9V36.032h13.078v-3.666H0v3.666zm16.92 5.694v28.08h3.821V55.792q0-1.664.234-3.354.235-1.716.937-3.224.702-1.534 2.105-2.626 1.534-1.248 3.355-1.456 1.819-.208 3.353.182v-3.588q-1.221-.312-2.703-.208-1.483.078-2.939.598-1.456.495-2.547 1.456-.885.675-1.639 1.742a9 9 0 0 0-.546.846v-4.434zm23.496 28.002q1.897.78 4.42.78 3.432 0 6.084-1.508a10.1 10.1 0 0 0 3.354-3.094v3.9h3.432v-28.08h-3.822v14.976q0 2.367-.546 4.264-.547 1.872-1.612 3.198a6.9 6.9 0 0 1-2.6 2.002q-1.534.702-3.562.702-2.21 0-3.77-.806A6.87 6.87 0 0 1 52.35 63.8q-.963-1.481-1.404-3.458-.442-1.975-.442-4.29V41.726h-3.848V57.17q0 1.898.364 3.822.363 1.898 1.17 3.614a11.1 11.1 0 0 0 2.106 3.016q1.326 1.326 3.198 2.106m25.337-1.3q3.197 2.132 8.138 2.132 5.174 0 8.112-2.262 2.964-2.288 2.964-6.266 0-2.184-.936-3.666t-3.146-2.574-6.084-2.08q-3.303-.832-5.096-1.534-1.769-.702-2.444-1.482-.675-.805-.676-1.924 0-2.001 1.872-3.198 1.871-1.221 4.862-1.144 3.171.053 5.226 1.508 2.08 1.43 2.47 3.9l3.9-.702q-.286-2.445-1.82-4.29t-4.056-2.86q-2.497-1.04-5.668-1.04-3.173 0-5.564 1.014-2.392.988-3.744 2.808-1.352 1.794-1.352 4.186 0 1.976.91 3.354.91 1.352 3.068 2.392t5.98 2.08q3.561.962 5.356 1.664 1.793.703 2.366 1.534.597.807.598 2.106 0 2.314-1.846 3.666-1.846 1.326-5.044 1.326-3.276 0-5.512-1.404-2.21-1.43-2.834-3.822l-3.9.65q.727 3.796 3.9 5.928m141.307 13.86 4.626-12.549-11.412-28.01h4.056l9.223 23.08 8.509-23.08h3.9l-15.08 40.56zm-25.788-13.65q2.677 1.95 6.552 1.95 3.925 0 6.708-1.95 2.782-1.975 4.264-5.33 1.482-3.353 1.482-7.565 0-4.186-1.482-7.54-1.457-3.354-4.212-5.304t-6.604-1.95q-3.952 0-6.656 1.924a11.3 11.3 0 0 0-2.288 2.166v-12.67h-3.848v37.44h3.432v-3.901a11.7 11.7 0 0 0 2.652 2.73m-2.652-12.895q0-3.303.962-5.824.962-2.548 2.886-3.978 1.95-1.43 4.888-1.43 3.016 0 4.966 1.482 1.976 1.482 2.938 4.03t.962 5.72q0 3.198-.988 5.772-.962 2.548-2.912 4.03t-4.888 1.482q-2.99 0-4.94-1.456-1.95-1.457-2.912-4.004-.962-2.575-.962-5.824m-30.626 14.846q-3.927 0-6.708-1.95-2.782-1.976-4.264-5.33t-1.482-7.566q0-4.186 1.456-7.54 1.481-3.354 4.238-5.304 2.755-1.95 6.604-1.95 3.951 0 6.656 1.924 1.296.923 2.288 2.173V32.37h3.848v37.44h-3.432v-3.901a11.7 11.7 0 0 1-2.652 2.73q-2.679 1.95-6.552 1.95m8.242-9.022q.962-2.575.962-5.824 0-3.303-.962-5.824-.963-2.548-2.912-3.978-1.925-1.43-4.862-1.43-3.017 0-4.992 1.482-1.977 1.482-2.938 4.03-.936 2.547-.936 5.72 0 3.198.962 5.772.988 2.548 2.938 4.03t4.888 1.482q2.99 0 4.94-1.456 1.95-1.457 2.912-4.004m-43.236 7.202q3.015 1.82 7.124 1.82 4.081 0 7.306-2.002 3.249-2.028 4.914-5.694l-3.562-1.378q-1.3 2.625-3.562 4.03-2.237 1.377-5.252 1.378-4.42 0-6.838-2.912-2.147-2.637-2.367-7.176h22.127q.13-4.941-1.378-8.502t-4.446-5.46q-2.938-1.924-7.098-1.924-4.056 0-7.046 1.82-2.964 1.82-4.602 5.174t-1.638 7.956q0 4.446 1.664 7.748 1.663 3.301 4.654 5.122m15.886-15.132q-.4-4.106-2.262-6.396-2.237-2.782-6.552-2.782-4.524 0-6.942 2.938-1.9 2.332-2.291 6.24z" clip-rule="evenodd"/><path stroke="#fff" stroke-opacity=".28" stroke-width=".727" d="M266.336 35.394c1.461 4.75.521 10.027-2.497 15.531-3.019 5.505-8.103 11.209-14.873 16.775-13.537 11.133-33.755 21.671-57.446 28.96s-46.335 9.939-63.789 8.342c-8.728-.799-16.14-2.658-21.731-5.514-5.59-2.855-9.334-6.692-10.796-11.44-1.46-4.75-.52-10.028 2.497-15.532 3.019-5.505 8.104-11.209 14.873-16.775 13.538-11.133 33.756-21.671 57.446-28.96 23.691-7.29 46.336-9.938 63.79-8.341 8.728.798 16.139 2.657 21.731 5.513 5.59 2.855 9.334 6.692 10.795 11.441Z"/></svg>