<svg xmlns="http://www.w3.org/2000/svg" width="72" height="88" fill="none" opt="1"><g filter="url(#a)" opacity=".8"><path fill="#CDBEFF" d="m25.368 35.706 9.882-5.765 9.882 5.765-9.882 5.765z"/><path fill="#936DFF" d="m35.25 50.941 9.882-5.765v-9.47L35.25 41.47z"/><path fill="#A080FF" d="M25.368 35.706v9.47l9.882 5.765v-9.47z"/><path fill="#9573FD" fill-rule="evenodd" d="M38.132 33.441h-5.765v2.47c0 .91 1.29 1.648 2.883 1.648s2.882-.738 2.882-1.647z" clip-rule="evenodd"/><ellipse cx="35.25" cy="33.441" fill="#F7EEFF" rx="2.882" ry="1.647"/><path fill="#CDBEFF" d="m35.25 41.47 9.882-5.764 9.883 5.765-9.883 5.764z"/><path fill="url(#b)" d="m45.132 56.706 9.883-5.765v-9.47l-9.883 5.764z"/><path fill="#A080FF" d="M35.25 41.47v9.471l9.882 5.765v-9.47z"/><path fill="#9573FD" fill-rule="evenodd" d="M48.015 39.206H42.25v2.47c0 .91 1.29 1.647 2.883 1.647 1.591 0 2.882-.737 2.882-1.647v-2.471" clip-rule="evenodd"/><ellipse cx="45.132" cy="39.206" fill="#F7EEFF" rx="2.882" ry="1.647"/><path fill="#FFB8B4" d="m15.485 41.47 9.883-5.764 9.882 5.765-9.882 5.764z"/><path fill="#EA6463" d="m25.368 56.706 9.882-5.765v-9.47l-9.882 5.764z"/><path fill="#F88887" fill-rule="evenodd" d="M28.25 39.206h-5.765v2.47c0 .91 1.291 1.647 2.883 1.647s2.882-.737 2.882-1.647v-2.47" clip-rule="evenodd"/><ellipse cx="25.368" cy="39.206" fill="#FFEDEF" rx="2.882" ry="1.647"/><path fill="#FFB8B4" d="m25.368 47.235 9.882-5.764 9.882 5.764L35.25 53z"/><g filter="url(#c)"><path fill="url(#d)" d="m35.25 62.47 9.882-5.764v-9.47L35.25 53z"/></g><path fill="url(#e)" fill-rule="evenodd" d="M15.485 50.941v-9.47l9.883 5.764L35.25 53v9.47l-9.882-5.764z" clip-rule="evenodd"/><path fill="#F88887" fill-rule="evenodd" d="M38.132 44.97h-5.764v2.471c0 .91 1.29 1.647 2.882 1.647s2.882-.737 2.882-1.647z" clip-rule="evenodd"/><ellipse cx="35.25" cy="44.971" fill="#FFEDEF" rx="2.882" ry="1.647"/></g><path fill="#CDBEFF" d="m26.868 35.706 9.882-5.765 9.882 5.765-9.882 5.765z"/><path fill="#936DFF" d="m36.75 50.941 9.882-5.765v-9.47L36.75 41.47z"/><path fill="#A080FF" d="M26.868 35.706v9.47l9.882 5.765v-9.47z"/><path fill="#9573FD" fill-rule="evenodd" d="M39.632 33.441h-5.765v2.47c0 .91 1.29 1.648 2.883 1.648s2.882-.738 2.882-1.647z" clip-rule="evenodd"/><ellipse cx="36.75" cy="33.441" fill="#F7EEFF" rx="2.882" ry="1.647"/><path fill="#CDBEFF" d="m36.75 41.47 9.882-5.764 9.883 5.765-9.883 5.764z"/><path fill="url(#f)" d="m46.632 56.706 9.883-5.765v-9.47l-9.883 5.764z"/><path fill="#A080FF" d="M36.75 41.47v9.471l9.882 5.765v-9.47z"/><path fill="#9573FD" fill-rule="evenodd" d="M49.515 39.206H43.75v2.47c0 .91 1.29 1.647 2.883 1.647 1.591 0 2.882-.737 2.882-1.647v-2.471" clip-rule="evenodd"/><ellipse cx="46.632" cy="39.206" fill="#F7EEFF" rx="2.882" ry="1.647"/><path fill="#FFB8B4" d="m16.985 41.47 9.883-5.764 9.882 5.765-9.882 5.764z"/><path fill="#EA6463" d="m26.868 56.706 9.882-5.765v-9.47l-9.882 5.764z"/><path fill="#F88887" fill-rule="evenodd" d="M29.75 39.206h-5.765v2.47c0 .91 1.291 1.647 2.883 1.647s2.882-.737 2.882-1.647v-2.47" clip-rule="evenodd"/><ellipse cx="26.868" cy="39.206" fill="#FFEDEF" rx="2.882" ry="1.647"/><path fill="#FFB8B4" d="m26.868 47.235 9.882-5.764 9.882 5.764L36.75 53z"/><g filter="url(#g)"><path fill="url(#h)" d="m36.75 62.47 9.882-5.764v-9.47L36.75 53z"/></g><path fill="url(#i)" fill-rule="evenodd" d="M16.985 50.941v-9.47l9.883 5.764L36.75 53v9.47l-9.882-5.764z" clip-rule="evenodd"/><path fill="#F88887" fill-rule="evenodd" d="M39.632 44.97h-5.764v2.471c0 .91 1.29 1.647 2.882 1.647s2.882-.737 2.882-1.647z" clip-rule="evenodd"/><ellipse cx="36.75" cy="44.971" fill="#FFEDEF" rx="2.882" ry="1.647"/><defs><linearGradient id="b" x1="50.074" x2="50.074" y1="41.471" y2="56.706" gradientUnits="userSpaceOnUse"><stop stop-color="#632DFF"/><stop offset="1" stop-color="#AF93FF" stop-opacity=".78"/></linearGradient><linearGradient id="d" x1="35.961" x2="49.253" y1="52.013" y2="74.301" gradientUnits="userSpaceOnUse"><stop stop-color="#D24544"/><stop offset="1" stop-color="#FB9190" stop-opacity=".24"/></linearGradient><linearGradient id="e" x1="25.368" x2="24.656" y1="41.471" y2="56.766" gradientUnits="userSpaceOnUse"><stop stop-color="#F79998"/><stop offset="1" stop-color="#F88887"/></linearGradient><linearGradient id="f" x1="51.574" x2="51.574" y1="41.471" y2="56.706" gradientUnits="userSpaceOnUse"><stop stop-color="#632DFF"/><stop offset="1" stop-color="#AF93FF" stop-opacity=".78"/></linearGradient><linearGradient id="h" x1="37.461" x2="50.753" y1="52.013" y2="74.301" gradientUnits="userSpaceOnUse"><stop stop-color="#D24544"/><stop offset="1" stop-color="#FB9190" stop-opacity=".24"/></linearGradient><linearGradient id="i" x1="26.868" x2="26.156" y1="41.471" y2="56.766" gradientUnits="userSpaceOnUse"><stop stop-color="#F79998"/><stop offset="1" stop-color="#F88887"/></linearGradient><filter id="a" width="61.529" height="54.529" x="4.485" y="18.941" color-interpolation-filters="sRGB" filterUnits="userSpaceOnUse"><feFlood flood-opacity="0" result="BackgroundImageFix"/><feBlend in="SourceGraphic" in2="BackgroundImageFix" result="shape"/><feGaussianBlur result="effect1_foregroundBlur_12320_114373" stdDeviation="5.5"/></filter><filter id="c" width="117.882" height="123.235" x="-18.75" y="-6.765" color-interpolation-filters="sRGB" filterUnits="userSpaceOnUse"><feFlood flood-opacity="0" result="BackgroundImageFix"/><feGaussianBlur in="BackgroundImageFix" stdDeviation="27"/><feComposite in2="SourceAlpha" operator="in" result="effect1_backgroundBlur_12320_114373"/><feBlend in="SourceGraphic" in2="effect1_backgroundBlur_12320_114373" result="shape"/></filter><filter id="g" width="117.882" height="123.235" x="-17.25" y="-6.765" color-interpolation-filters="sRGB" filterUnits="userSpaceOnUse"><feFlood flood-opacity="0" result="BackgroundImageFix"/><feGaussianBlur in="BackgroundImageFix" stdDeviation="27"/><feComposite in2="SourceAlpha" operator="in" result="effect1_backgroundBlur_12320_114373"/><feBlend in="SourceGraphic" in2="effect1_backgroundBlur_12320_114373" result="shape"/></filter></defs></svg>