<svg xmlns="http://www.w3.org/2000/svg" width="72" height="88" fill="none" opt="1"><g filter="url(#a)" opacity=".6"><path fill="#CDBEFF" d="M26.647 35.96 37 29.923l10.353 6.039L37 42z"/><path fill="#936DFF" d="m37 51.922 10.353-6.04v-9.921L37 42z"/><path fill="#A080FF" d="M26.647 35.96v9.922L37 51.922V42z"/><path fill="#BCAAFC" d="m36.137 35.098 3.549-2.028a1.666 1.666 0 0 1 1.66 2.89l-2.664 1.538z"/><path fill="#9573FD" fill-rule="evenodd" d="M40.02 33.588h-6.04v2.588c0 .953 1.352 1.726 3.02 1.726s3.02-.773 3.02-1.726z" clip-rule="evenodd"/><ellipse cx="37" cy="33.588" fill="#F7EEFF" rx="3.02" ry="1.725"/><path fill="#CDBEFF" d="m37 42 10.353-6.04L57.706 42l-10.353 6.04z"/><path fill="url(#b)" d="m47.353 57.96 10.353-6.038V42l-10.353 6.04z"/><path fill="#A080FF" d="M37 42v9.922l10.353 6.039v-9.922z"/><path fill="#9573FD" fill-rule="evenodd" d="M50.373 39.627h-6.04v2.589c0 .953 1.352 1.725 3.02 1.725s3.02-.772 3.02-1.725v-2.589" clip-rule="evenodd"/><ellipse cx="47.353" cy="39.627" fill="#F7EEFF" rx="3.02" ry="1.725"/><path fill="#FFB8B4" d="m16.294 42 10.353-6.04L37 42l-10.353 6.04z"/><path fill="#EA6463" d="M26.647 57.96 37 51.923V42l-10.353 6.04z"/><path fill="#F88887" fill-rule="evenodd" d="M29.667 39.627h-6.04v2.589c0 .953 1.353 1.725 3.02 1.725s3.02-.772 3.02-1.725v-2.589" clip-rule="evenodd"/><ellipse cx="26.647" cy="39.627" fill="#FFEDEF" rx="3.02" ry="1.725"/><path fill="#FFB8B4" d="M26.647 48.04 37 42l10.353 6.04L37 54.077z"/><g filter="url(#c)"><path fill="url(#d)" d="m37 64 10.353-6.04v-9.92L37 54.077z"/></g><path fill="url(#e)" fill-rule="evenodd" d="M16.294 51.922V42l10.353 6.04L37 54.077V64l-10.353-6.04z" clip-rule="evenodd"/><path fill="#F88887" fill-rule="evenodd" d="M40.02 45.667h-6.04v2.588c0 .953 1.352 1.725 3.02 1.725s3.02-.772 3.02-1.725z" clip-rule="evenodd"/><ellipse cx="37" cy="45.667" fill="#FFEDEF" rx="3.02" ry="1.725"/><path fill="#99D4FF" d="M26.647 26.04 37 20l10.353 6.04L37 32.077z"/><path fill="url(#f)" d="m37 42 10.353-6.04v-9.92L37 32.077z"/><path fill="url(#g)" d="M26.647 26.04v9.92L37 42v-9.922z"/><path fill="#2FA9FF" fill-rule="evenodd" d="M40.02 23.667h-6.04v2.588c0 .953 1.352 1.725 3.02 1.725s3.02-.772 3.02-1.725z" clip-rule="evenodd"/><ellipse cx="37" cy="23.667" fill="#EFF8FF" rx="3.02" ry="1.725"/></g><path fill="#CDBEFF" d="M26.147 37.96 36.5 31.923l10.353 6.039L36.5 44z"/><path fill="#936DFF" d="m36.5 53.922 10.353-6.04v-9.921L36.5 44z"/><path fill="#A080FF" d="M26.147 37.96v9.922l10.353 6.04V44z"/><path fill="#BCAAFC" d="m35.637 37.098 3.549-2.028a1.666 1.666 0 0 1 1.66 2.89l-2.664 1.538z"/><path fill="#9573FD" fill-rule="evenodd" d="M39.52 35.588h-6.04v2.588c0 .953 1.352 1.726 3.02 1.726s3.02-.773 3.02-1.726z" clip-rule="evenodd"/><ellipse cx="36.5" cy="35.588" fill="#F7EEFF" rx="3.02" ry="1.725"/><path fill="#CDBEFF" d="m36.5 44 10.353-6.04L57.206 44l-10.353 6.04z"/><path fill="url(#h)" d="m46.853 59.96 10.353-6.038V44l-10.353 6.04z"/><path fill="#A080FF" d="M36.5 44v9.922l10.353 6.039v-9.922z"/><path fill="#9573FD" fill-rule="evenodd" d="M49.873 41.627h-6.04v2.589c0 .953 1.352 1.725 3.02 1.725s3.02-.772 3.02-1.725v-2.589" clip-rule="evenodd"/><ellipse cx="46.853" cy="41.627" fill="#F7EEFF" rx="3.02" ry="1.725"/><path fill="#FFB8B4" d="m15.794 44 10.353-6.04L36.5 44l-10.353 6.04z"/><path fill="#EA6463" d="M26.147 59.96 36.5 53.923V44l-10.353 6.04z"/><path fill="#F88887" fill-rule="evenodd" d="M29.167 41.627h-6.04v2.589c0 .953 1.353 1.725 3.02 1.725s3.02-.772 3.02-1.725v-2.589" clip-rule="evenodd"/><ellipse cx="26.147" cy="41.627" fill="#FFEDEF" rx="3.02" ry="1.725"/><path fill="#FFB8B4" d="M26.147 50.04 36.5 44l10.353 6.04L36.5 56.077z"/><g filter="url(#i)"><path fill="url(#j)" d="m36.5 66 10.353-6.04v-9.92L36.5 56.077z"/></g><path fill="url(#k)" fill-rule="evenodd" d="M15.794 53.922V44l10.353 6.04L36.5 56.077V66l-10.353-6.04z" clip-rule="evenodd"/><path fill="#F88887" fill-rule="evenodd" d="M39.52 47.667h-6.04v2.588c0 .953 1.352 1.725 3.02 1.725s3.02-.772 3.02-1.725z" clip-rule="evenodd"/><ellipse cx="36.5" cy="47.667" fill="#FFEDEF" rx="3.02" ry="1.725"/><path fill="#99D4FF" d="M26.147 28.04 36.5 22l10.353 6.04L36.5 34.077z"/><path fill="url(#l)" d="m36.5 44 10.353-6.04v-9.92L36.5 34.077z"/><path fill="url(#m)" d="M26.147 28.04v9.92L36.5 44v-9.922z"/><path fill="#2FA9FF" fill-rule="evenodd" d="M39.52 25.667h-6.04v2.588c0 .953 1.352 1.725 3.02 1.725s3.02-.772 3.02-1.725z" clip-rule="evenodd"/><ellipse cx="36.5" cy="25.667" fill="#EFF8FF" rx="3.02" ry="1.725"/><defs><linearGradient id="b" x1="52.529" x2="52.529" y1="42" y2="57.961" gradientUnits="userSpaceOnUse"><stop stop-color="#632DFF"/><stop offset="1" stop-color="#AF93FF" stop-opacity=".78"/></linearGradient><linearGradient id="d" x1="37.745" x2="51.67" y1="53.044" y2="76.394" gradientUnits="userSpaceOnUse"><stop stop-color="#D24544"/><stop offset="1" stop-color="#FB9190" stop-opacity=".24"/></linearGradient><linearGradient id="e" x1="26.647" x2="25.901" y1="42" y2="58.024" gradientUnits="userSpaceOnUse"><stop stop-color="#F79998"/><stop offset="1" stop-color="#F88887"/></linearGradient><linearGradient id="f" x1="40.855" x2="50.886" y1="30.051" y2="36.192" gradientUnits="userSpaceOnUse"><stop stop-color="#0067FF"/><stop offset="1" stop-color="#7CB1FF"/></linearGradient><linearGradient id="g" x1="21" x2="41.576" y1="20.5" y2="34.852" gradientUnits="userSpaceOnUse"><stop stop-color="#0067FF"/><stop offset="1" stop-color="#7CB1FF"/></linearGradient><linearGradient id="h" x1="52.029" x2="52.029" y1="44" y2="59.961" gradientUnits="userSpaceOnUse"><stop stop-color="#632DFF"/><stop offset="1" stop-color="#AF93FF" stop-opacity=".78"/></linearGradient><linearGradient id="j" x1="37.245" x2="51.17" y1="55.044" y2="78.394" gradientUnits="userSpaceOnUse"><stop stop-color="#D24544"/><stop offset="1" stop-color="#FB9190" stop-opacity=".24"/></linearGradient><linearGradient id="k" x1="26.147" x2="25.401" y1="44" y2="60.024" gradientUnits="userSpaceOnUse"><stop stop-color="#F79998"/><stop offset="1" stop-color="#F88887"/></linearGradient><linearGradient id="l" x1="40.355" x2="50.386" y1="32.051" y2="38.192" gradientUnits="userSpaceOnUse"><stop stop-color="#0067FF"/><stop offset="1" stop-color="#7CB1FF"/></linearGradient><linearGradient id="m" x1="20.5" x2="41.076" y1="22.5" y2="36.852" gradientUnits="userSpaceOnUse"><stop stop-color="#0067FF"/><stop offset="1" stop-color="#7CB1FF"/></linearGradient><filter id="a" width="59.412" height="62" x="7.294" y="11" color-interpolation-filters="sRGB" filterUnits="userSpaceOnUse"><feFlood flood-opacity="0" result="BackgroundImageFix"/><feBlend in="SourceGraphic" in2="BackgroundImageFix" result="shape"/><feGaussianBlur result="effect1_foregroundBlur_12320_114385" stdDeviation="4.5"/></filter><filter id="c" width="118.353" height="123.961" x="-17" y="-5.961" color-interpolation-filters="sRGB" filterUnits="userSpaceOnUse"><feFlood flood-opacity="0" result="BackgroundImageFix"/><feGaussianBlur in="BackgroundImageFix" stdDeviation="27"/><feComposite in2="SourceAlpha" operator="in" result="effect1_backgroundBlur_12320_114385"/><feBlend in="SourceGraphic" in2="effect1_backgroundBlur_12320_114385" result="shape"/></filter><filter id="i" width="118.353" height="123.961" x="-17.5" y="-3.961" color-interpolation-filters="sRGB" filterUnits="userSpaceOnUse"><feFlood flood-opacity="0" result="BackgroundImageFix"/><feGaussianBlur in="BackgroundImageFix" stdDeviation="27"/><feComposite in2="SourceAlpha" operator="in" result="effect1_backgroundBlur_12320_114385"/><feBlend in="SourceGraphic" in2="effect1_backgroundBlur_12320_114385" result="shape"/></filter></defs></svg>