<svg xmlns="http://www.w3.org/2000/svg" width="72" height="88" fill="none" opt="1"><g filter="url(#a)"><path fill="#EA6463" d="m26.278 57.007 10.278-5.996v-9.85l-10.278 5.996z"/><g filter="url(#b)"><path fill="url(#c)" fill-rule="evenodd" d="M26.279 35.167 16 41.162l10.277 5.995 10.278 5.995 10.278-5.995-10.278-5.995z" clip-rule="evenodd"/></g><path fill="#F88887" fill-rule="evenodd" d="M29.277 38.807H23.28v2.57c0 .945 1.343 1.712 2.998 1.712s2.998-.767 2.998-1.713z" clip-rule="evenodd"/><ellipse cx="26.279" cy="38.807" fill="#FFEDEF" rx="2.998" ry="1.713"/><g filter="url(#d)"><path fill="url(#e)" d="m36.556 63.002 10.277-5.996v-9.849l-10.277 5.995z"/></g><path fill="url(#f)" fill-rule="evenodd" d="M16.001 51.011v-9.85l10.277 5.996 10.278 5.995v9.85l-10.277-5.996z" clip-rule="evenodd"/><path fill="#F88887" fill-rule="evenodd" d="M39.554 44.802H33.56v2.569c0 .946 1.342 1.713 2.998 1.713 1.655 0 2.997-.767 2.997-1.713z" clip-rule="evenodd"/><ellipse cx="36.556" cy="44.802" fill="#FFEDEF" rx="2.998" ry="1.713"/></g><path fill="#EA6463" d="m31.416 53.528 10.278-5.995v-9.85L31.416 43.68z"/><g filter="url(#g)"><path fill="url(#h)" fill-rule="evenodd" d="m31.416 31.688-10.278 5.995 10.278 5.996 10.277 5.995 10.278-5.995-10.278-5.996z" clip-rule="evenodd"/></g><path fill="#F88887" fill-rule="evenodd" d="M34.414 35.328h-5.996v2.569c0 .946 1.342 1.713 2.998 1.713 1.655 0 2.997-.767 2.997-1.713z" clip-rule="evenodd"/><ellipse cx="31.416" cy="35.328" fill="#FFEDEF" rx="2.998" ry="1.713"/><g filter="url(#i)"><path fill="url(#j)" d="m41.694 59.523 10.277-5.995v-9.85l-10.277 5.996z"/></g><path fill="url(#k)" fill-rule="evenodd" d="M21.138 47.533v-9.85l10.278 5.996 10.277 5.995v9.85l-10.277-5.996z" clip-rule="evenodd"/><path fill="#F88887" fill-rule="evenodd" d="M44.691 41.323h-5.995v2.57c0 .945 1.342 1.712 2.998 1.712 1.655 0 2.997-.767 2.997-1.713v-2.569" clip-rule="evenodd"/><ellipse cx="41.693" cy="41.323" fill="#FFEDEF" rx="2.998" ry="1.713"/><defs><linearGradient id="c" x1="28.108" x2="52.774" y1="43.666" y2="56.998" gradientUnits="userSpaceOnUse"><stop offset=".068" stop-color="#FFB8B4"/><stop offset="1" stop-color="#FFB8B4" stop-opacity="0"/></linearGradient><linearGradient id="e" x1="37.295" x2="51.118" y1="52.126" y2="75.305" gradientUnits="userSpaceOnUse"><stop stop-color="#D24544"/><stop offset="1" stop-color="#FB9190" stop-opacity=".24"/></linearGradient><linearGradient id="f" x1="26.279" x2="25.538" y1="41.162" y2="57.069" gradientUnits="userSpaceOnUse"><stop stop-color="#F79998"/><stop offset="1" stop-color="#F88887"/></linearGradient><linearGradient id="h" x1="33.245" x2="57.911" y1="40.187" y2="53.52" gradientUnits="userSpaceOnUse"><stop offset=".068" stop-color="#FFB8B4"/><stop offset="1" stop-color="#FFB8B4" stop-opacity="0"/></linearGradient><linearGradient id="j" x1="42.433" x2="56.257" y1="48.647" y2="71.827" gradientUnits="userSpaceOnUse"><stop stop-color="#D24544"/><stop offset="1" stop-color="#FB9190" stop-opacity=".24"/></linearGradient><linearGradient id="k" x1="31.416" x2="30.675" y1="37.684" y2="53.591" gradientUnits="userSpaceOnUse"><stop stop-color="#F79998"/><stop offset="1" stop-color="#F88887"/></linearGradient><filter id="a" width="60.833" height="57.835" x="1.001" y="20.167" color-interpolation-filters="sRGB" filterUnits="userSpaceOnUse"><feFlood flood-opacity="0" result="BackgroundImageFix"/><feBlend in="SourceGraphic" in2="BackgroundImageFix" result="shape"/><feGaussianBlur result="effect1_foregroundBlur_12320_114361" stdDeviation="7.5"/></filter><filter id="b" width="38.833" height="25.986" x="12.001" y="31.167" color-interpolation-filters="sRGB" filterUnits="userSpaceOnUse"><feFlood flood-opacity="0" result="BackgroundImageFix"/><feGaussianBlur in="BackgroundImageFix" stdDeviation="2"/><feComposite in2="SourceAlpha" operator="in" result="effect1_backgroundBlur_12320_114361"/><feBlend in="SourceGraphic" in2="effect1_backgroundBlur_12320_114361" result="shape"/></filter><filter id="d" width="118.278" height="123.845" x="-17.445" y="-6.843" color-interpolation-filters="sRGB" filterUnits="userSpaceOnUse"><feFlood flood-opacity="0" result="BackgroundImageFix"/><feGaussianBlur in="BackgroundImageFix" stdDeviation="27"/><feComposite in2="SourceAlpha" operator="in" result="effect1_backgroundBlur_12320_114361"/><feBlend in="SourceGraphic" in2="effect1_backgroundBlur_12320_114361" result="shape"/></filter><filter id="g" width="38.833" height="25.986" x="17.138" y="27.688" color-interpolation-filters="sRGB" filterUnits="userSpaceOnUse"><feFlood flood-opacity="0" result="BackgroundImageFix"/><feGaussianBlur in="BackgroundImageFix" stdDeviation="2"/><feComposite in2="SourceAlpha" operator="in" result="effect1_backgroundBlur_12320_114361"/><feBlend in="SourceGraphic" in2="effect1_backgroundBlur_12320_114361" result="shape"/></filter><filter id="i" width="118.278" height="123.845" x="-12.306" y="-10.321" color-interpolation-filters="sRGB" filterUnits="userSpaceOnUse"><feFlood flood-opacity="0" result="BackgroundImageFix"/><feGaussianBlur in="BackgroundImageFix" stdDeviation="27"/><feComposite in2="SourceAlpha" operator="in" result="effect1_backgroundBlur_12320_114361"/><feBlend in="SourceGraphic" in2="effect1_backgroundBlur_12320_114361" result="shape"/></filter></defs></svg>