<svg xmlns="http://www.w3.org/2000/svg" width="72" height="88" fill="none" opt="1"><g filter="url(#a)"><path fill="#71C3FF" d="m24 40.365 10-5.833 10 5.833L34 46.2z"/><path fill="url(#b)" d="m34 55.782 10-5.833v-9.584L34 46.2z"/><path fill="url(#c)" d="M24 40.365v9.584l10 5.833v-9.583z"/><path fill="#83C0FF" d="m33.167 39.532 3.427-1.959a1.61 1.61 0 0 1 1.604 2.792l-2.573 1.485z"/><path fill="#2FA9FF" fill-rule="evenodd" d="M36.917 38.074h-5.834v2.5c0 .92 1.306 1.666 2.917 1.666s2.916-.746 2.916-1.666z" clip-rule="evenodd"/><g filter="url(#d)"><ellipse cx="34" cy="38.074" fill="#EFF8FF" fill-opacity=".6" rx="2.917" ry="1.667"/></g></g><path fill="#71C3FF" d="m27 39.208 10-5.833 10 5.833-10 5.834z"/><path fill="url(#e)" d="m37 54.625 10-5.833v-9.584l-10 5.834z"/><path fill="url(#f)" d="M27 39.208v9.584l10 5.833v-9.583z"/><path fill="#83C0FF" d="m36.167 38.375 3.427-1.959a1.61 1.61 0 0 1 1.604 2.792l-2.573 1.485z"/><path fill="#2FA9FF" fill-rule="evenodd" d="M39.917 36.917h-5.834v2.5c0 .92 1.306 1.666 2.917 1.666s2.916-.746 2.916-1.666z" clip-rule="evenodd"/><g filter="url(#g)"><ellipse cx="37" cy="36.917" fill="#EFF8FF" fill-opacity=".6" rx="2.917" ry="1.667"/></g><defs><linearGradient id="b" x1="37.724" x2="47.412" y1="44.24" y2="50.172" gradientUnits="userSpaceOnUse"><stop stop-color="#0067FF"/><stop offset="1" stop-color="#2F83FF" stop-opacity="0"/></linearGradient><linearGradient id="c" x1="27.724" x2="47.009" y1="44.24" y2="60.049" gradientUnits="userSpaceOnUse"><stop stop-color="#0067FF"/><stop offset="1" stop-color="#2F83FF" stop-opacity="0"/></linearGradient><linearGradient id="e" x1="40.724" x2="50.412" y1="43.083" y2="49.015" gradientUnits="userSpaceOnUse"><stop stop-color="#0067FF"/><stop offset="1" stop-color="#2F83FF" stop-opacity="0"/></linearGradient><linearGradient id="f" x1="30.724" x2="50.009" y1="43.083" y2="58.892" gradientUnits="userSpaceOnUse"><stop stop-color="#0067FF"/><stop offset="1" stop-color="#2F83FF" stop-opacity="0"/></linearGradient><filter id="a" width="44" height="45.25" x="12" y="22.532" color-interpolation-filters="sRGB" filterUnits="userSpaceOnUse"><feFlood flood-opacity="0" result="BackgroundImageFix"/><feBlend in="SourceGraphic" in2="BackgroundImageFix" result="shape"/><feGaussianBlur result="effect1_foregroundBlur_12320_114349" stdDeviation="6"/></filter><filter id="d" width="13.833" height="11.333" x="27.083" y="32.407" color-interpolation-filters="sRGB" filterUnits="userSpaceOnUse"><feFlood flood-opacity="0" result="BackgroundImageFix"/><feGaussianBlur in="BackgroundImageFix" stdDeviation="2"/><feComposite in2="SourceAlpha" operator="in" result="effect1_backgroundBlur_12320_114349"/><feBlend in="SourceGraphic" in2="effect1_backgroundBlur_12320_114349" result="shape"/></filter><filter id="g" width="13.833" height="11.333" x="30.083" y="31.25" color-interpolation-filters="sRGB" filterUnits="userSpaceOnUse"><feFlood flood-opacity="0" result="BackgroundImageFix"/><feGaussianBlur in="BackgroundImageFix" stdDeviation="2"/><feComposite in2="SourceAlpha" operator="in" result="effect1_backgroundBlur_12320_114349"/><feBlend in="SourceGraphic" in2="effect1_backgroundBlur_12320_114349" result="shape"/></filter></defs></svg>