<svg xmlns="http://www.w3.org/2000/svg" width="180" height="180" fill="none" opt="1"><g clip-path="url(#a)"><g filter="url(#b)" opacity=".8"><path fill="url(#c)" fill-rule="evenodd" d="M93.741 28.956a2.1 2.1 0 0 0-.976-.254c-.337 0-.674.092-.976.265L39.752 58.763c-.605.345-.977.98-.977 1.67v59.592c0 .68.372 1.325.977 1.671l8.006 4.581 25.224-68.575a2.35 2.35 0 0 1 2.209-1.533h13.192c.825 0 1.395.807 1.104 1.568l-28.081 76.348 5.423 3.103 29.237-79.486a2.35 2.35 0 0 1 2.208-1.533h13.193a1.17 1.17 0 0 1 1.104 1.568l-32.094 87.259 11.312 6.472c.302.162.639.254.976.254s.686-.081.976-.254l52.037-29.795c.605-.346.977-.98.977-1.671v-59.58c0-.68-.372-1.325-.977-1.67z" clip-rule="evenodd"/><path fill="url(#d)" fill-opacity=".6" d="M92.765 28.702c.337 0 .674.092.976.254l52.037 29.795c.605.346.977.992.977 1.672v59.579c0 .691-.372 1.325-.977 1.671l-52.037 29.796c-.29.172-.639.253-.976.253a2.1 2.1 0 0 1-.976-.253l-52.037-29.773a1.94 1.94 0 0 1-.977-1.671v-59.59c0-.693.372-1.326.977-1.672l52.037-29.796c.302-.172.639-.265.976-.265m0-8.702c-1.848 0-3.708.473-5.37 1.43L35.37 51.212A10.63 10.63 0 0 0 30 60.434v59.579c0 3.804 2.046 7.32 5.37 9.221l52.037 29.796a10.86 10.86 0 0 0 5.37 1.429c1.848 0 3.707-.473 5.37-1.429l52.036-29.796a10.63 10.63 0 0 0 5.37-9.221V60.434c0-3.803-2.045-7.32-5.37-9.22L98.135 21.428A10.77 10.77 0 0 0 92.765 20"/><path fill="url(#e)" fill-rule="evenodd" d="m118.792 137.125-13.645 7.813-8.744-23.784a2.37 2.37 0 0 1 0-1.602l6.858-18.649c.372-1.026 1.836-1.026 2.208 0zm19.071-10.92-13.646 7.814-16.272-44.228a2.37 2.37 0 0 1 0-1.602l6.858-18.65c.372-1.025 1.836-1.025 2.208 0z" clip-rule="evenodd"/></g><path fill="url(#f)" fill-rule="evenodd" d="M90.61 37.304a1.8 1.8 0 0 0-.844-.219c-.29 0-.582.08-.843.229L43.976 63.05a1.66 1.66 0 0 0-.843 1.443v51.472c0 .587.321 1.145.843 1.443l6.916 3.957 21.787-59.231a2.03 2.03 0 0 1 1.907-1.324h11.395c.713 0 1.205.697.954 1.354L62.68 128.11l4.684 2.68 25.254-68.656a2.03 2.03 0 0 1 1.907-1.324h11.395c.703 0 1.195.697.954 1.354l-27.721 75.37 9.77 5.59c.261.14.552.219.843.219s.593-.069.844-.219l44.946-25.735c.523-.299.844-.847.844-1.444V64.483c0-.587-.321-1.145-.844-1.443z" clip-rule="evenodd"/><path fill="url(#g)" fill-opacity=".6" d="M89.767 37.085c.29 0 .582.08.843.219l44.947 25.736c.522.299.843.856.843 1.443v51.462c0 .597-.321 1.145-.843 1.444L90.61 143.124c-.251.15-.552.219-.844.219-.29 0-.582-.079-.843-.219l-44.947-25.716a1.67 1.67 0 0 1-.843-1.443V64.493c0-.597.321-1.145.843-1.443l44.947-25.736c.261-.15.552-.229.843-.229m0-7.517a9.3 9.3 0 0 0-4.639 1.235L40.192 56.529a9.18 9.18 0 0 0-4.639 7.964v51.462a9.18 9.18 0 0 0 4.639 7.965l44.946 25.735a9.37 9.37 0 0 0 4.639 1.235 9.3 9.3 0 0 0 4.638-1.235l44.947-25.735a9.18 9.18 0 0 0 4.638-7.965V64.493a9.18 9.18 0 0 0-4.638-7.964L94.405 30.803a9.3 9.3 0 0 0-4.639-1.235"/><path fill="url(#h)" fill-rule="evenodd" d="m112.247 130.736-11.785 6.748-7.553-20.543a2.05 2.05 0 0 1 0-1.384l5.923-16.108c.322-.886 1.587-.886 1.908 0zm16.473-9.432-11.787 6.748-14.055-38.2a2.06 2.06 0 0 1 0-1.385l5.924-16.108c.321-.886 1.586-.886 1.907 0z" clip-rule="evenodd"/></g><defs><linearGradient id="d" x1="98.466" x2="66.097" y1="136.922" y2="17.057" gradientUnits="userSpaceOnUse"><stop stop-color="#329DFF"/><stop offset="1" stop-color="#0085FF" stop-opacity="0"/></linearGradient><linearGradient id="e" x1="114.749" x2="99.839" y1="135.744" y2="53.742" gradientUnits="userSpaceOnUse"><stop stop-color="#12AAFF"/><stop offset="1" stop-color="#12AAFF" stop-opacity="0"/></linearGradient><linearGradient id="g" x1="94.691" x2="66.732" y1="130.559" y2="27.027" gradientUnits="userSpaceOnUse"><stop stop-color="#329DFF"/><stop offset="1" stop-color="#0085FF" stop-opacity="0"/></linearGradient><linearGradient id="h" x1="108.755" x2="95.877" y1="129.543" y2="58.714" gradientUnits="userSpaceOnUse"><stop stop-color="#12AAFF"/><stop offset="1" stop-color="#12AAFF" stop-opacity="0"/></linearGradient><radialGradient id="c" cx="0" cy="0" r="1" gradientTransform="rotate(-54.176 154.734 -35.282)scale(109.603 97.9612)" gradientUnits="userSpaceOnUse"><stop stop-color="#18488C"/><stop offset=".281" stop-color="#174E9A" stop-opacity=".852"/><stop offset="1" stop-color="#1F79F5" stop-opacity="0"/></radialGradient><radialGradient id="f" cx="0" cy="0" r="1" gradientTransform="matrix(55.40948 -76.75992 68.60679 49.52411 89.776 108.023)" gradientUnits="userSpaceOnUse"><stop stop-color="#18488C"/><stop offset=".281" stop-color="#174E9A" stop-opacity=".852"/><stop offset="1" stop-color="#1F79F5" stop-opacity="0"/></radialGradient><clipPath id="a"><path fill="#fff" d="M0 0h180v180H0z"/></clipPath><filter id="b" width="169.553" height="184.459" x="8" y="-2" color-interpolation-filters="sRGB" filterUnits="userSpaceOnUse"><feFlood flood-opacity="0" result="BackgroundImageFix"/><feBlend in="SourceGraphic" in2="BackgroundImageFix" result="shape"/><feGaussianBlur result="effect1_foregroundBlur_9213_369633" stdDeviation="11"/></filter></defs></svg>