<svg xmlns="http://www.w3.org/2000/svg" width="180" height="180" fill="none" opt="1"><g clip-path="url(#a)"><g filter="url(#b)" opacity=".6"><path fill="#F0B90B" fill-rule="evenodd" d="M98 35c31.482 0 57 25.518 57 57s-25.518 57-57 57-57-25.518-57-57 25.518-57 57-57" clip-rule="evenodd"/></g><g fill-rule="evenodd" clip-rule="evenodd"><path fill="url(#c)" d="M90 33c31.482 0 57 25.518 57 57s-25.518 57-57 57-57-25.518-57-57 25.518-57 57-57"/><path fill="#fff" d="m109.904 86.97-.041-8.79h.032l-7.465-4.394-12.791 7.543-12.714-7.542-7.46 4.394v8.789l12.791 7.505v15.049l7.428 4.353 7.429-4.353V94.475zm-20.26-35.697-20.184 11.9 7.429 4.395 12.754-7.542 12.792 7.542 7.428-4.394zm-25.51 53.819-.042-15.012-7.423-4.39v23.837l20.22 11.86v-8.789zm-.042-21.276v-8.748l7.465-4.394-7.465-4.394-7.428 4.394v8.748zm25.55-17.536-7.427 4.394 7.428 4.394 7.465-4.394zM76.889 97.586l-7.428-4.394v8.788l7.429 4.354zm12.755 22.554-7.428-4.394v8.748l7.428 4.394 7.465-4.394v-8.748zm25.546-53.86-7.428 4.394 7.428 4.394v8.748l7.465-4.394v-8.748zm7.47 19.406-7.429 4.394-.041 15.012-12.75 7.501v8.789l20.22-11.859zm-12.797 16.294-7.428 4.353v-8.747l7.428-4.395z"/></g></g><defs><linearGradient id="c" x1="90" x2="153.5" y1="33" y2="155.5" gradientUnits="userSpaceOnUse"><stop stop-color="#F0B90B"/><stop offset="1" stop-color="#F0B90B" stop-opacity="0"/></linearGradient><clipPath id="a"><path fill="#fff" d="M0 0h180v180H0z"/></clipPath><filter id="b" width="174" height="174" x="11" y="5" color-interpolation-filters="sRGB" filterUnits="userSpaceOnUse"><feFlood flood-opacity="0" result="BackgroundImageFix"/><feBlend in="SourceGraphic" in2="BackgroundImageFix" result="shape"/><feGaussianBlur result="effect1_foregroundBlur_13207_282853" stdDeviation="15"/></filter></defs></svg>