<svg xmlns="http://www.w3.org/2000/svg" width="180" height="180" fill="none" opt="1"><g filter="url(#a)"><path fill="url(#b)" d="M124.221 123.348H55V53.523h15.84v56.301h53.381z"/><path fill="url(#c)" d="M124.22 67.047c7.804 0 14.127-6.052 14.127-13.523S132.024 40 124.22 40s-14.128 6.053-14.128 13.523c0 7.472 6.323 13.524 14.128 13.524"/></g><path fill="url(#d)" fill-rule="evenodd" d="M140.345 56.282c0 8.994-7.612 16.281-17.008 16.281-9.397 0-17.009-7.287-17.009-16.281S113.94 40 123.337 40s17.008 7.287 17.008 16.282M40 140.345h83.338v-16.281H59.07V56.281H40z" clip-rule="evenodd"/><defs><linearGradient id="b" x1="89.61" x2="89.61" y1="53.523" y2="123.348" gradientUnits="userSpaceOnUse"><stop stop-color="#4CDFFF"/><stop offset="1" stop-color="#50DEFE" stop-opacity="0"/></linearGradient><linearGradient id="c" x1="124.22" x2="124.22" y1="40" y2="67.047" gradientUnits="userSpaceOnUse"><stop stop-color="#4CDFFF"/><stop offset="1" stop-color="#50DEFE" stop-opacity="0"/></linearGradient><linearGradient id="d" x1="123.337" x2="27.376" y1="40" y2="202.062" gradientUnits="userSpaceOnUse"><stop/><stop offset="1" stop-color="#666" stop-opacity="0"/></linearGradient><filter id="a" width="131.347" height="131.348" x="31" y="16" color-interpolation-filters="sRGB" filterUnits="userSpaceOnUse"><feFlood flood-opacity="0" result="BackgroundImageFix"/><feBlend in="SourceGraphic" in2="BackgroundImageFix" result="shape"/><feGaussianBlur result="effect1_foregroundBlur_9213_369674" stdDeviation="12"/></filter></defs></svg>