<svg xmlns="http://www.w3.org/2000/svg" width="180" height="180" fill="none" opt="1"><g filter="url(#a)" opacity=".9"><path fill="url(#b)" d="M92.225 134.55v-18.312c-1.836 0-3.712-.161-5.549-.441l-2.874 18.072c2.794.481 5.629.681 8.423.681m8.384-.641a52 52 0 0 0 8.224-1.964l-5.629-17.43a36 36 0 0 1-5.43 1.282zm-24.991-1.964 5.629-17.39a36 36 0 0 1-5.15-2.124l-8.304 16.309a60.5 60.5 0 0 0 7.825 3.205m41-3.205a55 55 0 0 0 7.186-4.408l-10.779-14.786c-1.477 1.082-3.074 2.084-4.751 2.885zm-56.011-4.448 10.779-14.786a36 36 0 0 1-4.232-3.607L54.22 118.842a59 59 0 0 0 6.388 5.45m69.544-5.37.12-.12a51.7 51.7 0 0 0 5.469-6.371l-14.771-10.779a36 36 0 0 1-3.593 4.207l-.199.201 6.227 5.89zm-81.4-6.531 14.77-10.779a36 36 0 0 1-2.914-4.728l-16.288 8.294a51.3 51.3 0 0 0 4.431 7.213m91.381-7.173c1.277-2.484 2.355-5.129 3.233-7.814l-17.406-5.61a34 34 0 0 1-2.116 5.13zm-99.047-7.814 17.406-5.65a35.5 35.5 0 0 1-1.277-5.41L39.129 89.19c.439 2.765 1.118 5.53 1.956 8.214m104.237-8.174c.439-2.765.678-5.61.678-8.415h-18.284c0 1.843-.16 3.727-.439 5.57zm-88.548-8.455c0-1.843.16-3.727.44-5.57L39.129 72.36c-.44 2.765-.639 5.61-.679 8.415zm70.503-5.53 18.084-2.845c-.439-2.765-1.077-5.53-1.956-8.214l-17.406 5.61c.559 1.803.998 3.606 1.278 5.45m-68.786-5.45a34 34 0 0 1 2.116-5.128l-16.288-8.295c-1.278 2.484-2.356 5.129-3.234 7.814zm65.392-5.088 16.329-8.295a51.4 51.4 0 0 0-4.432-7.213l-14.811 10.78a36 36 0 0 1 2.914 4.728m-60.362-4.769a36.4 36.4 0 0 1 3.633-4.247l.04-.04L54.26 42.708l-.04.04c-1.996 2.003-3.832 4.127-5.469 6.411zm53.855-4.167 3.912-3.967 8.983-8.976-.04-.04c-1.996-1.964-4.112-3.807-6.348-5.45l-10.779 14.786c1.478 1.082 2.915 2.284 4.192 3.607zm-45.95-3.727a33.4 33.4 0 0 1 4.75-2.885L67.874 32.85a55 55 0 0 0-7.186 4.408zm36.968-2.845 8.343-16.309a55 55 0 0 0-7.784-3.245l-5.669 17.39a43 43 0 0 1 5.11 2.164m-27.068-2.164a35.7 35.7 0 0 1 5.43-1.282L83.92 27.681c-2.754.441-5.549 1.082-8.224 1.964zm16.488-1.282 2.875-18.072A53.4 53.4 0 0 0 92.305 27v18.312c1.836 0 3.713.16 5.51.441"/><path fill="url(#c)" d="M92.228 117.083V98.691c-1.557 0-3.075-.2-4.591-.601l-4.791 17.751c3.074.802 6.228 1.242 9.382 1.242m9.381-1.242a34.7 34.7 0 0 0 8.743-3.606l-9.262-15.908a17.8 17.8 0 0 1-4.231 1.763zm-27.466-3.606 9.262-15.908c-1.318-.762-2.555-1.723-3.673-2.805l-.16-.16-5.828 6.13-7.186 6.933.12.12a36.9 36.9 0 0 0 7.465 5.69m43.675-5.69c2.235-2.244 4.191-4.729 5.748-7.453l-16.008-9.217c-.759 1.323-1.717 2.525-2.835 3.647zm-56.93-7.493 16.01-9.177a17.7 17.7 0 0 1-1.757-4.207l-17.845 4.728c.798 3.005 2.036 5.93 3.593 8.656m66.311-8.616c.799-3.045 1.238-6.17 1.238-9.296h-18.484c0 1.522-.2 3.085-.599 4.568zM74.582 81.1c0-1.523.2-3.086.599-4.568l-17.885-4.729c-.799 3.046-1.238 6.171-1.238 9.297zm34.732-4.528 17.885-4.729c-.798-3.045-2.036-5.97-3.593-8.695l-16.009 9.176c.719 1.363 1.318 2.765 1.717 4.248m-32.377-4.248c.759-1.282 1.677-2.524 2.795-3.606l.04-.04-6.627-6.572-6.348-6.531-.12.12c-2.235 2.204-4.152 4.728-5.748 7.413zm27.786-3.606 6.547-6.532 6.707-6.33-.159-.161c-2.236-2.244-4.751-4.127-7.466-5.73l-9.262 15.908a18.5 18.5 0 0 1 3.633 2.765zm-21.318-2.845a17.8 17.8 0 0 1 4.231-1.763l-4.71-17.752a34.7 34.7 0 0 0-8.743 3.607zm13.414-1.723 4.79-17.752c-3.034-.801-6.188-1.242-9.342-1.242V63.55c1.517 0 3.074.2 4.552.6"/></g><path fill="url(#d)" d="M92.225 143.8v-18.312c-1.836 0-3.712-.161-5.549-.441l-2.874 18.072c2.794.481 5.629.681 8.423.681m8.384-.641a52 52 0 0 0 8.224-1.964l-5.629-17.43a36 36 0 0 1-5.43 1.282zm-24.991-1.964 5.629-17.39a36 36 0 0 1-5.15-2.124l-8.304 16.309a60.5 60.5 0 0 0 7.825 3.205m41-3.205a55 55 0 0 0 7.186-4.408l-10.779-14.786c-1.477 1.082-3.074 2.084-4.751 2.885zm-56.011-4.448 10.779-14.786a36 36 0 0 1-4.232-3.607L54.22 128.092a59 59 0 0 0 6.388 5.45m69.544-5.37.12-.12a51.7 51.7 0 0 0 5.469-6.371l-14.771-10.779a36 36 0 0 1-3.593 4.207l-.199.201 6.227 5.89zm-81.4-6.531 14.77-10.779a36 36 0 0 1-2.914-4.729l-16.288 8.295a51.3 51.3 0 0 0 4.431 7.213m91.381-7.173c1.277-2.484 2.355-5.129 3.233-7.814l-17.406-5.609a34 34 0 0 1-2.116 5.129zm-99.047-7.814 17.406-5.65a35.5 35.5 0 0 1-1.277-5.41L39.129 98.44c.439 2.765 1.118 5.53 1.956 8.214m104.237-8.174c.439-2.765.678-5.61.678-8.415h-18.284c0 1.843-.16 3.727-.439 5.57zm-88.548-8.455c0-1.843.16-3.727.44-5.57L39.129 81.61c-.44 2.765-.639 5.61-.679 8.415zm70.503-5.53 18.084-2.845c-.439-2.765-1.077-5.53-1.956-8.214l-17.406 5.61c.559 1.803.998 3.606 1.278 5.45m-68.786-5.45a34 34 0 0 1 2.116-5.128l-16.288-8.295c-1.278 2.484-2.356 5.129-3.234 7.814zm65.392-5.088 16.329-8.295a51.4 51.4 0 0 0-4.432-7.213l-14.811 10.78a36 36 0 0 1 2.914 4.728m-60.362-4.769a36.4 36.4 0 0 1 3.633-4.247l.04-.04L54.26 51.958l-.04.04c-1.996 2.003-3.832 4.127-5.469 6.411zm53.855-4.167 3.912-3.967 8.983-8.976-.04-.04c-1.996-1.964-4.112-3.807-6.348-5.45l-10.779 14.786c1.478 1.082 2.915 2.284 4.192 3.607zm-45.95-3.727a33.4 33.4 0 0 1 4.75-2.885L67.874 42.1a55 55 0 0 0-7.186 4.408zm36.968-2.845 8.343-16.309a55 55 0 0 0-7.784-3.245l-5.669 17.39a43 43 0 0 1 5.11 2.164m-27.068-2.164a35.7 35.7 0 0 1 5.43-1.282L83.92 36.931c-2.754.441-5.549 1.082-8.224 1.964zm16.488-1.282 2.875-18.072a53.4 53.4 0 0 0-8.384-.681v18.312c1.836 0 3.713.16 5.51.441"/><path fill="url(#e)" d="M92.228 126.333v-18.392c-1.557 0-3.075-.2-4.591-.601l-4.791 17.751c3.074.802 6.228 1.242 9.382 1.242m9.381-1.242a34.7 34.7 0 0 0 8.743-3.606l-9.262-15.908a17.9 17.9 0 0 1-4.231 1.763zm-27.466-3.606 9.262-15.908c-1.318-.762-2.555-1.723-3.673-2.805l-.16-.161-5.828 6.131-7.186 6.933.12.12a36.9 36.9 0 0 0 7.465 5.69m43.675-5.69c2.235-2.244 4.191-4.729 5.748-7.453l-16.008-9.217c-.759 1.323-1.717 2.525-2.835 3.647zm-56.93-7.494 16.01-9.176a17.7 17.7 0 0 1-1.757-4.207l-17.845 4.728c.798 3.006 2.036 5.931 3.593 8.655m66.311-8.615c.799-3.045 1.238-6.17 1.238-9.296h-18.484c0 1.522-.2 3.085-.599 4.568zM74.582 90.35c0-1.523.2-3.086.599-4.568l-17.885-4.729c-.799 3.046-1.238 6.171-1.238 9.297zm34.732-4.528 17.885-4.729c-.798-3.045-2.036-5.97-3.593-8.695l-16.009 9.176c.719 1.363 1.318 2.765 1.717 4.248m-32.377-4.248c.759-1.282 1.677-2.524 2.795-3.606l.04-.04-6.627-6.572-6.348-6.531-.12.12c-2.235 2.204-4.152 4.728-5.748 7.413zm27.786-3.606 6.547-6.532 6.707-6.33-.159-.161c-2.236-2.244-4.751-4.127-7.466-5.73l-9.262 15.908a18.5 18.5 0 0 1 3.633 2.765zm-21.318-2.845a17.8 17.8 0 0 1 4.231-1.763l-4.71-17.752a34.7 34.7 0 0 0-8.743 3.607zM96.819 73.4l4.79-17.752c-3.034-.801-6.188-1.242-9.342-1.242V72.8c1.517 0 3.074.2 4.552.6"/><defs><linearGradient id="b" x1="132.5" x2="92.225" y1="18.75" y2="134.55" gradientUnits="userSpaceOnUse"><stop stop-color="#4968D4"/><stop offset="1" stop-color="#666"/></linearGradient><linearGradient id="c" x1="119.352" x2="92.549" y1="39.639" y2="117.187" gradientUnits="userSpaceOnUse"><stop stop-color="#4968D4"/><stop offset="1" stop-color="#666"/></linearGradient><linearGradient id="d" x1="132.5" x2="92.225" y1="28" y2="143.8" gradientUnits="userSpaceOnUse"><stop/><stop offset="1" stop-color="#666"/></linearGradient><linearGradient id="e" x1="119.352" x2="92.549" y1="48.889" y2="126.437" gradientUnits="userSpaceOnUse"><stop/><stop offset="1" stop-color="#666"/></linearGradient><filter id="a" width="159.55" height="159.55" x="12.45" y="1" color-interpolation-filters="sRGB" filterUnits="userSpaceOnUse"><feFlood flood-opacity="0" result="BackgroundImageFix"/><feBlend in="SourceGraphic" in2="BackgroundImageFix" result="shape"/><feGaussianBlur result="effect1_foregroundBlur_9213_369661" stdDeviation="13"/></filter></defs></svg>