<svg xmlns="http://www.w3.org/2000/svg" width="180" height="180" fill="none"><g clip-path="url(#a)"><g filter="url(#b)"><path fill="#DFFE00" d="M136.917 111.984H118.58V70.632l7.342-23.587-5.209-1.848-23.777 66.787H82.981L59.188 45.198l-5.192 1.847 7.341 23.587V112H43V29h27.299L87.23 76.504v13.954h5.54V76.504L109.7 29H137v82.984z"/></g><path fill="url(#c)" d="M136.917 130.984H118.58V89.632l7.342-23.587-5.209-1.847-23.777 66.786H82.981L59.188 64.198l-5.192 1.847 7.341 23.587V131H43V48h27.299L87.23 95.504v13.954h5.54V95.504L109.7 48H137v82.984z"/></g><defs><linearGradient id="c" x1="90" x2="161.5" y1="48" y2="175" gradientUnits="userSpaceOnUse"><stop/><stop offset="1" stop-opacity="0"/></linearGradient><clipPath id="a"><path fill="#fff" d="M0 0h180v180H0z"/></clipPath><filter id="b" width="162" height="151" x="9" y="-5" color-interpolation-filters="sRGB" filterUnits="userSpaceOnUse"><feFlood flood-opacity="0" result="BackgroundImageFix"/><feBlend in="SourceGraphic" in2="BackgroundImageFix" result="shape"/><feGaussianBlur result="effect1_foregroundBlur_13207_263394" stdDeviation="17"/></filter></defs></svg>