<svg xmlns="http://www.w3.org/2000/svg" width="180" height="180" fill="none" opt="1"><path fill="url(#a)" d="M90.5 148c31.756 0 57.5-25.744 57.5-57.5S122.256 33 90.5 33 33 58.744 33 90.5 58.744 148 90.5 148"/><g filter="url(#b)" opacity=".4"><path fill="url(#c)" d="M85.284 149.568c34.399 0 62.284-27.885 62.284-62.284S119.683 25 85.284 25 23 52.886 23 87.284c0 34.399 27.886 62.284 62.284 62.284"/></g><path fill="#fff" d="M71.374 106.974q-2.891 0-5.37-.779-2.477-.779-4.175-2.335t-2.432-3.893q-.688-2.335-.183-5.45.366-1.969.78-3.938.459-1.97.917-3.985 1.515-6.182 5.461-9.388T77.018 74q2.89 0 5.323.824 2.478.78 4.176 2.382 1.743 1.603 2.432 3.938.733 2.336.183 5.45a57 57 0 0 1-.78 3.985 185 185 0 0 1-.872 3.938q-1.56 6.274-5.506 9.389-3.948 3.068-10.6 3.068m.596-6.595q2.478 0 4.36-1.465 1.88-1.467 2.661-4.672.505-2.015.872-3.8.413-1.787.734-3.71.596-3.205-.55-4.672-1.148-1.465-3.626-1.465t-4.359 1.465q-1.835 1.467-2.616 4.672a129 129 0 0 0-.917 3.71q-.368 1.785-.734 3.8-.551 3.205.55 4.672 1.102 1.465 3.625 1.465m19.04 6.137q-.46 0-.734-.321-.276-.32-.184-.824l6.332-29.768q.091-.504.505-.824.413-.321.872-.321h12.206q2.799 0 5.048.641 2.293.641 3.808 1.97 1.514 1.327 2.111 3.343.596 1.969.046 4.625-1.149 5.266-4.68 7.786-3.488 2.518-9.407 2.519h-6.195l-2.11 10.029q-.093.504-.506.824a1.28 1.28 0 0 1-.871.321zm10.921-17.495h5.277q1.88 0 3.35-1.007 1.513-1.007 1.973-3.068.228-1.192.092-2.107-.138-.917-.964-1.466-.78-.55-2.432-.55h-5.506z"/><defs><radialGradient id="a" cx="0" cy="0" r="1" gradientTransform="rotate(-149.886 63.38 41.02)scale(80.0423)" gradientUnits="userSpaceOnUse"><stop stop-color="#FF0420"/><stop offset="1" stop-color="#FF0420" stop-opacity="0"/></radialGradient><linearGradient id="c" x1="85.284" x2="85.284" y1="25" y2="149.568" gradientUnits="userSpaceOnUse"><stop stop-color="#FF0420"/><stop offset="1" stop-color="#FF0420" stop-opacity="0"/></linearGradient><filter id="b" width="170.568" height="170.568" x="0" y="2" color-interpolation-filters="sRGB" filterUnits="userSpaceOnUse"><feFlood flood-opacity="0" result="BackgroundImageFix"/><feBlend in="SourceGraphic" in2="BackgroundImageFix" result="shape"/><feGaussianBlur result="effect1_foregroundBlur_9213_369643" stdDeviation="11.5"/></filter></defs></svg>