<svg xmlns="http://www.w3.org/2000/svg" width="180" height="180" fill="none" opt="1"><path fill="url(#a)" d="M120.044 69.772a7.42 7.42 0 0 0-7.402 0L95.66 79.886l-11.538 6.596L67.14 96.596a7.41 7.41 0 0 1-7.401 0L46.24 88.681a7.6 7.6 0 0 1-3.702-6.377v-15.61a7.14 7.14 0 0 1 3.702-6.377l13.28-7.695a7.41 7.41 0 0 1 7.402 0l13.28 7.695a7.6 7.6 0 0 1 3.701 6.377v10.114l11.539-6.816V59.877a7.14 7.14 0 0 0-3.701-6.376L67.14 38.99a7.41 7.41 0 0 0-7.401 0L34.702 53.5a7.14 7.14 0 0 0-3.701 6.377V89.12a7.14 7.14 0 0 0 3.701 6.376l25.037 14.512a7.41 7.41 0 0 0 7.402 0l16.98-9.894 11.54-6.816 16.981-9.894a7.41 7.41 0 0 1 7.402 0l13.28 7.695a7.59 7.59 0 0 1 3.701 6.376v15.611a7.15 7.15 0 0 1-3.701 6.377l-13.28 7.915a7.41 7.41 0 0 1-7.402 0l-13.28-7.695a7.6 7.6 0 0 1-3.702-6.377v-10.114l-11.538 6.816v10.114a7.14 7.14 0 0 0 3.7 6.376l25.037 14.512a7.41 7.41 0 0 0 7.402 0l25.037-14.512a7.6 7.6 0 0 0 3.701-6.376V90.879a7.14 7.14 0 0 0-3.701-6.376z"/><g filter="url(#b)" opacity=".5"><path fill="#7B3FE4" d="M120.044 69.772a7.42 7.42 0 0 0-7.402 0L95.66 79.886l-11.538 6.596L67.14 96.596a7.41 7.41 0 0 1-7.401 0L46.24 88.681a7.6 7.6 0 0 1-3.702-6.377v-15.61a7.14 7.14 0 0 1 3.702-6.377l13.28-7.695a7.41 7.41 0 0 1 7.402 0l13.28 7.695a7.6 7.6 0 0 1 3.701 6.377v10.114l11.539-6.816V59.877a7.14 7.14 0 0 0-3.701-6.376L67.14 38.99a7.41 7.41 0 0 0-7.401 0L34.702 53.5a7.14 7.14 0 0 0-3.701 6.377V89.12a7.14 7.14 0 0 0 3.701 6.376l25.037 14.512a7.41 7.41 0 0 0 7.402 0l16.98-9.894 11.54-6.816 16.981-9.894a7.41 7.41 0 0 1 7.402 0l13.28 7.695a7.59 7.59 0 0 1 3.701 6.376v15.611a7.15 7.15 0 0 1-3.701 6.377l-13.28 7.915a7.41 7.41 0 0 1-7.402 0l-13.28-7.695a7.6 7.6 0 0 1-3.702-6.377v-10.114l-11.538 6.816v10.114a7.14 7.14 0 0 0 3.7 6.376l25.037 14.512a7.41 7.41 0 0 0 7.402 0l25.037-14.512a7.6 7.6 0 0 0 3.701-6.376V90.879a7.14 7.14 0 0 0-3.701-6.376z"/></g><defs><linearGradient id="a" x1="71.5" x2="109" y1="38" y2="160.5" gradientUnits="userSpaceOnUse"><stop stop-color="#7B3FE4"/><stop offset="1" stop-color="#7B3FE4" stop-opacity="0"/></linearGradient><filter id="b" width="162" height="148" x="9" y="16" color-interpolation-filters="sRGB" filterUnits="userSpaceOnUse"><feFlood flood-opacity="0" result="BackgroundImageFix"/><feBlend in="SourceGraphic" in2="BackgroundImageFix" result="shape"/><feGaussianBlur result="effect1_foregroundBlur_9213_369648" stdDeviation="11"/></filter></defs></svg>