<svg xmlns="http://www.w3.org/2000/svg" width="180" height="180" fill="none" opt="1"><g filter="url(#a)" opacity=".8"><path fill="#FFEEDA" d="M124.177 106.976V48.788A8.9 8.9 0 0 0 115.256 40H53.884C40.642 40.198 30 50.925 30 64.067c0 4.433 1.2 8.233 3.04 11.558 1.56 2.771 4.001 5.384 6.402 7.323.68.554.36.317 2.44 1.584 2.88 1.741 6.161 2.612 6.161 2.612l-.04 34.794c.08 1.663.24 3.246.68 4.711 1.36 4.908 4.801 8.668 9.482 10.489 1.96.752 4.16 1.267 6.521 1.307l49.009.158c9.762 0 17.684-7.838 17.684-17.536.04-5.739-2.841-10.885-7.202-14.091"/><path fill="url(#b)" d="M125.377 121.503c-.2 6.214-5.361 11.202-11.682 11.202l-33.726-.119c2.68-3.087 4.32-7.085 4.32-11.44 0-6.848-4.12-11.558-4.12-11.558h33.566c6.441 0 11.682 5.185 11.682 11.558z"/><path fill="url(#c)" d="M42.642 78.04c-3.88-3.642-6.6-8.352-6.6-13.934v-.593c.32-9.54 8.24-17.22 17.882-17.496h61.372c1.6.079 2.88 1.187 2.88 2.81v51.38c1.4.237 2.08.435 3.441.91 1.08.396 2.56 1.227 2.56 1.227V48.827a8.9 8.9 0 0 0-8.921-8.787H53.884C40.642 40.237 30 50.965 30 64.106c0 7.64 3.52 14.171 9.282 18.763.4.317.76.713 1.8.713 1.8 0 3.08-1.425 3-2.97-.04-1.305-.6-1.78-1.44-2.572"/><path fill="url(#d)" d="M113.695 103.571H65.567c-3.241.04-5.842 2.613-5.842 5.819v6.848c.08 3.167 2.8 5.858 6.041 5.858h3.561v-5.858h-3.56v-6.69h1.96c6.081 0 10.562 5.582 10.562 11.559 0 5.304-4.881 12.073-13.043 11.519-7.24-.475-11.162-6.848-11.162-11.519v-58.03c0-2.612-2.16-4.75-4.8-4.75h-4.801v5.938h3.56v56.881c-.2 11.559 8.322 17.378 17.203 17.378l48.489.158c9.762 0 17.684-7.838 17.684-17.536s-7.962-17.575-17.724-17.575m11.682 17.932c-.2 6.214-5.361 11.202-11.682 11.202l-33.726-.119c2.68-3.087 4.32-7.085 4.32-11.44 0-6.848-4.12-11.558-4.12-11.558h33.566c6.441 0 11.682 5.185 11.682 11.558z"/><path fill="url(#e)" d="M100.733 65.334H64.446v-5.938h36.287c1.64 0 3.001 1.306 3.001 2.969a2.98 2.98 0 0 1-3.001 2.969"/><path fill="url(#f)" d="M100.733 93.28H64.446v-5.938h36.287c1.64 0 3.001 1.306 3.001 2.969a2.98 2.98 0 0 1-3.001 2.968"/><path fill="url(#g)" d="M107.134 79.307H64.446v-5.938h42.648c1.64 0 3.001 1.306 3.001 2.969.04 1.623-1.321 2.969-2.961 2.969"/></g><path fill="#FFEEDA" d="M136.542 108.264V46.35a9.47 9.47 0 0 0-9.493-9.35h-65.3c-14.091.21-25.415 11.625-25.415 25.608 0 4.717 1.277 8.76 3.236 12.298 1.66 2.948 4.257 5.728 6.81 7.792.724.59.384.337 2.597 1.685 3.065 1.853 6.556 2.78 6.556 2.78l-.043 37.021c.086 1.769.256 3.454.724 5.012 1.447 5.223 5.108 9.224 10.089 11.162 2.086.8 4.427 1.348 6.939 1.39l52.147.168c10.386 0 18.815-8.339 18.815-18.658.043-6.107-3.022-11.583-7.662-14.994"/><path fill="url(#h)" d="M137.819 123.721c-.213 6.613-5.705 11.92-12.431 11.92l-35.885-.127c2.852-3.285 4.597-7.539 4.597-12.172 0-7.286-4.384-12.298-4.384-12.298h35.715c6.854 0 12.43 5.517 12.43 12.298z"/><path fill="url(#i)" d="M49.786 77.476c-4.129-3.875-7.024-8.888-7.024-14.826v-.632c.34-10.15 8.77-18.321 19.029-18.616h65.3c1.703.084 3.065 1.264 3.065 2.99v54.67c1.49.252 2.214.463 3.661.968 1.15.421 2.725 1.306 2.725 1.306V46.392a9.47 9.47 0 0 0-9.493-9.35h-65.3c-14.091.21-25.415 11.625-25.415 25.608 0 8.129 3.746 15.078 9.877 19.964.425.337.808.758 1.915.758 1.916 0 3.278-1.516 3.193-3.159-.043-1.39-.639-1.895-1.533-2.737"/><path fill="url(#j)" d="M125.389 104.642h-51.21c-3.449.042-6.216 2.779-6.216 6.191v7.286c.085 3.37 2.98 6.234 6.428 6.234h3.789v-6.234H74.39v-7.118h2.086c6.47 0 11.238 5.939 11.238 12.299 0 5.644-5.193 12.846-13.877 12.256-7.705-.505-11.877-7.286-11.877-12.256V61.555c0-2.78-2.299-5.054-5.108-5.054h-5.109v6.317h3.789v60.524c-.213 12.299 8.854 18.49 18.305 18.49l51.593.168c10.387 0 18.816-8.339 18.816-18.658s-8.472-18.7-18.858-18.7m12.43 19.079c-.213 6.613-5.705 11.92-12.431 11.92l-35.885-.127c2.852-3.285 4.597-7.539 4.597-12.172 0-7.286-4.384-12.298-4.384-12.298h35.715c6.854 0 12.43 5.517 12.43 12.298z"/><path fill="url(#k)" d="M111.596 63.956h-38.61v-6.318h38.61c1.746 0 3.193 1.39 3.193 3.159 0 1.727-1.405 3.159-3.193 3.159"/><path fill="url(#l)" d="M111.596 93.69h-38.61v-6.317h38.61c1.746 0 3.193 1.39 3.193 3.159 0 1.727-1.405 3.159-3.193 3.159"/><path fill="url(#m)" d="M118.407 78.823h-45.42v-6.317h45.378c1.745 0 3.192 1.39 3.192 3.158.043 1.727-1.404 3.16-3.15 3.16"/><defs><linearGradient id="b" x1="80.709" x2="80.709" y1="40" y2="138.682" gradientUnits="userSpaceOnUse"><stop stop-color="#EBC28E"/><stop offset="1" stop-color="#FFE3BF" stop-opacity=".4"/></linearGradient><linearGradient id="c" x1="80.709" x2="80.709" y1="40" y2="138.682" gradientUnits="userSpaceOnUse"><stop stop-color="#190602"/><stop offset="1" stop-color="#7F1E0A" stop-opacity=".27"/></linearGradient><linearGradient id="d" x1="80.709" x2="80.709" y1="40" y2="138.682" gradientUnits="userSpaceOnUse"><stop stop-color="#190602"/><stop offset="1" stop-color="#7F1E0A" stop-opacity=".27"/></linearGradient><linearGradient id="e" x1="80.709" x2="80.709" y1="40" y2="138.682" gradientUnits="userSpaceOnUse"><stop stop-color="#190602"/><stop offset="1" stop-color="#7F1E0A" stop-opacity=".27"/></linearGradient><linearGradient id="f" x1="80.709" x2="80.709" y1="40" y2="138.682" gradientUnits="userSpaceOnUse"><stop stop-color="#190602"/><stop offset="1" stop-color="#7F1E0A" stop-opacity=".27"/></linearGradient><linearGradient id="g" x1="80.709" x2="80.709" y1="40" y2="138.682" gradientUnits="userSpaceOnUse"><stop stop-color="#190602"/><stop offset="1" stop-color="#7F1E0A" stop-opacity=".27"/></linearGradient><linearGradient id="h" x1="90.29" x2="90.29" y1="37" y2="142" gradientUnits="userSpaceOnUse"><stop stop-color="#EBC28E"/><stop offset="1" stop-color="#FFE3BF" stop-opacity=".4"/></linearGradient><linearGradient id="i" x1="90.29" x2="90.29" y1="37" y2="142" gradientUnits="userSpaceOnUse"><stop stop-color="#190602"/><stop offset="1" stop-color="#7F1E0A" stop-opacity=".27"/></linearGradient><linearGradient id="j" x1="90.29" x2="90.29" y1="37" y2="142" gradientUnits="userSpaceOnUse"><stop stop-color="#190602"/><stop offset="1" stop-color="#7F1E0A" stop-opacity=".27"/></linearGradient><linearGradient id="k" x1="90.29" x2="90.29" y1="37" y2="142" gradientUnits="userSpaceOnUse"><stop stop-color="#190602"/><stop offset="1" stop-color="#7F1E0A" stop-opacity=".27"/></linearGradient><linearGradient id="l" x1="90.29" x2="90.29" y1="37" y2="142" gradientUnits="userSpaceOnUse"><stop stop-color="#190602"/><stop offset="1" stop-color="#7F1E0A" stop-opacity=".27"/></linearGradient><linearGradient id="m" x1="90.29" x2="90.29" y1="37" y2="142" gradientUnits="userSpaceOnUse"><stop stop-color="#190602"/><stop offset="1" stop-color="#7F1E0A" stop-opacity=".27"/></linearGradient><filter id="a" width="145.418" height="142.682" x="8" y="18" color-interpolation-filters="sRGB" filterUnits="userSpaceOnUse"><feFlood flood-opacity="0" result="BackgroundImageFix"/><feBlend in="SourceGraphic" in2="BackgroundImageFix" result="shape"/><feGaussianBlur result="effect1_foregroundBlur_9213_369688" stdDeviation="11"/></filter></defs></svg>